<svg width="36" height="34" viewBox="0 0 36 34" fill="none" xmlns="http://www.w3.org/2000/svg">
<path d="M5.79458 23.2489C5.78129 23.2383 5.76801 23.2277 5.75473 23.2197C5.71495 23.1965 5.68061 23.1651 5.65403 23.1275C5.62745 23.09 5.60926 23.0471 5.60067 23.0019C5.58473 22.9116 5.60598 22.816 5.66176 22.7256C6.27801 22.4335 10.8149 20.2686 11.9358 19.2513C12.2254 18.9883 12.3635 18.3242 12.6211 16.9722C12.6796 16.6641 12.7433 16.3347 12.8124 15.9867C12.8788 15.6653 13.0541 15.0703 13.2374 14.4408C13.4897 13.5828 13.75 12.6983 13.8377 12.175C14.5655 7.77361 15.1711 2.31768 15.1765 2.26455C15.2747 1.31627 15.4819 0.352051 16.2522 0.352051C17.1607 0.352051 17.7955 0.923144 17.7955 1.74393L17.8513 22.7363C17.8513 24.2397 17.2802 24.4575 16.6188 24.7099C16.2469 24.8506 15.8272 25.0127 15.5297 25.4085C14.9215 26.2213 14.2707 27.2997 13.6411 28.3436C13.3729 28.7872 13.0993 29.2441 12.831 29.6717L5.79458 23.2489Z" fill="url(#paint0_radial)"/>
<path d="M16.2549 0.61499C17.0199 0.61499 17.5325 1.06655 17.5325 1.74124L17.5883 22.7309C17.5883 24.0511 17.166 24.2131 16.5258 24.4575C16.1221 24.6116 15.6625 24.7869 15.3199 25.2437C14.7036 26.0672 14.0502 27.1509 13.418 28.2028C13.2055 28.5534 12.9903 28.912 12.7778 29.2573L5.97785 23.0523C5.95394 23.0311 5.92738 23.0098 5.89816 22.9912C5.87425 22.978 5.86894 22.9647 5.86894 22.9514C5.86628 22.9418 5.86628 22.9317 5.86894 22.9222C6.7455 22.5051 11.0168 20.4492 12.1191 19.4478C12.4724 19.1264 12.6105 18.473 12.8868 17.0226C12.9452 16.7172 13.0089 16.3851 13.078 16.0398C13.1418 15.7291 13.3144 15.1394 13.4977 14.5178C13.7527 13.6519 14.0157 12.7594 14.1033 12.2175C14.8311 7.80812 15.4368 2.34687 15.4447 2.28843C15.5669 1.11437 15.8086 0.61499 16.2549 0.61499ZM16.2549 0.0837402C15.2003 0.0837402 15.0064 1.37733 14.9161 2.23265C14.9161 2.23265 14.3132 7.68327 13.58 12.1298C13.4313 13.0303 12.7114 15.1686 12.5574 15.9336C12.2307 17.538 12.0633 18.7784 11.7605 19.0547C10.5997 20.1092 5.4891 22.5131 5.4891 22.5131C5.23941 22.8292 5.29519 23.2462 5.6166 23.4428L12.8868 30.0781C13.8164 28.6172 14.8285 26.7844 15.7422 25.5625C16.4727 24.585 18.1169 25.2969 18.1169 22.7309L18.0611 1.74124C18.0611 0.82749 17.3758 0.0837402 16.2549 0.0837402Z" fill="#EDA600"/>
<path d="M13.6358 33.7066L0.224396 33.5578L0.373146 23.2462L8.80408 19.4611C9.19986 19.2858 9.65939 19.5062 9.76564 19.9259C10.018 20.9114 10.605 22.6592 11.8906 24.4123C13.1019 26.0645 14.4088 27.3395 15.2216 28.0673C15.4493 28.2709 15.604 28.5434 15.6621 28.8432C15.7201 29.1431 15.6783 29.4537 15.543 29.7275L12.313 32.2111L13.6358 33.7066Z" fill="url(#paint1_linear)"/>
<path d="M14.9719 3.78124C14.9719 3.78124 15.1897 2.40796 16.4381 2.40796C17.6866 2.40796 17.7716 3.78124 17.7716 3.78124" stroke="#EDA600" stroke-width="0.25" stroke-miterlimit="10" stroke-linecap="round" stroke-linejoin="round"/>
<path d="M14.5761 7.2343C14.5761 7.2343 14.8497 5.73352 16.1725 5.73352C17.4953 5.73352 17.7981 7.2343 17.7981 7.2343" stroke="#EDA600" stroke-width="0.25" stroke-miterlimit="10" stroke-linecap="round" stroke-linejoin="round"/>
<path opacity="0.2" d="M9.02455 20.2367C9.29017 21.2328 9.91439 23.063 11.2478 24.8825C12.4803 26.5613 13.8005 27.8628 14.6903 28.6597C14.8497 28.8032 14.9188 29.021 14.8789 29.2255L11.8455 31.4382C11.6675 31.5683 11.5533 31.7622 11.5241 31.98C11.4949 32.1978 11.5586 32.4157 11.6967 32.5857L11.9464 32.8911L1.03721 32.7689L1.16736 23.7669L9.02455 20.2367ZM9.09096 19.4C8.99533 19.4 8.89971 19.4186 8.80674 19.4611L0.375801 23.2463L0.227051 33.5578L13.6385 33.7066L12.313 32.081L15.543 29.7275C15.6791 29.4539 15.7214 29.1431 15.6633 28.843C15.6052 28.543 15.45 28.2704 15.2216 28.0674C14.4088 27.3396 13.1045 26.0672 11.8906 24.4124C10.605 22.6619 10.018 20.9141 9.76564 19.926C9.72792 19.7756 9.64103 19.6422 9.51878 19.5469C9.39654 19.4516 9.24595 19.3999 9.09096 19.4Z" fill="#424242"/>
<path d="M23.0442 29.6691C22.7786 29.2414 22.5024 28.7845 22.2341 28.341C21.6046 27.297 20.9538 26.216 20.3455 25.4058C20.048 25.01 19.6283 24.848 19.2564 24.7072C18.595 24.4549 18.0239 24.237 18.0239 22.7336L18.0797 1.74393C18.0797 0.923144 18.7146 0.352051 19.623 0.352051C20.3933 0.352051 20.5978 1.31893 20.6988 2.26455C20.7041 2.32033 21.3097 7.77627 22.0375 12.1777C22.1225 12.701 22.3855 13.5881 22.6378 14.4435C22.8238 15.073 22.9991 15.668 23.0628 15.9894C23.1346 16.3374 23.1983 16.6694 23.2567 16.9775C23.5144 18.3295 23.6525 18.991 23.9421 19.2539C25.0603 20.2713 29.5999 22.4361 30.2161 22.7283C30.2719 22.816 30.2931 22.9116 30.2772 23.0019C30.2613 23.0922 30.2081 23.1692 30.1231 23.2197C30.1099 23.2277 30.0966 23.2383 30.0833 23.2489L23.0442 29.6691Z" fill="url(#paint2_radial)"/>
<path d="M19.6203 0.61499C20.0666 0.61499 20.3083 1.11702 20.4331 2.29108C20.4385 2.34687 21.0467 7.80812 21.7746 12.2175C21.8622 12.7567 22.1278 13.6519 22.3802 14.5151C22.5635 15.1394 22.7361 15.7264 22.7999 16.0372C22.8716 16.3851 22.9327 16.7145 22.9911 17.02C23.2674 18.4703 23.4055 19.1237 23.7588 19.4451C24.8611 20.4492 29.1324 22.5025 30.0089 22.9195C30.0116 22.9301 30.0116 22.9408 30.0089 22.9487C30.0063 22.9594 30.001 22.9726 29.9797 22.9886C29.9505 23.0072 29.9239 23.0258 29.9 23.0497L23.1 29.2547C22.8875 28.9094 22.6724 28.5508 22.4599 28.2001C21.8277 27.1509 21.1716 26.0645 20.558 25.2411C20.2153 24.7842 19.7558 24.6089 19.3521 24.4548C18.7119 24.2105 18.2896 24.0484 18.2896 22.7309L18.3453 1.73858C18.3427 1.06655 18.858 0.61499 19.6203 0.61499ZM19.6203 0.0837402C18.4994 0.0837402 17.8114 0.82749 17.8114 1.74124L17.7556 22.7309C17.7556 25.2969 19.3999 24.585 20.1303 25.5625C21.0441 26.7844 22.0561 28.6172 22.9858 30.0781L30.256 23.4455C30.5774 23.2489 30.6358 22.8319 30.3835 22.5158C30.3835 22.5158 25.2728 20.1119 24.1121 19.0573C23.8092 18.7811 23.6419 17.5406 23.3152 15.9362C23.1611 15.1712 22.4413 13.033 22.2925 12.1325C21.5594 7.68593 20.9564 2.2353 20.9564 2.2353C20.8714 1.37733 20.6749 0.0837402 19.6203 0.0837402Z" fill="#EDA600"/>
<path d="M22.2367 33.7066L35.6481 33.5578L35.4994 23.2462L27.0684 19.4611C26.6726 19.2858 26.2131 19.5062 26.1069 19.9259C25.8545 20.9114 25.2675 22.6592 23.9819 24.4123C22.7706 26.0645 21.4637 27.3395 20.6509 28.0673C20.4232 28.2709 20.2685 28.5434 20.2104 28.8432C20.1524 29.1431 20.1942 29.4537 20.3295 29.7275L23.5595 32.2111L22.2367 33.7066Z" fill="url(#paint3_linear)"/>
<path d="M20.9033 3.78124C20.9033 3.78124 20.6855 2.40796 19.437 2.40796C18.1886 2.40796 18.1036 3.78124 18.1036 3.78124" stroke="#EDA600" stroke-width="0.25" stroke-miterlimit="10" stroke-linecap="round" stroke-linejoin="round"/>
<path d="M21.2991 7.2343C21.2991 7.2343 21.0255 5.73352 19.7027 5.73352C18.3772 5.73352 18.077 7.2343 18.077 7.2343" stroke="#EDA600" stroke-width="0.25" stroke-miterlimit="10" stroke-linecap="round" stroke-linejoin="round"/>
<path opacity="0.2" d="M26.8506 20.2367L34.7105 23.7642L34.8406 32.7663L23.9314 32.8885L24.1811 32.583C24.3192 32.413 24.383 32.1952 24.3537 31.9774C24.3245 31.7596 24.2103 31.5656 24.0323 31.4355L20.9989 29.2228C20.9591 29.0183 21.0281 28.8005 21.1875 28.6571C22.0773 27.8602 23.3975 26.5586 24.63 24.8799C25.9608 23.063 26.585 21.2328 26.8506 20.2367ZM26.7842 19.4C26.4761 19.4 26.1892 19.6046 26.1069 19.926C25.8545 20.9114 25.2675 22.6592 23.9819 24.4124C22.7706 26.0646 21.4637 27.3396 20.6509 28.0674C20.4232 28.2709 20.2685 28.5434 20.2104 28.8433C20.1524 29.1431 20.1942 29.4537 20.3295 29.7275L23.5595 32.081L22.2341 33.7066L35.6455 33.5578L35.4967 23.2463L27.0684 19.4611C26.9755 19.4186 26.8798 19.4 26.7842 19.4Z" fill="#424242"/>
<defs>
<radialGradient id="paint0_radial" cx="0" cy="0" r="1" gradientUnits="userSpaceOnUse" gradientTransform="translate(14.6904 9.61047) scale(11.5291 17.2113)">
<stop offset="0.353" stop-color="#FFCA28"/>
<stop offset="0.872" stop-color="#FFB300"/>
</radialGradient>
<linearGradient id="paint1_linear" x1="0.226255" y1="26.5533" x2="15.687" y2="26.5533" gradientUnits="userSpaceOnUse">
<stop stop-color="#009944"/>
<stop offset="1" stop-color="#28AA49"/>
</linearGradient>
<radialGradient id="paint2_radial" cx="0" cy="0" r="1" gradientUnits="userSpaceOnUse" gradientTransform="translate(21.1793 9.61047) rotate(180) scale(11.5291 17.2113)">
<stop offset="0.353" stop-color="#FFCA28"/>
<stop offset="0.872" stop-color="#FFB300"/>
</radialGradient>
<linearGradient id="paint3_linear" x1="35.6481" y1="26.5533" x2="20.1887" y2="26.5533" gradientUnits="userSpaceOnUse">
<stop stop-color="#009944"/>
<stop offset="1" stop-color="#28AA49"/>
</linearGradient>
</defs>
</svg>
