<?xml version="1.0" encoding="UTF-8" standalone="no"?>
<svg
   xmlns:dc="http://purl.org/dc/elements/1.1/"
   xmlns:cc="http://creativecommons.org/ns#"
   xmlns:rdf="http://www.w3.org/1999/02/22-rdf-syntax-ns#"
   xmlns:svg="http://www.w3.org/2000/svg"
   xmlns="http://www.w3.org/2000/svg"
   xmlns:sodipodi="http://sodipodi.sourceforge.net/DTD/sodipodi-0.dtd"
   xmlns:inkscape="http://www.inkscape.org/namespaces/inkscape"
   viewBox="0 0 916.99896 708"
   version="1.1"
   id="svg124"
   sodipodi:docname="CoffeeDoddle.svg"
   width="916.99896"
   height="708"
   inkscape:version="0.92.4 5da689c313, 2019-01-14">
  <metadata
     id="metadata130">
    <rdf:RDF>
      <cc:Work
         rdf:about="">
        <dc:format>image/svg+xml</dc:format>
        <dc:type
           rdf:resource="http://purl.org/dc/dcmitype/StillImage" />
        <dc:title></dc:title>
      </cc:Work>
    </rdf:RDF>
  </metadata>
  <defs
     id="defs128">
    <inkscape:path-effect
       effect="simplify"
       id="path-effect4761"
       is_visible="true"
       steps="1"
       threshold="0.0219144"
       smooth_angles="360"
       helper_size="0"
       simplify_individual_paths="false"
       simplify_just_coalesce="false"
       simplifyindividualpaths="false"
       simplifyJustCoalesce="false" />
  </defs>
  <sodipodi:namedview
     pagecolor="#ffffff"
     bordercolor="#666666"
     borderopacity="1"
     objecttolerance="10"
     gridtolerance="10"
     guidetolerance="10"
     inkscape:pageopacity="0"
     inkscape:pageshadow="2"
     inkscape:window-width="1280"
     inkscape:window-height="665"
     id="namedview126"
     showgrid="false"
     fit-margin-top="0"
     fit-margin-left="0"
     fit-margin-right="0"
     fit-margin-bottom="0"
     inkscape:zoom="0.10864401"
     inkscape:cx="-816.33015"
     inkscape:cy="566.72138"
     inkscape:window-x="0"
     inkscape:window-y="0"
     inkscape:window-maximized="1"
     inkscape:current-layer="svg124" />
  <g
     id="g4827"
     inkscape:export-xdpi="122.36"
     inkscape:export-ydpi="122.36"
     transform="translate(0,3.9450909e-5)">
    <path
       inkscape:connector-curvature="0"
       id="path4765"
       d="m 492.14632,616.41548 -4.31455,20.13457 -2.30109,28.18839 7.19091,4.88982 18.12111,1.72582 11.50547,-2.30109 46.3095,26.46257 51.48696,3.45164 20.99748,-10.06728 2.58873,-11.21783 -52.63751,-20.13457 -44.00841,-36.24222 -12.36837,3.45164 z"
       style="fill:#ffd633;fill-opacity:1;stroke:#000000;stroke-width:1px;stroke-linecap:butt;stroke-linejoin:miter;stroke-opacity:1" />
    <path
       inkscape:connector-curvature="0"
       id="path4763"
       d="m 856.27119,433.62712 -28.47458,32.54237 -13.01695,40.27119 -0.81356,10.16949 32.1356,13.83051 7.72881,-7.32204 c 0,0 16.67797,-34.16949 16.67797,-35.79661 0,-1.62712 -2.0339,-11.79661 -2.0339,-11.79661 l 17.08474,-27.66101 20.74577,-47.18644 4.88135,-28.47458 -6.91525,-4.88136 -11.79661,7.32204 z"
       style="fill:#ffd633;fill-opacity:1;stroke:none;stroke-width:1px;stroke-linecap:butt;stroke-linejoin:miter;stroke-opacity:1" />
    <path
       style="fill:#009944;fill-opacity:1;fill-rule:evenodd;stroke:none;stroke-width:1"
       inkscape:connector-curvature="0"
       id="path4"
       d="m 231.20391,425.10587 c 4.66866,-3.1818 14.2163,-14.57186 19.21853,-17.20417 11.12284,-5.85297 60.67455,-17.35909 62.28568,-18.03902 2.45405,-1.03516 18.39503,-4.65268 27.68252,-6.93808 21.80967,-5.36731 99.96574,-40.03553 120.56569,-48.9246 2.62984,6.92005 24.33986,37.46843 20.61518,40.5989 -12.26198,10.30721 -34.24052,23.14128 -48.44442,30.52757 -11.48825,5.97369 -23.6561,10.91727 -35.94022,14.95384 -13.94645,4.5833 -23.51907,9.49735 -37.41846,14.18611 -13.67517,4.61244 2.66721,19.03949 9.69026,22.02009 7.87706,3.34416 20.07814,5.04122 28.12683,7.93995 -14.17068,22.02425 -26.0714,48.7553 -28.4521,75.13806 -0.57302,6.34974 -5.41331,12.17079 -13.28622,10.26976 -4.06241,-0.98105 -41.54593,-5.97369 -47.65824,-7.36686 -40.80265,-9.30536 -114.05181,-58.0343 -95.18894,-108.001 4.32124,1.9954 14.18718,-6.42278 18.20391,-9.16055 z" />
    <g
       style="fill:#000000;fill-rule:evenodd;stroke:none;stroke-width:1"
       id="g118">
      <path
         inkscape:connector-curvature="0"
         id="path6"
         d="m 254.0313,159.99996 c 3.04808,-0.25717 10.92933,-6.34619 6.79413,-9.42553 -4.17259,-3.10747 -7.17082,7.30522 -6.79413,9.42553 M 95.245369,183.35262 c 0.796658,-0.14028 0.448863,-4.50092 -0.805575,-5.05808 -3.959507,-1.75749 -4.293925,4.84898 -4.390535,6.61706 -0.12039,2.23128 -0.399815,8.51616 4.414315,6.79308 2.733309,-0.978 1.037439,-6.67926 0.781795,-8.35206 m 233.755101,20.37024 c -0.10773,3.89218 7.75507,11.37642 10.68692,6.8867 2.46547,-3.77158 -10.4851,-14.63407 -10.68692,-6.8867 M 51.000062,115.94444 c 2.278253,5.81112 13.544891,-2.10894 13.963574,-6.37166 0.859771,-8.72987 -14.081197,0.56317 -13.963574,6.37166 m 93.999308,25.05552 c 5.24689,-0.43121 12.15112,-7.10185 17.21067,-9.59405 3.42409,-1.68626 12.7405,-3.69627 13.75378,-7.52479 0.882,-3.32706 -14.92568,3.79408 -16.27535,4.42643 -6.20136,2.90549 -11.79285,6.21739 -14.6891,12.69241 m 393.8973,-46 c 4.18206,-3.233605 9.26585,-5.31967 14.62743,-5.183058 2.6773,0.06831 8.26222,1.743169 8.4716,-2.886611 0.34199,-7.528685 -23.30143,1.653005 -26.99633,3.129781 1.29957,1.64754 2.59913,3.293714 3.8973,4.939888 m -260.8973,293.38687 c -3.06815,-5.09497 -8.58654,-8.0405 -12.73605,-12.38687 1.52048,7.13687 -1.90812,13.48464 -4.26395,20 5.66714,-2.53771 11.33286,-5.07542 17,-7.61313 m 532.80514,108.61313 c 1.6914,-5.65851 3.38425,-11.28592 5.36193,-16.85822 2.21138,-6.23934 3.31123,-6.77919 -1.98352,-11.14178 -4.39354,8.30546 -8.78855,16.61091 -13.18355,24.91778 3.12865,1.32984 6.39313,2.62434 9.80514,3.08222 M 355.99937,87.364735 c -5.81834,-6.558204 -33.08655,-6.969967 -29.71189,7.50444 1.17714,5.054316 7.88109,-0.314958 12.08085,-1.49298 4.16814,-1.169842 15.96984,-1.325276 17.63104,-6.01146 m -1,92.850145 c -0.70542,-1.67374 -2.11349,-7.71458 -4.20347,-8.19067 -2.03604,-0.46396 -10.06952,5.87225 -11.57995,6.83927 -7.53278,4.827 -14.87606,10.0195 -22.21658,15.13648 2.81061,0 5.36257,-1.00074 8.15659,-1.02232 3.31962,-0.0283 5.70145,1.33522 8.93809,0.55702 6.95461,-1.6697 15.02682,-9.37618 20.90532,-13.31978 m 7.53635,-149.644665 c 0.65361,-2.999746 34.74529,6.005115 38.84265,7.653991 2.23211,0.896831 13.74968,6.883672 11.2744,-2.139462 -1.40842,-5.139209 -14.71815,-9.056872 -18.98277,-10.465375 -10.84288,-3.578891 -22.27471,-6.124598 -33.8204,-5.534207 -2.24195,0.113861 -19.22032,1.093628 -12.13042,7.91826 2.44295,2.350317 11.19991,1.609517 14.81654,2.566793 m 7.46365,412.142675 c 6.35157,3.12492 12.83652,5.51554 19.47548,7.95958 2.94958,1.08502 7.54377,3.92773 10.79725,3.21397 2.66493,-0.58635 3.51887,-4.64423 4.91871,-7.3609 5.11811,-9.93783 11.23041,-17.95495 18.80856,-26.1488 -3.51887,-2.56597 -21.38136,8.75417 -25.80092,10.42555 -4.42505,1.67274 -8.59984,3.35782 -12.93002,5.35662 -4.07716,1.88235 -12.12284,3.56468 -15.26906,6.55398 M 482.4632,357.99996 c 9.25649,-4.18869 18.03085,-11.61699 25.6228,-18.26751 8.71739,-7.6369 16.53164,-15.6399 22.91337,-25.52173 -3.84043,0.19617 -12.31884,12.54812 -12.41332,-0.89935 -0.0486,-6.86051 9.35237,-13.6174 12.27021,-19.98057 -7.25847,-4.09751 -13.91115,20.38811 -22.2395,14.4532 -8.02267,-5.71938 4.63659,-25.3822 7.07507,-31.58649 -4.70606,-3.13047 -31.51822,31.91529 -35.39895,36.39962 -2.42736,2.8072 -8.16717,6.54414 -9.53717,9.81829 -0.8156,1.94929 -0.93232,8.13424 -0.53771,9.92742 0.82116,3.74937 4.97978,8.23923 6.83191,11.73027 2.344,4.4194 4.38509,9.01287 5.41329,13.92685 m 382.69178,126.35206 c -8.00505,-11.29932 0.26351,-16.22677 6.77295,-25.60525 5.20587,-7.50195 9.99544,-15.77114 13.29502,-24.14835 8.25314,-20.9534 15.70031,-40.43328 19.77642,-62.59846 -5.60956,2.56066 -9.11658,12.30614 -11.92276,17.44132 -3.77335,6.90368 -7.09255,14.14943 -11.2864,20.83846 -7.84805,12.51664 -15.55313,25.86838 -25.53596,36.71761 -4.52325,4.91637 -8.35266,10.44762 -13.57115,14.87789 -2.38427,2.02333 -6.94536,3.68519 -8.70168,6.21539 -1.65819,2.38894 0.19624,3.91647 -0.43312,6.77073 -0.64618,2.92766 -3.60795,6.04921 -4.87928,8.86884 -1.66941,3.7032 -3.22388,7.41471 -5.08672,11.0362 -2.03245,3.94833 -2.58752,6.0132 -3.13558,9.87289 -0.59852,4.21976 1.23769,4.65739 -2.44735,8.54616 6.67764,2.94428 13.35529,5.88856 20.03293,8.83284 2.25252,0.99435 4.50643,1.98732 6.76035,2.98167 0.47517,-0.89049 0.95034,-1.78097 1.42551,-2.67146 1.83481,-1.78235 3.52245,-6.17799 4.57231,-8.53231 4.38729,-9.82442 9.34226,-19.68761 14.36451,-29.44417 M 220.31986,436.91948 c -18.96053,49.91886 47.66847,91.95003 88.68281,101.24639 5.68148,1.28665 11.2252,2.97261 16.88024,4.35493 6.16572,1.50711 11.64126,1.20763 17.79584,1.83848 4.89668,0.50052 7.23022,4.28422 11.84442,5.32686 7.71028,1.74142 7.23856,-4.05269 7.79098,-10.26135 2.3405,-26.32511 15.77539,-51.72406 29.99509,-73.69007 -6.49551,-2.32375 -12.93117,-4.85962 -19.34319,-7.40381 -5.48667,-2.17816 -13.88852,-8.29948 -19.78707,-8.62391 -4.36234,-0.23848 -11.00951,3.487 -15.24662,5.12166 -7.05628,2.72305 -14.13342,5.04263 -21.48748,6.89913 -12.86021,3.24713 -27.17035,7.67278 -40.47722,8.00831 -3.83636,0.097 -14.36024,1.88423 -17.12097,-0.48665 -5.26403,-4.52132 2.04272,-8.28977 6.44958,-9.90364 26.26449,-9.61802 54.15146,-13.70675 80.49108,-23.5674 13.55318,-5.07591 26.9672,-10.74246 40.60664,-15.74211 11.75675,-4.30918 24.07149,-8.12477 35.43305,-13.42529 15.0045,-6.99757 30.0744,-15.71576 43.0668,-25.98681 2.60071,-2.05477 8.0498,-5.1078 9.83231,-8.08596 1.56961,-2.62184 1.37341,-0.007 1.0478,-3.18613 -0.23378,-2.28354 -3.0279,-5.37816 -4.17728,-7.53553 -4.28163,-8.04297 -8.15138,-16.30501 -11.40469,-24.81662 -20.72634,8.89012 -40.44383,20.98993 -60.86543,30.4901 -20.55378,9.56256 -43.73889,16.30918 -65.72731,21.68872 -9.3592,2.29047 -20.11825,3.01421 -28.70099,7.53969 -3.64711,1.92166 -7.25248,4.14558 -11.15841,5.25753 -1.15355,2.21283 -2.28901,2.6468 -3.40777,1.30052 -0.70132,-0.78613 -1.60718,-1.11889 -2.71899,-0.99688 -2.38919,0.40486 -4.8257,1.53345 -7.06045,2.4 -11.30868,4.38405 -22.1373,9.87452 -32.87409,15.4759 -5.0887,2.65373 -10.3082,5.26724 -15.17843,8.29809 -2.61045,1.62496 -4.94955,3.26378 -7.0855,5.49462 -2.56035,2.67453 -1.95088,4.87348 -6.09475,2.97123 M 646.9794,140.53002 c 4.79147,0.0776 9.15856,-2.51752 14.15528,-2.37343 7.85772,0.22723 14.07761,6.31945 18.63747,12.19413 9.02404,11.62468 6.72331,25.64772 2.18979,38.65654 -2.16898,6.21692 -5.14649,12.18444 -8.86732,17.62683 -3.2937,4.81752 -9.18214,9.37456 -11.48149,14.73937 -3.79157,8.84667 3.85814,5.08493 8.54143,3.19505 5.88844,-2.37758 11.40937,-5.33294 16.40747,-9.31359 22.27649,-17.74183 39.22343,-42.40304 44.89969,-70.72485 2.76948,-13.81798 2.55591,-29.97198 -7.07001,-41.25027 -8.79937,-10.312565 -23.9906,-13.682196 -36.97679,-11.770152 -14.03739,2.06861 -26.7587,8.013958 -38.18887,15.667672 -3.32004,2.22379 -6.35996,4.65126 -9.47753,7.1383 -4.08973,3.26295 -6.54024,3.34885 -5.51677,8.46288 0.75998,3.80191 2.8305,7.741 4.16462,11.38913 2.49767,6.83347 1.58652,8.60142 8.58303,6.36239 m 15.27636,117.80128 -0.96944,1.65624 c 6.6836,0.31877 12.9088,-5.57715 18.60358,-8.45581 7.39822,-3.74073 13.96688,-8.84387 20.44968,-13.99691 11.43248,-9.08919 23.01454,-19.33151 31.52347,-31.26333 19.07722,-26.74784 36.4053,-60.65837 31.1994,-94.57028 -5.6103,-36.549423 -37.57833,-50.618406 -71.64174,-45.779984 -15.35041,2.180131 -29.05554,9.033753 -42.79391,15.991323 -6.92459,3.507891 -12.76894,8.058031 -19.11324,12.462644 -3.29194,2.28685 -6.29583,2.583448 -6.51049,6.581977 -0.16204,3.01309 5.04664,9.82652 6.45509,12.55688 17.24914,-17.596273 35.83749,-32.153117 61.88638,-33.052612 30.99028,-1.069968 49.3155,28.313982 49.17977,56.451952 -0.13295,27.59466 -12.03492,54.13876 -31.00828,73.97061 -8.62249,9.01296 -16.84335,16.24496 -27.43104,22.82277 -5.27791,3.27921 -9.17091,6.22301 -15.07204,8.40037 -4.17414,1.54119 -3.73928,0.72902 -4.80428,4.5931 -0.90435,3.27921 0.0194,8.22573 0.0471,11.63106 m -168.3911,374.90994 c -0.40317,4.97282 -1.41386,9.86832 -2.53856,14.71883 -0.40456,1.74197 -2.67898,7.24062 -2.27998,9.1991 0.65897,3.23648 -0.21827,1.15568 2.6178,2.84422 2.95842,1.76306 6.40202,1.65621 9.64127,2.19187 1.99915,0.3304 9.32428,3.77778 10.55603,3.23368 2.15347,-0.95183 2.08535,-4.30782 4.44874,-5.63784 3.21978,-1.81367 7.96465,-0.2601 11.0023,1.1585 8.12035,3.78761 13.69935,11.62857 21.55695,15.92091 13.95376,7.62023 30.51143,11.83947 46.07925,13.58003 8.43315,0.94338 17.06371,2.59818 25.39259,0.62283 6.5619,-1.55779 15.09098,-1.41438 18.65831,-8.45535 -31.70147,-8.71827 -80.08712,-19.38658 -92.62145,-55.7668 -6.81353,6.17772 -18.20092,2.85125 -26.43527,1.99784 -9.05875,-0.93776 -17.15408,-0.71984 -25.43847,-4.8491 -0.60614,3.24633 -0.79104,5.94012 -0.63951,9.24128 M 213.18437,407.92283 c 14.92299,0.90163 29.07053,-6.16051 38.25402,-18.07571 2.26046,-2.93482 4.57842,-5.93059 5.93582,-9.40695 0.29448,-0.88087 0.58755,-1.76311 0.88203,-2.64398 1.42471,-2.43345 0.8007,-3.58162 -1.87063,-3.44451 -1.50464,-2.06365 -5.32023,-2.75754 -4.23487,-6.49844 0.81753,-2.82264 3.83382,-2.86835 6.45607,-3.75613 -1.30552,-2.19385 -2.08659,-3.29493 -3.95582,-5.2464 -4.85747,4.36969 -13.67216,12.94564 -17.0853,2.90712 -1.63925,-4.81843 1.24663,-9.42496 0.53147,-14.07304 -0.29448,-1.92238 -2.73163,-6.83361 -4.14372,-7.98317 -7.5232,-6.12449 -18.35857,-3.58993 -26.34031,0.0152 -5.50111,2.4847 -6.68463,3.65087 -7.58209,9.3474 -0.91148,5.79209 -1.75705,11.58141 -2.76809,17.35689 3.30096,-1.72018 3.90253,-5.43615 6.05502,-8.11198 0.80631,1.4681 1.61261,2.9376 2.42173,4.4057 1.13584,-0.6371 2.19736,-0.60386 3.18176,0.10249 1.59298,2.44869 0.59035,6.08017 0.10096,8.64797 5.31181,-0.49583 7.55685,5.43061 2.20157,7.83082 -5.5474,2.48609 -8.04905,-4.29213 -8.23696,-8.68259 -2.06975,2.47223 -4.1956,1.14955 -5.63854,2.4196 -1.44153,1.27005 -2.00946,3.91679 -2.52269,6.81561 -0.84276,4.76303 -2.99946,11.63543 -1.00403,16.4137 2.96301,7.09676 12.41012,10.78919 19.3626,11.66036 M 645.61045,179.97515 c -4.93769,6.86682 -13.35686,15.85588 -15.11713,24.1523 5.43843,-3.19167 16.93738,-18.54886 19.89999,-6.31547 1.70029,7.02197 -7.02156,15.38904 -9.16401,22.18798 8.57679,-2.82181 14.68612,-11.65988 20.03807,-18.48098 6.82349,-8.69677 13.79065,-20.16133 15.53279,-31.21999 1.40877,-8.9489 -4.7996,-17.28965 -14.02359,-18.16653 -4.71172,-0.44883 -9.63127,0.29922 -14.18398,1.3922 -2.07551,0.49732 -5.17202,1.11515 -7.02435,2.22753 -2.32657,1.39636 -2.64459,4.667 -4.83586,1.94631 -2.911,5.48709 -5.82201,10.97417 -8.73301,16.45987 2.89706,-1.05143 8.80833,-5.5134 11.97459,-5.05211 4.62384,0.67463 5.57372,7.39046 5.63649,10.86889 M 183.28047,45.644371 c -12.94547,0.38158 -26.47631,3.138219 -38.73113,7.236002 -3.04335,1.018484 -15.88214,4.640694 -13.17849,9.891635 1.78698,3.4707 11.42239,-1.433733 14.33519,-2.251606 12.48363,-3.505771 25.33786,-5.817701 38.12471,-7.927617 3.09669,-0.510645 13.59962,-0.460141 14.14147,-4.518644 0.66398,-4.95213 -11.03636,-2.435382 -14.69175,-2.42977 M 535.59281,610.46624 c -7.01636,0.85697 -13.75382,0.53644 -20.77723,-0.32318 -5.9106,-0.72319 -11.92966,-3.1431 -17.81067,-3.1431 0,6.29547 -0.42682,6.33521 6.21486,7.68225 4.63578,0.94041 9.33778,1.4689 14.02287,2.12454 8.24892,1.15366 17.4064,4.3908 25.75673,2.7272 -0.20284,-1.09273 -0.84236,-8.47034 -1.70725,-9.20016 -0.48739,-0.40928 -4.99077,0.13908 -5.69931,0.13245 M 422.1902,144.67726 c 1.96184,1.25009 6.47163,6.23472 8.80917,6.3227 -0.83474,-5.77119 -7.27358,-15.81923 -14.66738,-12.25278 -1.81157,0.87454 -5.61776,5.22887 -3.89637,7.14997 0.91945,1.02687 7.35009,-1.21333 9.75458,-1.21989 m -68.40917,51.33929 c 0.0713,-1.00553 0.1441,-2.01106 0.21834,-3.01659 -2.71324,1.59544 -6.07278,2.35026 -8,4.9204 2.31441,1.02564 4.62737,2.05262 6.94323,3.0796 0.27948,-1.66114 0.55895,-3.32227 0.83843,-4.98341 m 213.6761,153.21891 c 12.81889,4.48896 24.57104,10.48443 34.00637,20.66201 8.15608,8.80021 11.98967,24.30679 13.98007,35.8423 4.92671,28.54583 -4.57946,55.00476 -10.84792,82.31344 -3.17937,13.8529 -7.92691,27.18372 -12.37164,40.67839 -3.8808,11.78406 -7.2088,24.12489 -12.56609,35.32995 -4.54196,9.50139 -10.34511,18.8681 -14.3412,28.72494 -2.15014,5.304 -5.63509,23.50562 -13.79673,17.78924 -2.22653,5.8233 -2.76823,5.32761 -0.38752,9.37226 1.72372,2.92831 7.56854,6.99379 10.32705,9.37781 7.35048,6.35648 16.6608,11.59384 25.28358,16.04393 15.79408,8.15178 32.72434,14.25 48.98928,21.68116 7.19075,3.28793 14.98847,7.17151 13.37448,16.57849 -1.35148,7.88519 -5.91427,13.86539 -13.0314,17.37408 -6.68099,3.29487 -16.23855,5.83857 -23.58902,6.87161 -4.3614,0.61371 -5.36146,-1.20104 -8.91725,-1.82864 -3.9572,-0.69701 -8.57555,0.6512 -12.65776,0.61649 -18.32619,-0.15968 -34.37167,-4.77083 -49.18096,-15.39828 -5.29201,-3.7975 -13.08279,-14.10004 -20.00824,-14.09865 -3.54051,0 -2.79324,2.15076 -5.90733,3.41289 -3.8433,1.55649 -10.46456,-1.38154 -14.24259,-2.07162 -8.04913,-1.46901 -16.23438,-2.96163 -21.59445,-9.89433 -5.79482,-7.49225 -3.73496,-16.77287 -1.24452,-25.09266 2.80712,-9.37921 7.52965,-18.89448 9.53673,-28.41531 0.48892,-2.31599 0.93895,-6.63278 0.44308,-8.98904 -0.77227,-3.65587 -4.46279,-5.83718 -4.57391,-9.79575 -0.0347,-1.20381 1.689,-2.79223 1.99041,-4.03493 0.66532,-2.72975 0.56254,-5.56226 0.83617,-8.34061 0.48892,-4.9555 1.61954,-9.70411 2.39876,-14.60129 1.77234,-11.14535 5.26701,-21.08689 8.65056,-31.82542 3.28216,-10.42195 6.40597,-18.17802 12.75221,-27.20177 3.28494,-4.67364 14.27454,-21.32432 8.90753,-26.11598 -7.34492,14.42773 -15.93437,25.67999 -27.17537,37.16553 -8.59778,8.78632 -17.00388,20.59675 -27.7643,26.85326 -11.83132,6.87993 -26.2892,10.92736 -39.35393,14.56518 -6.2143,1.72867 -11.37019,5.56505 -18.06923,6.27456 -7.26019,0.76783 -14.64956,-0.13746 -21.75974,-1.75643 -2.00152,-0.45542 -7.77412,-3.53091 -9.58534,-3.33514 -2.66823,0.2902 -6.50598,5.04575 -9.43395,5.91911 -7.12685,2.12576 -11.99383,-1.93555 -17.39973,-5.68862 -5.86705,-4.07381 -7.64217,-5.08601 -14.41205,-5.57615 -8.2922,-0.59982 -16.35661,-3.52258 -24.51269,-5.31233 -14.33982,-3.14631 -26.52811,-9.52222 -39.56229,-16.19666 -14.94124,-7.64915 -27.72123,-18.19884 -38.98307,-30.66048 -16.55524,-18.32103 -39.6109,-69.08814 -12.56748,-86.8635 -15.92048,-2.16187 -30.50198,-9.114 -32.44238,-27.13373 -1.01396,-9.42919 0.8945,-19.87336 3.26549,-28.96237 1.08201,-4.15018 2.37237,-8.27397 3.60857,-12.3811 0.93061,-1.3871 1.4237,-2.90471 1.47509,-4.55423 0.57087,-2.13687 -0.25279,-3.20184 -2.47099,-3.19212 -4.19333,-4.90273 -7.34631,-9.23063 -8.19359,-16.19249 -0.26668,-2.2063 -0.50559,-5.58864 1.06396,-7.46448 0.72644,-0.75395 1.60288,-1.25797 2.62656,-1.51067 2.4571,0.14023 3.15159,-1.07052 2.08347,-3.63089 1.19313,-3.6281 -0.57643,-6.45505 3.91969,-7.96989 1.44176,0.30686 2.87658,0.64287 4.30584,1.00526 1.82373,0.83171 3.00992,0.2291 3.56134,-1.80225 4.23639,-1.65784 2.28209,-4.10852 8.03802,-1.97581 3.48356,1.29129 6.79766,3.51425 9.33394,6.22179 3.18215,-2.04245 -4.05443,-14.66793 -4.29611,-18.69592 -0.57226,-9.49445 3.35299,-17.34493 8.46027,-25.14404 9.92703,-15.15529 23.78348,-28.18759 37.44686,-39.91333 26.17253,-22.45594 53.66736,-43.83441 83.21928,-61.72501 -12.19107,-8.46697 -26.43366,-10.76214 -40.94015,-6.82717 -13.37309,3.6281 -24.21268,10.21645 -36.5232,15.98005 -11.40351,5.33732 -23.50846,7.52974 -27.14481,-7.03545 -4.07388,-16.31467 8.92419,-22.37124 20.58328,-29.68715 -2.9113,-2.17159 -12.49526,-0.61927 -16.12049,-0.3624 -8.07414,0.57067 -15.79547,2.39375 -23.64181,4.00578 -3.76274,0.77199 -7.21991,0.59843 -10.94793,1.35516 -5.54203,1.12467 -11.32851,2.38541 -16.93582,3.98772 -13.33975,3.81555 -26.58088,9.60552 -38.10802,17.40741 -9.96314,6.7397 -16.8747,16.25636 -24.90161,25.02185 -9.15476,9.9943 -17.92616,19.82754 -31.497871,23.48619 -6.354578,1.71339 -13.809226,3.26849 -18.315073,-2.40763 -4.191938,-5.27762 -4.425287,-11.63826 -4.287778,-18.09193 0.302797,-14.25417 7.189354,-29.658 15.199595,-41.30598 8.695007,-12.64353 20.340207,-19.88447 31.343697,-30.06205 -15.90381,1.13717 -31.274249,9.52083 -45.900195,15.31497 -3.077977,1.22048 -6.185122,2.59091 -9.279767,3.71975 -3.300213,1.20381 -5.486466,0.46653 -8.647782,1.01776 -7.215744,1.25935 -13.413367,4.30013 -20.431877,-0.54846 -13.278637,-9.17093 0.025,-27.82797 9.16726,-33.55269 C 59.504826,98.010283 72.459831,91.296968 86.488516,85.609741 78.89358,77.371872 85.380111,65.615586 92.380564,59.771461 101.23808,52.376401 112.51659,48.13875 123.1895,44.180185 c 8.44083,-3.131029 16.73025,-6.137095 25.49887,-8.021266 9.21727,-1.979977 19.99574,-5.005481 29.34912,-4.715288 8.77141,0.272142 16.54969,-1.273239 25.43359,-1.520389 7.39215,-0.205496 14.80096,-0.02777 22.19172,-0.219381 19.88601,-0.513738 39.84563,0.827536 59.28022,2.257674 C 269.5448,-13.066969 370.9722,0.83868803 392.6111,6.7203021 c 19.66516,5.3456599 42.19717,11.5466249 58.71491,24.2304169 6.99767,5.372041 13.64394,11.479978 19.85267,17.74759 9.16032,9.247297 14.23148,21.357646 19.07624,33.311096 12.28968,-6.020462 24.04044,-12.581045 37.48714,-15.566283 12.79528,-2.839448 25.90168,-6.688323 38.77196,-8.833529 9.78535,-1.631468 23.98766,-2.738089 32.22292,4.171003 8.94363,7.504751 13.60365,19.183281 18.94289,29.184524 25.64055,-24.328999 54.23962,-42.077977 90.79615,-40.897767 35.77176,1.155218 59.2955,32.046188 63.63189,65.521127 4.7767,36.88505 -11.65353,75.42795 -33.9258,103.99182 -9.98676,12.81015 -20.32076,25.18153 -33.7633,34.73846 -6.66571,4.7375 -13.69811,9.92765 -21.00691,13.62657 -3.64468,1.84391 -7.62966,3.51009 -11.4563,4.92912 -1.7265,0.64009 -3.50439,1.28295 -5.30034,1.71755 -5.12811,1.24408 -4.13221,-0.41655 -6.03928,4.07242 -1.54732,3.64477 -1.35703,9.91516 -2.01958,13.91538 -0.75699,4.57227 -1.20702,9.20703 -2.31265,13.71682 -1.9154,7.81716 -3.90997,15.44271 -6.30874,23.07659 -4.54196,14.44716 -10.65347,29.00818 -18.14006,42.18628 6.34902,2.75753 15.23987,3.03522 22.02504,3.87109 7.34353,0.9039 14.69678,2.80334 22.32505,4.93605 15.28432,4.27376 28.94215,7.88103 43.47642,14.27916 15.08848,6.64251 28.53657,16.56044 43.06529,24.45397 13.36059,7.25899 26.86563,16.35077 39.27338,25.06489 2.95158,2.07301 4.77947,3.87526 7.12962,6.50088 2.40433,2.68255 3.16965,3.2074 6.04206,5.53172 1.29592,1.04691 5.06283,6.33148 6.54209,6.52587 2.64878,0.35128 2.24181,-1.62592 4.32111,-4.38622 4.34195,-5.76221 10.3979,-10.22618 14.70929,-16.13417 3.59606,-4.92634 7.34631,-9.91516 11.18961,-14.15142 9.30199,-10.25256 17.00943,-21.61591 23.62236,-33.90676 3.44189,-6.39813 7.06574,-12.48801 10.80348,-18.52653 3.72107,-6.01213 10.33678,-13.94731 17.74698,-13.59186 -0.59587,-3.0616 -2.48905,-3.57117 0.77783,-5.44285 2.1043,-1.20659 6.2004,0.73728 7.82273,1.96193 4.29212,3.24349 4.48223,9.5361 4.21138,14.26249 -0.69727,12.18117 -3.24604,24.20543 -6.79905,35.72289 -4.26972,13.84596 -9.62146,26.06183 -15.46211,39.27602 -4.6503,10.52748 -10.42429,24.44841 -21.99587,29.25256 7.77134,11.09537 4.03915,20.13717 -1.15424,31.91706 -3.79608,8.61137 -8.81029,17.51016 -16.4469,23.2085 -8.60889,6.42451 -17.9456,0.97471 -26.94896,-3.27127 -5.43786,-2.56592 -22.06671,-8.61831 -18.68454,-16.51184 -4.15444,-0.554 -6.76711,-3.57118 -10.54791,-4.50007 -4.00304,-0.98305 -3.31549,0.64286 -7.55049,1.25241 -3.24743,0.46653 -8.10469,-2.44095 -11.16183,-3.48232 -5.10728,-1.73699 -10.19927,-3.51841 -15.2996,-5.27484 -14.3551,-4.94439 -28.46851,-9.81241 -42.96528,-13.77376 -26.97258,-7.37006 -54.27851,-11.55078 -81.15664,-18.13219 -5.38785,-1.31906 -10.74514,-2.5923 -16.35523,-3.64894 -1.1584,-0.21799 -7.16852,-0.55261 -7.89912,-1.79253 -1.27925,-2.17298 2.65295,-14.33331 2.99047,-16.81175 2.21542,-16.26747 1.49177,-34.07615 -1.62927,-50.15895 -1.29592,-6.68555 -7.08518,-15.34274 -7.03518,-21.86861 0.0347,-4.37788 3.91415,-9.15843 6.19207,-13.12394 5.6337,-9.80547 11.53686,-20.39959 15.71074,-30.60355 6.3893,-15.60933 10.30344,-33.22918 13.12585,-49.9479 1.46954,-8.71551 3.18076,-18.16414 3.58079,-26.98101 0.30557,-6.72025 -0.24585,-13.76958 0.72921,-20.65229 -3.71969,0.35267 -8.98253,2.27989 -12.33274,0.2166 -4.23083,-2.6034 -5.36702,-10.03595 -4.8267,-14.47493 -14.48566,2.52842 -14.00508,-11.20923 -13.1078,-21.95192 -26.18086,0 7.3477,-38.90391 11.53686,-47.25841 1.92512,-3.84054 1.86818,0.47347 1.01812,-5.46646 -0.37363,-2.61173 -2.15847,-5.50533 -3.16826,-7.90602 -2.20014,-5.24152 -4.57946,-10.40251 -7.1199,-15.48714 -5.36841,-10.73991 -11.44935,-21.117436 -18.0859,-31.122844 -5.97399,4.162672 -11.35906,9.090398 -16.34828,14.377744 3.20021,-8.369778 12.97862,-18.73897 8.79641,-28.243136 -3.87664,-8.809925 -16.82331,-8.198992 -24.46964,-6.588352 -20.77635,4.380664 -40.70264,10.760744 -60.49558,18.147473 6.13095,3.515639 15.51767,0.799766 21.60973,-1.888337 7.54354,-3.329582 15.65518,-6.823005 23.78487,-8.586379 7.09074,-1.538439 16.40245,-1.013592 14.35371,8.536394 -1.66122,7.738016 -9.22977,15.190007 -14.22314,20.975817 -11.0035,12.74766 -24.80022,22.61561 -38.35249,32.47522 -14.56761,10.59968 -28.60463,22.11576 -43.35697,32.4072 -26.667,18.60567 -55.33969,34.77594 -82.89147,52.14309 -14.3176,9.02375 -30.54087,16.28552 -46.06687,22.97384 -17.08027,7.35757 -33.45633,15.23444 -51.17692,21.04524 -9.84092,3.22822 -19.59433,5.88439 -29.2644,9.55692 -6.0615,2.30072 -16.61635,6.91187 -20.62078,0.0791 -8.13386,-13.87789 21.29999,-32.1295 29.36579,-40.61452 5.56425,5.40398 -21.87502,25.54115 -19.72766,33.40968 1.68761,6.18291 8.21442,-1.80086 11.36601,-3.48648 5.09339,-2.7242 11.12572,-4.09325 16.24411,-7.20067 10.49929,-6.37453 22.94732,-13.72516 25.34469,-26.90186 -1.66816,-1.7606 -1.64732,-3.38512 0.0625,-4.87497 0.76116,-0.90529 1.36536,-1.89944 1.80984,-2.98385 0.74727,-2.07022 1.04729,-4.66391 1.44731,-6.8591 1.18202,-6.48977 -1.78484,-12.56577 0.98757,-18.91669 -16.18022,12.2603 -31.734,26.10903 -47.09333,39.38154 -13.77728,11.90485 -28.15321,27.49335 -33.21604,45.2576 -0.64865,2.27573 -1.7265,4.8583 -1.60843,7.26038 0.23057,4.71529 0.70143,3.69892 4.50029,5.21514 3.80024,1.51623 9.33255,1.38571 13.41892,1.54677 2.32932,0.0903 12.73138,-2.37569 10.66319,2.73531 -1.19174,2.94637 -8.40332,2.83529 -10.98543,3.10743 -6.47959,0.68452 -9.9937,-0.0181 -6.92406,7.00628 1.37648,3.1477 4.16416,5.28041 6.3518,7.71719 6.0865,6.77858 9.39227,17.17554 14.18008,25.13988 5.45591,9.07235 11.45213,17.70038 17.82338,26.15069 2.62933,3.48648 6.14345,10.03873 9.78813,12.52689 3.403,2.32293 -0.60143,2.13132 5.05172,1.18715 2.46405,-0.4096 4.69752,-2.0133 7.05462,-2.58674 14.09258,-3.43372 28.57824,-7.30342 43.15279,-11.54107 18.64149,-5.42064 38.20525,-10.0429 55.99112,-17.84895 15.93298,-6.99518 31.74789,-15.32191 47.84755,-22.40595 4.70169,-2.06745 9.39783,-3.43788 13.05223,-7.24372 4.41139,-4.59171 8.06302,-10.60384 12.13134,-15.5399 6.9185,-8.39616 13.2953,-16.93672 20.74301,-24.89411 5.54341,-5.92049 15.36766,-16.927 23.189,-19.2902 14.86068,-4.48896 6.906,18.14609 4.98504,23.86664 3.49328,0.79282 5.32951,-3.68781 9.42978,-2.3993 4.90865,1.54399 5.41702,8.07264 6.03094,12.16311 0.16251,1.08996 -1.31258,3.12686 -0.86394,4.0988 0.15279,0.33185 3.35577,2.22574 3.97387,3.10326 2.2432,3.18935 1.8015,7.06738 0.95145,10.50665 -4.39751,17.81424 -20.02907,30.82294 -31.52565,43.96354 5.14339,-0.97332 8.95613,-3.90441 13.81061,-5.35677 4.55724,-1.36349 9.13809,-1.29267 13.73145,-1.68284 4.80864,-0.4096 9.42838,-2.20907 14.34815,-2.30071 5.16283,-0.0958 10.10621,1.37459 15.22598,1.95776" />
      <path
         inkscape:connector-curvature="0"
         id="path8"
         d="m 23.73656,188.99996 c -2.834966,1.85314 -3.6341,3.67119 -3.731976,7.94605 -0.03915,1.75347 0.08175,8.29422 2.532124,8.04713 2.299525,-0.23164 1.199852,-13.74414 1.199852,-15.99318 M 9.0918036,199.65339 c 1.3209954,-13.70152 6.3336384,-27.63224 18.1254874,-36.1693 2.916187,-2.11134 6.215106,-2.03634 9.411201,-3.36843 1.920799,-0.80009 4.955519,-4.51994 7.136233,-4.07962 8.027368,1.62379 -1.246735,12.29026 -2.604861,15.09612 -4.208621,8.69264 -3.924428,16.33098 -3.798755,25.70842 0.09568,7.12718 1.576626,19.1424 -2.016482,25.59312 -3.830173,6.86882 -12.13745,2.4086 -16.774502,-1.65713 -5.852367,-5.13252 -10.2723469,-13.30565 -9.4783214,-21.12318" />
      <path
         inkscape:connector-curvature="0"
         id="path10"
         d="m 150.00958,240.14167 c 0,7.64558 6.20567,2.46942 5.98399,-2.96849 -0.32445,-8.00657 -6.27321,-3.07635 -5.98399,2.96849 m 32.98979,-42.26586 c -6.79187,6.10826 -12.03055,9.53529 -13.33952,18.92727 -0.9908,7.11424 -0.006,14.16031 0.0363,21.32604 0.0712,12.012 -9.6289,24.64038 -20.06719,10.87104 -7.61381,-10.04315 -4.88283,-25.83558 1.32572,-35.92883 3.25848,-5.29568 7.90965,-10.53432 13.2823,-13.83473 4.04135,-2.48365 15.40904,-7.37027 18.76241,-1.36079" />
      <path
         inkscape:connector-curvature="0"
         id="path12"
         d="m 88.151405,382.99996 c -0.787683,1.86313 -2.635906,9.46899 1.13519,7.7486 3.329632,-1.51996 1.172514,-6.56118 -1.13519,-7.7486 m -19.927583,-23.4825 c -0.582222,-2.86026 -0.34497,-20.79009 4.593689,-19.44563 3.879206,1.05429 4.520059,10.23199 6.100375,13.42664 5.88494,11.89427 19.39194,19.30193 24.049714,31.57895 5.19909,13.70991 -10.519534,14.13549 -18.860168,8.58354 -9.875954,-6.57445 -15.590454,-22.67068 -15.88361,-34.1435" />
      <path
         inkscape:connector-curvature="0"
         id="path14"
         d="m 56.11658,285.99996 c 2.143422,-2.89384 2.36015,-4.43995 1.13832,-7 -1.561834,1.69883 -1.284462,4.12663 -1.13832,7 m 1.550937,12.9454 c -11.173462,1.251 -11.732812,-19.34085 -9.819103,-26.41066 1.523654,-5.63022 4.799849,-11.68081 8.172202,-16.26877 0.681243,-0.92566 7.141535,-9.24503 8.407861,-9.26518 4.85944,-0.0763 3.524042,5.41428 2.999905,7.4585 -1.650964,6.43927 -2.305119,11.82189 -1.860889,18.96224 0.476734,7.63988 4.094227,25.77724 -7.899976,25.52387" />
      <path
         inkscape:connector-curvature="0"
         id="path16"
         d="m 565,120.61802 c -15.97704,13.39884 -31.14531,27.90484 -48.51778,39.62503 -8.50116,5.73548 -17.38785,10.80996 -25.87085,16.63908 -4.32042,2.96895 -8.72884,5.62668 -13.52139,7.80933 -4.23382,1.92789 -7.00235,2.17852 -3.4893,-2.39747 2.34808,-3.05708 7.61137,-5.1874 10.81013,-7.36041 4.92246,-3.34627 9.57113,-7.05883 14.74921,-10.02778 9.12834,-5.23698 18.20081,-9.46457 26.61536,-15.8872 7.4689,-5.69829 15.17386,-11.26301 22.30192,-17.31934 3.05629,-2.59714 13.19174,-14.52115 16.9227,-11.08124" />
      <path
         inkscape:connector-curvature="0"
         id="path18"
         d="m 565.32311,169 c 7.18483,6.14644 -10.79217,22.98413 -14.89236,26.80029 -4.32284,4.02454 -9.08421,7.61462 -13.78585,11.18018 -1.65501,1.25571 -10.68492,9.65889 -12.97668,8.98065 -4.52242,-1.33879 1.4147,-6.79064 2.95838,-8.21251 4.99354,-4.60337 10.09297,-9.0719 14.97518,-13.7992 4.40295,-4.26015 9.17111,-8.2057 13.42878,-12.60341 3.44986,-3.56284 6.34714,-9.60033 10.29255,-12.346" />
      <path
         inkscape:connector-curvature="0"
         id="path20"
         d="m 32.999371,416.75642 c -1.876007,-4.34774 -5.235787,0.47877 -3.532507,2.64929 1.610919,2.05551 3.292608,-1.81479 3.532507,-2.64929 m -11,-8.58451 c 1.005693,-6.39182 3.329962,-9.94431 9.326408,-4.48827 4.120548,3.74978 12.407739,14.40992 11.621343,20.22188 -1.032232,7.62353 -9.428374,5.46004 -13.78079,1.47432 -4.461367,-4.0857 -6.430849,-11.53994 -7.166961,-17.20793" />
      <path
         inkscape:connector-curvature="0"
         id="path22"
         d="m 35.139875,533.97492 c -7.345761,-0.55923 -13.612736,-6.19862 -16.732321,-12.80811 -2.624678,-5.55808 -5.108946,-14.5172 4.112181,-11.5955 6.009789,1.90452 29.177297,25.29952 12.62014,24.40361" />
      <path
         inkscape:connector-curvature="0"
         id="path24"
         d="m 124.16366,497.74045 c -5.67639,1.29227 -11.29207,-2.44658 -14.7829,-6.66264 -2.17176,-2.62536 -7.22725,-11.83031 -4.68019,-15.61984 3.55016,-5.28451 8.91058,5.338 10.75948,7.4411 2.90028,3.29261 12.38346,9.59066 8.70361,14.84138" />
      <path
         inkscape:connector-curvature="0"
         id="path26"
         d="m 129.27661,354 c -4.44955,-2.06479 -8.58099,-4.55071 -10.37021,-9.48302 -1.13822,-3.14148 -2.0939,-12.56044 2.95966,-12.51698 5.84549,0.0519 19.23173,21.05688 7.41055,22" />
      <path
         inkscape:connector-curvature="0"
         id="path28"
         d="m 98.079006,256.00257 c 5.958204,-0.10766 7.368804,3.17824 8.197424,7.89968 0.56243,3.20408 3.2919,14.08103 0.45716,16.30896 -4.04983,3.18399 -10.492274,-4.11133 -11.794598,-6.9752 -2.684351,-5.89569 1.027122,-11.6952 3.140014,-17.23344" />
      <path
         inkscape:connector-curvature="0"
         id="path30"
         d="m 200.45795,582.13801 c 2.90111,1.32002 9.50117,4.24731 6.97897,8.78907 -2.6366,4.75004 -10.20751,0.13359 -13.0357,-1.94195 -1.1839,-0.869 -8.70619,-6.55697 -8.39163,-8.46446 0.66343,-4.0534 11.03251,1.23671 14.44836,1.61734" />
      <path
         inkscape:connector-curvature="0"
         id="path32"
         d="m 9.3264265,285.50757 c 1.9824215,4.96475 4.2139125,22.01855 -6.2252957,12.80936 -3.18577582,-2.81073 -3.66653835,-6.32103 -2.56889377,-10.17974 1.58709557,-5.59243 3.89678307,-4.48363 8.79418947,-2.62962" />
      <path
         inkscape:connector-curvature="0"
         id="path34"
         d="m 562.53757,222 c -2.31187,-4.72278 3.39582,-7.76908 6.44526,-10.81271 1.9913,-1.98847 10.36402,-12.77171 13.1092,-12.16245 5.64656,1.25333 -16.77804,20.86886 -19.55446,22.97516" />
      <path
         inkscape:connector-curvature="0"
         id="path36"
         d="m 98.003937,564.08553 c 5.447013,-0.87398 6.717713,5.17664 10.227193,7.8138 1.50484,1.13148 6.67115,2.12596 5.63186,4.52718 -2.73035,6.30686 -16.126064,-8.10047 -15.859053,-12.34098" />
      <path
         inkscape:connector-curvature="0"
         id="path38"
         d="m 144,421.19242 c 3.74379,-1.56768 14.55001,6.85106 11.44739,10.48806 -4.63812,5.44083 -11.18322,-7.51149 -11.44739,-10.48806" />
      <path
         inkscape:connector-curvature="0"
         id="path40"
         d="m 222.91711,542.98573 c -2.72908,0.27102 -14.24594,-3.34918 -9.97903,-8.19618 2.99567,-3.40417 10.95841,5.1141 9.97903,8.19618" />
      <path
         inkscape:connector-curvature="0"
         id="path42"
         d="m 85,519.72838 c -2.709454,1.08303 -12.481294,-1.14536 -9.408872,-5.38945 2.926694,-4.03996 9.412918,2.03525 9.408872,5.38945" />
      <path
         inkscape:connector-curvature="0"
         id="path44"
         d="m 165,538.03655 c 3.1676,-0.32861 5.45595,1.58149 6,4.81579 -3.96175,0.56492 -5.18393,-0.37755 -6,-4.81579" />
      <path
         inkscape:connector-curvature="0"
         id="path46"
         d="m 577,68.4905 c 1.33841,0.006 2.67429,0.013 4,0.019 -1.33968,-0.007 -2.66921,-0.013 -4,-0.019" />
      <path
         inkscape:connector-curvature="0"
         id="path48"
         d="m 556,346.996 c -2.00054,0.002 -4.00108,0.006 -6,0.008 2.00054,-0.004 4.00108,-0.006 6,-0.008" />
      <path
         inkscape:connector-curvature="0"
         id="path50"
         d="m 283.139,21 c -0.092,2.002303 -0.184,4.004607 -0.278,6 0.09,-2.004031 0.184,-4.002879 0.278,-6" />
      <path
         inkscape:connector-curvature="0"
         id="path52"
         d="m 902.80559,361 c 0.63856,2.22499 -0.29579,2.59351 -2.80559,1.10557 0.93435,-0.36852 1.86997,-0.73705 2.80559,-1.10557" />
      <path
         inkscape:connector-curvature="0"
         id="path54"
         d="m 846,535.4905 c 1.00372,0.006 2.00743,0.013 3,0.019 -1.00651,-0.006 -2.00325,-0.013 -3,-0.019" />
      <path
         inkscape:connector-curvature="0"
         id="path56"
         d="m 656,374.52504 c -1.67703,1.278 -3.34518,1.458 -5,-0.068 1.66667,0.024 3.33333,0.046 5,0.068" />
      <path
         inkscape:connector-curvature="0"
         id="path58"
         d="m 618.5645,204 c -0.042,1.66945 -0.085,3.33723 -0.129,5 0.042,-1.67112 0.086,-3.33556 0.129,-5" />
      <path
         inkscape:connector-curvature="0"
         id="path60"
         d="m 705,49.699686 c -1.66667,-10e-4 -3.33484,-0.003 -5,-0.005 1.66818,-0.624 3.33484,-0.419 5,0.005" />
      <path
         inkscape:connector-curvature="0"
         id="path62"
         d="m 216,29.353 c -1.66619,0.098 -3.33381,0.196 -5,0.294 1.66619,-0.098 3.33381,-0.196 5,-0.294" />
      <path
         inkscape:connector-curvature="0"
         id="path64"
         d="m 257,29.67 c -1.33333,-0.113 -2.66784,-0.227 -4,-0.34 1.33216,0.113 2.66549,0.227 4,0.34" />
      <path
         inkscape:connector-curvature="0"
         id="path66"
         d="m 279,31.254831 c -1.33285,0.497 -2.6657,0.791 -4,0.007 1.3343,-0.002 2.66715,-0.005 4,-0.007" />
      <path
         inkscape:connector-curvature="0"
         id="path68"
         d="m 160,33.993 c -1.66781,0.339 -3.3339,0.678 -5,1.014 1.66781,-0.336 3.3339,-0.675 5,-1.014" />
      <path
         inkscape:connector-curvature="0"
         id="path70"
         d="m 619.568,441 c -0.046,1.00201 -0.092,2.00281 -0.136,3 0.047,-1.00322 0.091,-2.00161 0.136,-3" />
      <path
         inkscape:connector-curvature="0"
         id="path72"
         d="m 68.4715,360 c 0.02,0.66816 0.039,1.33631 0.057,2 -0.021,-0.66994 -0.038,-1.33452 -0.057,-2" />
      <path
         inkscape:connector-curvature="0"
         id="path74"
         d="m 909,356.4121 -5,0.026 c 1.66255,-1.242 3.33039,-1.084 5,-0.026" />
      <path
         inkscape:connector-curvature="0"
         id="path76"
         d="m 567,349.33 c -1.33471,-0.22 -2.66805,-0.44 -4,-0.66 1.33195,0.22 2.66667,0.44 4,0.66" />
      <path
         inkscape:connector-curvature="0"
         id="path78"
         d="m 201,581.9875 c -1.66724,-0.324 -3.33277,-0.651 -5,-0.975 z" />
      <path
         inkscape:connector-curvature="0"
         id="path80"
         d="m 537.546,295 c -0.031,-1.00122 -0.062,-2.00243 -0.092,-3 0.03,1.00122 0.061,2.00122 0.092,3" />
      <path
         inkscape:connector-curvature="0"
         id="path82"
         d="m 221,29.6845 c -1.00035,-0.123 -2.00069,-0.246 -3,-0.369 0.99931,0.123 1.99965,0.246 3,0.369" />
      <path
         inkscape:connector-curvature="0"
         id="path84"
         d="m 385,4.9545 c -1,-0.303 -2.00102,-0.606 -3,-0.909 1,0.303 2,0.606 3,0.909" />
      <path
         inkscape:connector-curvature="0"
         id="path86"
         d="m 504,679.439 c 0.66883,0.041 1.33875,0.082 2,0.122 -0.67208,-0.041 -1.33658,-0.082 -2,-0.122" />
      <path
         inkscape:connector-curvature="0"
         id="path88"
         d="m 45,142.46 c 1.003924,0.026 2.007847,0.053 3,0.08 -1.008969,-0.027 -2.004484,-0.054 -3,-0.08" />
      <path
         inkscape:connector-curvature="0"
         id="path90"
         d="m 716,50.676 c -1.66667,-0.117 -3.33333,-0.234 -5,-0.352 1.6684,0.118 3.33333,0.235 5,0.352" />
      <path
         inkscape:connector-curvature="0"
         id="path92"
         d="m 189,45.994 c -2.33898,0.004 -4.67488,0.008 -7,0.012 2.34361,-0.004 4.6718,-0.008 7,-0.012" />
      <path
         inkscape:connector-curvature="0"
         id="path94"
         d="m 661.452,252 c 0.03,1.66897 0.063,3.33795 0.096,5 -0.03,-1.67013 -0.06,-3.33564 -0.096,-5" />
      <path
         inkscape:connector-curvature="0"
         id="path96"
         d="m 539,610.032 c -1.33797,-0.02 -2.67341,-0.042 -4,-0.064 1.3405,0.018 2.66962,0.042 4,0.064" />
      <path
         inkscape:connector-curvature="0"
         id="path98"
         d="m 681,80.193808 c 1.99953,-0.222 3.99907,-0.444 6,-0.666 -1.91983,1.698 -3.99348,0.568 -6,0.666" />
      <path
         inkscape:connector-curvature="0"
         id="path100"
         d="m 528,610.5555 c -1.00326,-0.038 -2.00543,-0.075 -3,-0.111 1.00652,0.038 2.00326,0.074 3,0.111" />
      <path
         inkscape:connector-curvature="0"
         id="path102"
         d="m 493.424,628 c 0.05,1.66967 0.101,3.33785 0.152,5 -0.049,-1.67268 -0.101,-3.33634 -0.152,-5" />
      <path
         inkscape:connector-curvature="0"
         id="path104"
         d="m 646,141.59754 c 1.33375,-0.124 2.66749,-0.248 4,-0.371 -1.21745,0.938 -2.64646,0.389 -4,0.371" />
      <path
         inkscape:connector-curvature="0"
         id="path106"
         d="m 209,407.633 c 1.33333,0.246 2.66805,0.49 4,0.734 -1.33333,-0.244 -2.66667,-0.488 -4,-0.734" />
      <path
         inkscape:connector-curvature="0"
         id="path108"
         d="m 417,144.50421 c 1.66376,-1.418 3.33101,-1.264 5,-0.016 -1.66725,0.004 -3.33275,0.01 -5,0.016" />
      <path
         inkscape:connector-curvature="0"
         id="path110"
         d="m 354.427,195 c 0.048,-0.66696 0.095,-1.33393 0.146,-2 -0.046,0.66785 -0.096,1.33392 -0.146,2" />
      <path
         inkscape:connector-curvature="0"
         id="path112"
         d="m 645.479,176 c 0.014,1.3355 0.027,2.67101 0.042,4 -0.013,-1.33876 -0.027,-2.66938 -0.042,-4" />
      <path
         inkscape:connector-curvature="0"
         id="path114"
         d="m 204.28421,385.03113 c 2.19426,0.74435 6.60714,2.99093 9.16378,2.69319 2.04674,-0.23954 3.73398,-2.72703 5.70767,-2.72432 5.31522,0.007 4.32981,6.15104 1.76171,9.44919 -6.94516,8.92137 -22.46401,-0.75247 -16.63316,-9.41806" />
      <path
         inkscape:connector-curvature="0"
         id="path116"
         d="m 225.97708,353 c 7.24823,1.87086 3.63831,17.81407 -2.45487,18.91002 -7.17444,1.29151 -8.42458,-11.67173 -7.007,-16.35765 3.69223,2.19338 1.40623,10.01977 6.05912,7.85705 2.9586,-1.37761 2.50878,-7.74322 3.40275,-10.40942" />
    </g>
  </g>
</svg>
