<?xml version="1.0" encoding="UTF-8" standalone="no"?>
<svg
   xmlns:dc="http://purl.org/dc/elements/1.1/"
   xmlns:cc="http://creativecommons.org/ns#"
   xmlns:rdf="http://www.w3.org/1999/02/22-rdf-syntax-ns#"
   xmlns:svg="http://www.w3.org/2000/svg"
   xmlns="http://www.w3.org/2000/svg"
   xmlns:sodipodi="http://sodipodi.sourceforge.net/DTD/sodipodi-0.dtd"
   xmlns:inkscape="http://www.inkscape.org/namespaces/inkscape"
   viewBox="0 0 594.39105 688.3764"
   version="1.1"
   id="svg25"
   sodipodi:docname="z About.svg"
   width="594.39105"
   height="688.3764"
   inkscape:version="0.92.4 5da689c313, 2019-01-14">
  <metadata
     id="metadata31">
    <rdf:RDF>
      <cc:Work
         rdf:about="">
        <dc:format>image/svg+xml</dc:format>
        <dc:type
           rdf:resource="http://purl.org/dc/dcmitype/StillImage" />
        <dc:title />
      </cc:Work>
    </rdf:RDF>
  </metadata>
  <defs
     id="defs29">
    <inkscape:path-effect
       effect="simplify"
       id="path-effect911"
       is_visible="true"
       steps="1"
       threshold="0.0219144"
       smooth_angles="360"
       helper_size="0"
       simplify_individual_paths="false"
       simplify_just_coalesce="false"
       simplifyindividualpaths="false"
       simplifyJustCoalesce="false" />
  </defs>
  <sodipodi:namedview
     pagecolor="#ffffff"
     bordercolor="#666666"
     borderopacity="1"
     objecttolerance="10"
     gridtolerance="10"
     guidetolerance="10"
     inkscape:pageopacity="0"
     inkscape:pageshadow="2"
     inkscape:window-width="1280"
     inkscape:window-height="665"
     id="namedview27"
     showgrid="false"
     fit-margin-top="0"
     fit-margin-left="0"
     fit-margin-right="0"
     fit-margin-bottom="0"
     inkscape:zoom="0.076822918"
     inkscape:cx="1851.9117"
     inkscape:cy="-625.36733"
     inkscape:window-x="0"
     inkscape:window-y="0"
     inkscape:window-maximized="1"
     inkscape:current-layer="g934" />
  <g
     id="g934"
     inkscape:export-xdpi="122.36"
     inkscape:export-ydpi="122.36"
     transform="translate(-215.00006,-39.623377)">
    <path
       style="fill:#ffd633;fill-opacity:1;fill-rule:evenodd;stroke:none;stroke-width:1"
       inkscape:connector-curvature="0"
       id="react-path-63"
       d="m 372.1166,194.47126 c -0.70519,11.53161 -1.41141,23.06217 -2.1166,34.59377 4.53855,-1.30727 33.41077,-9.80243 31.62754,-1.1888 -1.27952,6.17783 -9.39697,12.86069 -13.53255,17.16179 -3.80636,3.96025 -7.72592,7.81659 -11.74518,11.5607 7.38734,-2.82757 14.83596,-5.50549 22.33858,-8.01092 5.67682,-1.89543 11.39518,-3.74618 17.21221,-5.16672 2.15918,-0.52789 7.98971,-2.68104 10.02946,-1.2127 5.36005,3.85737 -23.723,32.27019 -27.70695,36.27513 5.6332,-2.61973 11.40141,-4.99942 17.26829,-7.04137 4.23528,-1.47458 17.32125,-7.10892 21.06945,-2.29759 4.01199,5.14801 -5.92711,16.96954 -8.68348,20.71781 -3.94967,5.3704 -8.22962,10.52257 -12.72039,15.44925 18.66516,16.76483 40.5987,31.68618 63.94158,40.96072 17.11562,6.80029 33.92797,8.53154 51.98869,4.7999 18.55403,-3.83452 36.34784,-11.18764 53.26301,-19.59448 9.93391,-4.9381 19.73696,-10.28044 29.07578,-16.28266 -3.84998,-4.68351 -7.58779,-9.46366 -11.21966,-14.3176 -5.1835,-6.93018 -11.55408,-14.50257 -14.50985,-22.75249 -2.89242,-8.0743 7.95959,-6.49789 13.1649,-6.05937 7.53793,0.63493 15.0551,1.98273 22.44244,3.59447 -5.22297,-3.63291 -10.35142,-7.41131 -15.37705,-11.31234 -6.55026,-5.08358 -15.2867,-10.83224 -19.57392,-18.14588 -3.77,-6.43138 4.50428,-4.80717 8.33037,-3.96441 9.12175,2.00975 17.99736,5.43379 26.69745,8.77366 6.37162,2.4462 12.70378,5.00774 18.97466,7.70541 -3.89256,-3.38352 -7.65426,-6.92915 -11.26952,-10.60571 -4.8605,-4.94123 -11.41387,-10.97565 -13.59279,-17.7801 -4.43676,-13.85725 25.41067,-3.4043 30.50693,-1.2657 -0.94198,-14.35501 -1.88189,-28.71002 -2.82283,-43.06503 -39.52171,10.51634 -79.04445,21.03372 -118.56719,31.55109 -4.2706,1.13685 -9.61611,3.61214 -14.07054,3.74411 -4.03484,0.12055 -8.9078,-1.69591 -12.8419,-2.44723 l -71.52002,-13.665 c -18.68697,-3.57057 -37.37394,-7.14114 -56.06092,-10.71171" />
    <path
       d="m 796.89557,688.21539 c -4.26677,2.44112 -9.26456,4.32626 -14.00483,5.59099 -2.78393,0.74407 -7.38402,3.03866 -9.82944,0.93529 -1.17442,-1.01012 -1.44337,-3.30367 -2.13598,-4.63282 -1.09654,-2.10442 -2.65517,-3.922 -4.11515,-5.7822 -3.53885,-4.50708 -7.221,-8.85516 -11.07448,-13.0962 -1.8255,-2.00984 -5.16082,-6.70086 -8.37777,-6.39221 -4.01028,0.38451 -3.91371,5.93496 -2.90854,8.77098 3.19929,9.02766 12.8844,16.89765 19.21134,23.69931 -1.60848,2.47541 -10.44314,2.18028 -12.89583,1.60143 -3.74548,-0.88437 -4.1245,-3.551 -5.83369,-6.60213 -3.99782,-7.12902 -12.10872,-11.11753 -18.77625,-15.30869 -2.43088,-1.52973 -7.5969,-5.76557 -10.76504,-4.69933 -3.002,1.01011 -2.8722,4.84482 -1.91583,7.34933 1.4444,3.78482 5.55333,6.40988 8.59167,8.80216 4.05181,3.18831 7.75681,6.65825 11.13366,10.56155 -4.86695,0.39698 -9.71625,1.08286 -14.57075,1.48296 -5.87108,0.48427 -10.76399,-2.7373 -16.16883,-4.5632 -5.02168,-1.69704 -10.0257,-3.13116 -14.96431,-5.08696 -5.54399,-2.19586 -11.35172,-2.95969 -16.94452,-4.88639 -21.94854,-7.55926 -43.45473,-17.06704 -64.60578,-26.65069 -10.07866,-4.56735 -19.94964,-9.13678 -30.45092,-12.71065 -7.65297,-2.60531 -19.67965,-7.79723 -21.5093,-16.91323 -0.96571,-4.81677 2.55341,-9.99622 3.07157,-14.80882 0.6085,-5.66165 0.1298,-11.89071 -1.59497,-17.32269 -1.52021,-4.78559 -4.03936,-9.2168 -6.02477,-13.81118 -2.3125,-5.35508 -0.24194,-5.26778 4.25119,-5.87676 5.37784,-0.72953 11.6539,-3.75677 16.7088,-5.72816 5.82332,-2.27276 11.59575,-5.44757 16.92895,-8.71174 4.82438,-2.95242 9.02157,-6.75802 12.86155,-10.89098 3.90644,-4.20467 6.43597,-9.18667 10.21261,-13.49422 13.93941,17.1429 27.18828,34.54665 41.99994,50.94859 6.99047,7.74215 14.59256,14.14372 23.20708,20.02984 3.59699,2.45983 7.16595,5.26675 11.08486,7.21008 4.90122,2.4328 10.37979,3.94175 15.41704,6.16151 19.31413,8.51014 37.74667,17.8132 55.76489,28.79355 8.71732,5.31143 16.03281,11.40123 23.70862,18.06469 2.38935,2.07427 21.95997,14.16347 15.31321,17.96699 M 570.32933,547.77475 c -3.12142,1.41437 -6.09642,3.25066 -9.42655,4.1579 0.9439,-5.74375 6.3041,-14.40769 13.17619,-13.45472 2.6261,0.36372 4.60632,2.40266 3.45266,5.21374 -1.04878,2.55439 -4.9791,3.07712 -7.2023,4.08308 M 353.07645,391.98177 c -3.53885,1.95372 -6.83575,3.09166 -8.91046,-1.10157 1.53682,-0.30865 8.51795,-1.23875 8.91046,1.10157 m -5.89185,-11.85434 c -2.73409,-0.82929 -0.54724,-1.70119 0.39355,-2.70196 0.73311,-0.77837 3.15983,-3.51047 4.00924,-3.96149 3.75068,-1.98698 6.64988,5.406 8.44319,7.80555 -4.246,-0.37723 -8.71213,0.1112 -12.84598,-1.1421 m 29.23703,25.59796 c -5.18262,0.87814 -4.60736,-5.60656 -4.45263,-8.89152 1.09343,1.33435 8.49406,8.20668 4.45263,8.89152 m 17.17608,-11.20066 c -6.31863,1.06623 -10.49401,-9.85073 -9.36112,-14.62592 0.99686,-4.20675 5.89392,-6.55538 9.79206,-7.17579 3.77871,-0.6017 9.03922,0.21928 10.16172,4.57671 0.99167,3.85133 -6.38093,16.51417 -10.59266,17.225 m 149.57345,164.80298 c -4.5409,1.39566 -8.99042,1.57129 -13.55416,2.94098 -5.17847,1.55467 -9.97066,1.41645 -15.15952,2.47437 -2.11106,0.4292 -7.80561,3.50528 -9.86475,2.81835 -2.03941,-0.68068 -4.99156,-7.01054 -6.16391,-8.65666 9.18045,-3.816 17.01202,-8.74292 23.06274,-16.78334 4.81192,-6.39429 9.9717,-15.97378 6.94478,-24.22619 -3.41424,-9.3041 -15.18236,-11.32434 -23.02847,-7.43767 -3.71226,1.83734 -7.39129,4.12257 -10.45144,6.92326 -3.49939,3.20182 -4.87526,6.69774 -7.14208,10.64676 -2.29277,3.99475 -3.90124,1.7729 -6.19194,-1.6191 -1.95738,-2.89941 -1.70193,-5.82688 -4.14839,-8.68784 -1.24815,-1.45906 -3.1806,-2.8672 -3.83167,-4.75233 -0.41328,-1.1951 0.45689,-3.31406 -0.32606,-4.25559 -1.10174,-1.32188 -2.44126,0.23174 -3.3644,-0.9488 -0.66976,-0.85736 -0.45066,-2.81212 -1.14327,-3.88459 -0.60019,-0.61002 -1.26788,-1.13067 -2.00618,-1.56298 -0.89613,-0.44271 -1.05916,-0.99661 -0.49116,-1.66171 -0.71234,-1.31876 -0.026,-1.76355 -1.55136,-3.3681 -2.37792,-2.50035 -4.54609,-4.89678 -6.23867,-7.84816 -0.77361,-1.35098 -0.69677,-3.35458 -1.65832,-4.5237 -1.31876,-1.60559 -3.516,-1.36449 -4.64993,-3.35147 -1.01036,-1.77083 -0.33436,-4.86769 -1.99995,-6.47535 -0.87848,-0.25046 -1.75696,-0.49675 -2.63648,-0.73992 -0.66146,-0.64224 -1.0467,-1.42165 -1.15677,-2.33928 -0.92521,-1.42477 -1.10901,-3.0979 -2.2772,-4.60269 -2.23566,-2.87759 -5.24285,-5.53694 -7.21788,-8.57145 -2.07575,-3.18935 -0.97505,-3.72663 2.63129,-4.86768 3.25225,-1.03091 6.22206,-1.98698 9.23652,-3.74118 13.93733,-8.11108 27.1509,-29.62596 5.02894,-36.199 -8.20954,-2.43904 -14.95391,-8.99857 -24.05648,-6.42028 -3.9459,1.1182 -7.68931,3.498 -10.63316,6.32155 -2.03421,1.95269 -3.91786,7.17371 -6.4152,8.17447 -4.49002,1.79785 -2.59183,-2.69468 -3.86594,-4.75856 -0.6085,-0.98518 -3.05807,-2.12 -3.96563,-3.01685 -1.06539,-1.05064 -2.09548,-2.37772 -2.83482,-3.67778 -1.37275,-2.41306 -2.21281,-3.75781 -4.19303,-5.72296 -0.74661,-0.742 -4.47341,-4.57463 -1.11212,-4.07373 -1.36134,-4.14855 0.62511,-4.77208 3.37062,-7.80347 3.22422,-3.55931 6.55331,-8.50494 6.572,-13.49213 0.0374,-9.57534 -11.30915,-13.86522 -18.43461,-8.18175 -1.4496,1.15665 -10.0257,12.32094 -8.27081,5.20127 0.94597,-3.8399 9.70587,-13.86417 13.76703,-11.27029 -4.55128,-6.63331 -15.00584,9.47245 -17.44607,12.7678 -2.07782,-3.82535 -2.22528,-6.81829 -5.6634,-9.78006 -2.79847,4.48942 -1.32084,-0.41672 -1.93764,-1.41437 -1.3333,-2.15325 -0.60123,0.30969 -1.32396,-0.45517 -0.90028,-0.95296 -2.31769,-1.70432 -3.27509,-2.96593 -1.64067,2.226 -0.98544,-0.16939 -1.48802,-1.00076 -1.17546,-1.94437 -0.72065,-3.07088 -2.73513,-4.76169 -1.46621,-1.22939 -4.35399,-3.13843 -6.32694,-3.31302 -2.27512,-0.2016 -2.90543,0.6703 -5.22312,0.0249 -2.94904,-0.81995 -6.66026,-2.07948 -5.23247,2.85264 1.03632,3.58426 5.25012,5.62112 6.17325,9.28332 0.92937,3.68609 -2.7154,7.40129 -4.48378,10.42333 -2.27097,3.87731 -4.12762,3.56035 -8.24174,4.43433 -2.62922,0.5591 -6.13795,1.7542 -3.8836,4.94355 1.61055,2.279 5.38408,1.79888 7.50967,3.14882 2.98019,1.89242 2.93866,6.55849 6.74334,7.37012 4.18992,0.89373 6.59068,-3.77131 10.1233,-4.89782 2.51188,-0.80124 10.29361,-0.71186 12.27071,1.17431 2.69463,2.56998 0.36655,7.48028 1.04462,10.67275 1.00828,4.73466 4.21173,5.02357 8.26251,5.17529 4.98741,0.18602 6.74022,4.97473 9.42239,8.77306 6.28229,8.89673 11.74216,18.38061 18.17709,27.15886 2.84832,3.88667 7.0154,7.34414 9.34763,11.56232 2.88051,5.20959 -1.11835,8.21396 -4.56894,11.95306 -4.5087,4.88639 -7.87518,10.44619 -11.78577,15.78672 -3.47551,4.7461 -7.79419,3.56451 -13.34752,3.56451 1.23776,-2.55127 2.72682,-4.14231 5.77139,-3.83263 -3.18371,-3.8877 -5.72986,0.5591 -7.79522,3.02204 -2.98747,3.56243 -6.88248,4.42187 -10.72039,6.76426 -1.35822,0.82825 -8.75366,6.19996 -6.50658,8.03417 0.25545,0.20785 12.49708,-7.84503 13.89164,-8.58392 0,2.9732 -0.65003,6.06175 -0.23364,9.01832 0.30529,2.1678 1.82965,4.42913 1.50464,6.68319 -0.61577,4.25455 -6.11407,7.60602 -8.47434,10.92112 -1.77669,2.49516 -1.34784,4.46343 -2.25228,7.14149 -0.82448,2.4432 -0.39147,1.70432 -2.44645,2.45878 -4.18473,1.53701 -11.22712,0.70771 -15.01623,-1.47776 -2.35196,-1.35618 -4.15565,-3.50008 -6.0663,-5.38937 -1.43921,-1.42477 -5.05905,-3.85757 -5.45883,-5.85079 -0.68638,-3.43149 6.12652,-9.80811 7.4754,-13.34768 3.80779,-9.98998 -2.72267,-17.755 -12.8844,-18.32241 3.1318,-2.41618 7.01435,-0.59548 10.31541,0.32631 -5.64368,-7.8201 -15.28205,-1.38528 -20.06905,3.92927 -3.27094,-8.268 -4.84826,-16.99013 -6.84613,-25.61354 -1.36134,-5.87054 -6.54189,-16.34999 -4.23146,-22.3951 1.11731,-2.92228 4.27091,-4.55177 6.45258,-6.57824 2.47865,-2.3029 4.60113,-5.05578 6.41312,-7.90635 4.26988,-6.71437 6.73503,-15.19022 0.85668,-21.8069 1.78604,-0.2941 3.57312,-0.58716 5.35915,-0.88126 -2.90542,-2.73002 -7.4889,-1.39982 -11.25931,-2.20937 -2.39246,-0.51337 -9.27597,-0.18082 -10.87302,-1.53492 -1.92103,-1.62741 -0.6895,-9.11808 -0.62096,-11.33473 0.15783,-5.18049 0.59084,-10.16145 1.163,-15.31076 0.54204,-4.86457 0.43301,-10.11989 1.43817,-14.89924 0.81618,-3.87835 3.42359,-5.05994 6.43286,-7.34517 7.19192,-5.46524 13.05262,-12.11206 10.59681,-21.52944 0.87018,-0.13821 1.74035,-0.27643 2.61053,-0.41464 -2.81405,-2.03479 -6.4557,-1.29487 -9.58542,-2.37045 2.87427,-8.0903 9.23132,-22.31196 19.55296,-23.07787 0.35513,3.61647 0.11215,7.91779 2.55238,10.91177 2.7777,3.40759 7.654,3.75157 11.41714,1.94853 3.41424,-1.63781 6.61977,-5.10775 8.19397,-8.53612 1.06436,-2.32057 0.87225,-6.24465 2.74136,-8.08406 2.50669,-2.4671 19.78765,-0.97894 19.25807,3.1852 -0.31152,2.44839 -4.93238,6.56368 -6.22414,8.73357 -2.36338,3.97084 -4.25534,8.26592 -5.12344,12.82703 -1.31772,6.92534 -0.5545,16.06836 6.47855,19.70977 7.99875,4.14231 17.7472,-1.12443 24.30673,-5.67412 3.60219,-2.49827 7.0912,-5.25531 10.38187,-8.15057 1.75281,-1.54011 3.51393,-3.12804 5.05906,-4.88015 1.14015,-1.29383 2.05186,-3.37953 3.45577,-4.34808 3.31664,-2.28836 6.56785,1.59416 9.37463,3.55515 4.57205,3.19455 9.12126,6.22802 14.02871,8.88634 9.9582,5.39457 19.06388,12.54021 27.86843,19.63494 8.85646,7.13733 17.9881,14.47939 25.16237,23.37092 -4.34568,2.67286 -3.57,3.36706 -5.50349,8.13498 -1.37172,3.38369 -3.2616,6.26336 -3.47966,10.02324 -0.37694,6.48782 3.78806,12.01749 10.10981,13.45368 3.53573,0.80332 6.90428,0.16004 10.17938,-1.28551 2.5451,-1.12339 5.08294,-3.88874 7.74227,-4.57566 4.94379,-1.27512 8.90008,8.06431 11.67155,11.35447 12.30809,14.61137 25.31813,28.64494 36.90765,43.85282 1.28346,1.68457 5.09644,4.97473 5.40588,7.20488 0.44548,3.20287 -4.59281,6.254 -6.68206,8.0903 -1.09759,0.96335 -12.73383,11.90941 -8.82636,13.64906 1.11316,0.4957 4.37372,-6.21971 5.18886,-6.7944 3.05184,-2.15013 0.74349,2.06492 0.56177,4.19532 -0.45481,5.29584 3.18268,8.18174 8.29574,7.51041 5.45676,-0.71602 10.31437,-5.02357 13.69123,-9.0921 4.23145,4.90094 10.84603,12.30951 12.06925,18.85657 0.78191,4.18284 -2.83689,14.41912 3.9189,15.27231 1.03113,0.12991 4.76312,-2.63856 5.45884,-1.06727 0.58047,1.31253 -3.45369,3.55516 -4.03623,3.98955 -2.48592,1.85604 -3.98744,3.84406 -5.99466,6.09188 -2.35611,2.63857 -5.57617,4.86145 -8.2272,7.38986 -2.79328,2.66351 -8.31753,9.89749 -12.0028,6.40261 -1.85249,-1.75627 -1.36548,-4.05294 -4.33218,-5.08384 -2.7019,-0.93841 -6.12445,0.25149 -8.63529,1.29278 -2.82651,1.1712 -12.13571,5.44757 -13.16891,8.96843 -1.42468,4.85522 6.26982,-0.98205 7.63739,-1.83525 -1.55967,3.96045 -2.42258,9.6938 -6.39547,12.00398 -3.30106,1.91943 -8.0486,3.04802 -11.66948,4.16102 m -52.76913,-29.95332 c 2.64168,-8.49143 18.22175,-23.63176 28.06884,-18.89605 -11.47633,2.40474 -20.58305,10.25913 -28.06884,18.89605 m 5.82643,24.31661 c -3.83998,-2.13974 -3.63334,-8.35633 -4.97391,-11.99255 -0.76945,-2.08674 -2.30835,-3.61127 -1.85561,-5.92664 0.52958,-2.71444 3.99159,-5.73232 5.83474,-7.6902 5.80047,-6.16255 16.00789,-14.58331 25.3441,-13.17102 11.88338,1.79888 3.82752,17.75292 -0.21911,23.24622 -3.44851,4.68374 -16.73788,19.65468 -24.13021,15.53419 m -27.72201,-10.38488 c -12.85117,-0.85839 -25.65873,-2.00673 -38.33441,-4.36574 -4.49417,-0.83657 -8.25939,-0.71291 -5.68832,-5.87989 0.8494,-1.70535 5.96869,-12.39368 7.12442,-12.08712 0.68534,0.18187 0.52854,7.52808 0.72999,8.36985 0.90756,3.78171 3.45578,7.30568 7.75162,7.06563 7.02889,-0.39179 11.5594,-9.47973 15.26024,-14.35781 2.96462,3.98643 5.11098,8.41453 8.09117,12.33445 1.42468,1.87371 6.38405,6.23218 5.06529,8.92063 m -75.34279,-50.44561 c -2.1557,4.94771 -6.49204,9.65328 -9.50754,14.13541 -1.70504,-3.60919 -2.90438,-11.89486 1.14016,-14.56356 1.5306,-1.00908 9.7308,-2.69989 8.36738,0.42815 m 44.57101,14.73296 c 0.59292,-1.90488 1.25022,-3.79417 1.98333,-5.64917 1.2575,3.95733 1.90026,4.07476 -1.98333,5.64917 m 11.00075,4.05294 c 1.55967,2.64377 4.15981,5.24389 3.75172,8.56418 -0.30944,2.51594 -2.58353,5.09424 -4.20758,6.84739 -2.68736,2.90045 -8.64152,8.46753 -12.53549,4.6162 -3.25329,-3.21741 -2.12041,-12.06322 -0.60747,-15.68281 2.1609,-5.17217 9.88033,-10.64364 13.59882,-4.34496 m -7.6322,-5.41847 c 0.89406,-0.35541 -0.9844,-6.12617 0.75907,-6.70086 1.5202,3.46682 2.95319,4.40524 -0.75907,6.70086 m -24.55595,-77.66266 c -0.57943,-2.12936 -1.90753,-2.03998 -1.42883,-4.67232 0.31359,-1.72613 1.68323,-3.56866 2.72267,-4.93627 2.07056,-2.72586 4.80257,-4.97265 7.7568,-6.67384 6.2366,-3.58946 14.80128,-5.08073 20.38472,0.53935 -5.22,0.8241 -21.2227,5.97653 -21.32446,13.11698 5.80462,-1.1182 10.3694,-6.94924 16.19168,-8.78657 4.77869,-1.50894 9.96132,-1.40294 14.71509,0.19018 13.01316,4.35847 7.60208,15.6059 0.25752,22.91158 -4.36022,4.33769 -9.58853,7.57589 -15.30386,9.8102 -2.64479,1.03402 -4.2678,1.14833 -6.86794,0.62873 -0.487,-0.0977 -1.05604,-1.00077 -1.63962,-1.19406 -1.45064,-0.48116 -1.03009,1.14729 -2.22528,0.41568 -1.04255,-0.63703 -3.26679,-4.75233 -3.97601,-5.9308 -1.12874,-1.87475 -1.6552,-3.69857 -3.04042,-5.41016 -1.3873,-1.71262 -2.06225,-4.00825 -3.34571,-5.55772 -0.61577,-0.74616 -2.3042,-0.71602 -2.75798,-1.44347 -0.68014,-1.09326 0.18588,-1.8893 -0.11837,-3.00749 m -19.98494,83.88133 c 2.95735,-5.13892 8.01744,-9.50155 11.93219,-13.99304 0.24091,7.38259 -5.05283,12.43734 -11.93219,13.99304 m 3.99678,2.37357 c 6.10784,-2.1491 9.47327,-7.29114 10.09631,-13.52539 0.79022,-7.897 5.74855,-12.0414 8.73393,-19.13612 1.14431,-2.71859 2.47865,-11.6652 6.91571,-9.10457 1.52229,0.87814 2.42465,4.1818 3.21798,5.67412 1.91896,3.61023 4.10062,7.11031 6.13588,10.65508 1.65727,2.88694 4.14111,5.78843 3.41008,9.26357 -0.63757,3.02931 -2.68944,6.25711 -3.89086,9.11392 -2.83689,6.74762 -6.56369,12.96214 -9.67784,19.56115 -1.25645,2.66247 -2.74343,8.96532 -6.57926,8.93322 -3.03627,-0.0261 -2.69671,-3.34535 -4.69562,-4.48329 -2.5233,-1.4362 -5.39238,1.29694 -7.46502,2.42968 2.38623,-4.03008 6.55954,-6.31219 11.24997,-5.55357 -5.61668,-5.59305 -9.41097,1.95373 -14.2312,3.63414 -4.56686,1.59312 -12.66945,-5.91833 -16.51462,-8.04665 1.4714,-2.491 2.80055,-5.53798 5.33007,-7.17682 2.39973,-1.55571 5.34462,-1.31669 7.96449,-2.23847 m -49.6581,51.11278 c 0.66873,-3.22053 2.55861,-5.12437 3.75691,-8.04872 1.38938,3.5458 -1.86392,5.63774 -3.75691,8.04872 m 97.04211,19.76173 c -0.32813,10.84525 -1.21388,21.66141 -1.53371,32.50978 -0.14745,5.00279 -1.0332,9.77487 -1.62093,14.71945 -0.49739,4.18181 -0.24402,8.28879 -2.87635,11.86161 -4.15046,5.63255 -12.21879,7.25165 -18.48342,9.3384 -4.60009,1.5318 -9.25313,2.92227 -13.79611,4.6245 -4.08712,1.53181 -7.38195,3.85238 -11.26866,5.67308 -3.47654,1.62949 -7.23034,2.59492 -10.69131,4.33041 -3.57934,1.79577 -6.40897,3.98332 -10.08592,5.58163 -4.40175,1.9132 -8.02887,5.31767 -11.94361,8.01963 -3.44643,2.37876 -7.09224,4.2161 -10.05685,7.20696 -2.77978,2.80692 -6.2989,4.03735 -9.44939,6.53043 -3.33117,2.63649 -6.8181,4.35016 -10.49817,6.41716 -7.53874,4.23688 -17.70982,11.4719 -26.78227,7.35661 2.59495,-3.31406 7.9053,-6.49926 8.30923,-11.06557 0.52543,-5.94847 -4.652,-3.75885 -7.64985,-1.85916 -4.5409,2.87655 -7.05277,6.34961 -10.50959,10.18432 -4.04143,4.48213 -9.14617,1.46633 -14.09101,0.20576 3.38101,-3.04386 6.73503,-6.11579 10.10981,-9.16484 2.84935,-2.5731 7.20853,-5.35612 8.94369,-8.9144 1.23984,-2.54504 1.17962,-6.03264 -1.81304,-7.35349 -3.34778,-1.47672 -7.13377,1.63781 -9.61345,3.49281 -6.58238,4.92484 -10.91768,11.17053 -15.23948,18.02415 -2.299,3.64453 -3.35817,3.36498 -7.58755,2.63649 -4.48171,-0.77213 -8.96446,-1.59519 -13.48355,-2.13662 5.98635,-6.148 12.67672,-12.80834 17.40453,-20.00179 1.53163,-2.33096 3.5295,-8.47376 -1.13704,-9.0391 -1.92311,-0.23278 -5.75167,3.69961 -7.23553,4.75961 -6.4827,4.63386 -12.71514,10.47841 -17.01202,17.24371 -1.41845,2.23327 -1.86392,4.717 -4.61047,4.90198 -3.59077,0.24317 -10.26349,-3.18416 -13.72757,-4.24312 6.6208,-8.34594 13.19487,-16.75215 20.92987,-24.11188 7.10677,-6.76322 14.19589,-11.67663 22.5072,-16.86335 8.90839,-5.56085 17.2062,-11.96138 25.38459,-18.53026 7.82846,-6.28829 16.00685,-12.2191 23.21331,-19.24004 14.39422,-14.02421 27.21528,-30.15284 37.83286,-47.20741 2.48384,-3.99059 4.8223,-8.0851 6.84406,-12.33133 1.89818,-3.98747 2.77355,-8.75644 5.33631,-12.3833 0.88575,-1.25329 2.13286,-2.18443 2.92204,-3.49176 0.74453,-1.23147 0.4922,-2.71963 1.62716,-3.80977 2.62506,-2.5201 7.40479,-1.00076 9.85852,0.7659 3.9459,2.84018 7.13792,6.2883 11.47426,8.66602 4.36229,2.39124 9.08076,4.12985 13.91033,5.3052 11.28839,2.74457 22.47916,4.99655 33.97938,6.66449 -1.18377,4.38861 1.7227,5.07969 2.68529,9.02871 1.16923,4.79182 -0.32917,10.81823 -0.47559,15.69839 M 339.24919,512.51208 c -2.55964,-3.80249 -4.84307,-7.77853 -7.3591,-11.60596 -1.53163,-2.33096 -3.43086,-4.83443 -2.12144,-7.685 2.20555,-4.80637 9.98624,-5.66165 14.20835,-3.56659 9.59892,4.76377 0.68222,18.38373 -4.72781,22.85755 m -25.40744,-86.9678 c -0.88367,-7.43247 1.95842,-12.70545 8.68202,-16.60251 4.79219,-2.77783 8.65086,1.01843 7.99668,6.08149 -0.99583,7.7141 -9.2386,16.29386 -15.52919,20.31874 -0.41121,-3.2621 -0.76011,-6.53251 -1.14951,-9.79772 m -1.02489,-21.26547 c 1.98333,-1.57442 7.29472,0.43439 9.59269,0.57156 -3.15984,2.7612 -6.32071,5.5224 -9.48158,8.28359 -0.20664,-1.89449 -1.94076,-7.40233 -0.11111,-8.85515 m 10.66431,-71.77759 c 15.99231,-2.07947 -2.41738,15.08318 -7.05174,17.77266 0.75388,-3.6518 2.60637,-17.19382 7.05174,-17.77266 m 42.57417,-30.04684 c -2.1474,8.79592 -18.84167,18.39203 -19.01612,3.98331 -0.0644,-5.36859 2.95112,-4.9342 7.35287,-5.44965 2.51084,-0.29306 12.89063,-3.56243 11.66325,1.46634 m -57.66308,13.62203 c -1.8743,4.91861 -3.37686,9.96504 -5.21378,14.88989 -0.8141,2.18027 -1.7715,3.67882 -3.28756,5.40704 -1.26891,1.44451 -2.77874,1.80927 -2.7289,4.09243 1.58979,-0.30657 2.83378,-1.25434 4.11828,-2.16781 -0.31152,4.52683 -1.91169,9.39867 -2.68633,13.91094 -0.92832,5.4112 -1.70089,10.82447 -1.98749,16.31153 -0.622,11.93124 -0.62719,23.81987 -0.36551,35.75838 0.13395,6.08356 0.19418,12.17025 0.52231,18.24655 0.16407,3.02307 0.3489,6.05862 0.72272,9.063 0.15161,1.21276 1.03217,3.79521 0.48805,4.93211 -2.13598,4.4624 -11.59783,-7.79515 -15.70676,-5.99627 0.59085,-3.39616 -0.77256,-2.65312 -3.04976,-4.32314 -1.10278,-0.80955 -1.82031,-2.18651 -2.97085,-2.90772 -0.34786,-0.37516 -0.73103,-0.70875 -1.14846,-1.00181 -0.47559,-0.64847 -0.97713,-0.57884 -1.50463,0.20681 -4.62917,-2.76744 -5.8254,-8.66498 -8.31027,-12.63271 -1.27827,-2.03998 -2.51292,-2.35798 -2.73098,-5.17841 -0.18899,-2.45775 0.18068,-4.96226 0.081,-7.43039 -0.11319,-2.78406 -0.27622,-5.85391 -1.05709,-8.54963 -0.90652,-3.13012 -2.15363,-2.87447 -4.58243,-4.54241 0.74868,-0.32736 1.24192,-0.8771 1.48075,-1.64924 -0.77568,0.13822 -3.13284,1.09949 -3.71849,0.40841 -1.15158,-1.35721 1.5659,-1.53804 2.28031,-2.07947 -3.04769,-1.35306 -2.39142,-2.46502 -1.29176,-4.94459 0.31152,-0.70147 0.6085,-1.75003 0.87329,-2.34135 0.57838,-1.29278 0.91067,-0.47388 1.10174,-2.07947 0.18172,-1.53076 -1.17547,-4.54137 -1.57525,-6.1719 -0.6708,-2.73626 -1.04151,-5.10047 -0.43924,-7.95104 0.48805,-2.3081 1.80058,-4.39796 1.89195,-6.77153 0.026,-0.66614 -0.98959,-0.88749 -1.00308,-1.53076 -0.0197,-0.94049 0.85771,-1.3541 1.08616,-2.22289 0.58254,-2.22392 0.31982,-4.57566 1.31668,-6.68631 0.89717,-1.89553 2.70917,-4.34808 3.99159,-6.00251 0.88887,-1.14626 3.06949,-2.438 3.30832,-3.9511 0.15784,-1.00284 -1.40287,-0.88749 -1.33329,-1.643 0.0945,-1.02259 0.9522,-1.3541 1.18792,-2.11376 0.64899,-2.08571 0.81202,-4.09036 2.48903,-5.68867 2.11209,-2.01192 3.03003,-1.16912 3.11726,-4.48733 0.0426,-1.6191 -1.2523,-1.86851 -0.55866,-3.73494 0.37694,-1.01324 1.48906,-1.61183 2.20036,-2.32993 2.1121,-2.13039 3.53573,-4.0228 5.03933,-6.65513 1.33018,-2.32577 3.45162,-3.67883 4.814,-5.68763 1.77461,-2.61778 -0.87849,-3.91577 2.72267,-4.65465 -0.51193,-1.62533 -1.05605,-2.9389 0.29075,-4.31482 0.8494,-0.86775 3.00511,-0.33671 3.75691,-1.34059 0.86186,-1.15249 -0.41225,-3.88355 0.88679,-4.63178 1.05604,-0.60691 2.63752,1.26576 4.29687,0.33878 1.26477,-0.70667 3.17437,-4.60892 2.76732,-6.04304 3.26991,1.83941 2.45477,0.57261 4.01963,-1.78745 0.35098,-0.52896 1.41429,-0.64639 1.71646,-1.18055 0.60435,-1.06727 0.46624,-2.15533 1.33642,-3.02308 1.45063,-1.44451 3.82337,-1.07351 5.41938,-2.10545 1.31876,-0.85215 1.24919,-1.77082 2.30108,-2.57517 0.89925,-0.68693 2.37584,-0.81891 3.25017,-1.53077 1.71231,-1.39463 1.72893,-2.8672 3.87113,-4.06853 2.5368,-1.42165 4.78389,-2.63129 7.0912,-4.51643 1.50463,-1.22835 2.93243,-3.40655 4.6925,-4.21714 2.434,-1.12131 4.33011,-1.20029 6.71115,-2.79964 1.72062,-1.15665 3.34778,-3.06465 5.03725,-4.03944 1.27411,-0.73368 2.16817,-0.57572 3.77456,-1.0309 2.89089,-0.81994 3.59492,-3.54372 5.95312,-4.65257 1.61885,-0.76174 3.97601,-0.0644 5.75374,-0.46453 5.53257,-1.24186 10.99764,-3.92096 16.54889,-5.40496 6.77656,-1.81031 13.60089,-3.39615 20.42937,-4.99655 -6.27501,8.50495 -14.26754,16.17851 -22.37324,22.93342 -2.66037,2.21768 -17.24046,12.32613 -9.3819,16.64304 3.15465,1.73237 10.00805,-3.86381 12.55523,-5.23142 5.12863,-2.75496 10.44106,-4.96017 15.81267,-7.18825 8.68617,-3.60296 19.99844,-10.01077 29.65135,-9.49531 -5.87627,7.20903 -13.21149,12.99643 -19.93198,19.36474 -6.17637,5.85286 -15.48246,11.342 -12.56976,20.92149 -8.67579,-2.20729 -16.4679,-4.81573 -25.48739,-4.23792 -4.04039,0.25876 -8.08286,-0.22759 -12.10457,0.33878 -4.37371,0.61834 -8.49199,2.08155 -12.69437,3.36602 -3.32494,1.01532 -6.99878,1.09534 -10.05789,2.78406 -1.47867,0.81683 -3.30624,1.98283 -4.63435,2.99606 -1.77046,1.35098 -2.17336,2.24575 -3.56377,4.02592 -4.96041,6.35169 -9.75986,12.30639 -12.70787,20.04439 m -27.13325,120.21855 c -0.27102,-1.09949 -0.51712,-2.10233 -0.8276,-3.3577 2.76109,1.70015 2.76109,1.70015 0.8276,3.3577 m -20.86653,-35.01325 c -0.3406,0.47076 -1.77046,0.62145 -2.18582,0.21512 -0.51712,-0.50506 0.84213,-2.47126 1.0602,-2.88902 0.53893,0.4136 1.77877,1.7677 1.12562,2.6739 m -5.91158,-12.74286 c 0.36551,-1.34267 0.73207,-2.6843 1.09758,-4.02697 0.44859,1.24395 2.47242,2.61987 2.51707,3.80561 0.028,0.78565 -3.21487,0.3949 -3.61465,0.22136 m 1.17338,1.84149 c 3.16815,2.0857 3.49939,4.54656 3.59389,8.14641 -3.79118,-1.25538 -3.24706,-4.92588 -3.59389,-8.14641 m 55.09513,-142.05975 c -0.31982,0.86567 -1.677,3.56243 -2.67178,1.67626 -0.31775,-0.60379 2.01033,-1.42789 2.67178,-1.67626 m -0.90963,-2.93994 c 0.78295,-0.70563 2.36131,0.17251 3.24706,-0.39802 0.62096,-0.4001 0.41536,-0.80539 0.70715,-1.04233 0.0582,-0.0478 0.90236,-1.75628 1.24815,-2.14391 0.61057,-0.68172 1.94283,-1.10676 2.68529,-1.72198 2.07471,-1.7199 3.24602,-3.98123 4.55128,-6.28102 1.55759,-2.74664 2.05394,-3.06464 4.56582,-4.32209 1.73204,-0.86671 3.07468,-1.92775 4.48379,-3.40136 1.62404,-1.69704 1.50463,-2.91188 2.83793,-4.76688 0.65834,-0.91555 1.60639,-1.02882 2.37377,-1.76667 0.92002,-0.88333 1.38729,-2.11896 2.23774,-3.0106 0.36759,-0.38555 1.54721,-0.38451 1.76942,-0.71498 0.28348,-0.41777 0.50466,-2.08883 0.77049,-2.39644 0.50777,0.68589 1.01659,1.37177 1.52332,2.05765 2.00203,-3.52086 3.46305,-6.42963 6.81083,-8.77306 3.51601,-2.46086 6.55123,-6.0607 10.18561,-8.26384 0.81618,-0.49467 2.48073,-0.70355 3.1048,-1.43308 1.05501,-1.23459 0.14122,-2.33304 0.91067,-3.38161 0.87329,-1.18886 2.56484,-0.22655 3.67488,-0.73888 1.40495,-0.64847 1.80681,-2.54296 3.61569,-2.33408 -5.94792,7.03653 -5.87316,17.98467 -6.18883,26.77332 -0.13707,3.7869 2.24813,5.69594 -1.27307,8.4748 -2.99473,2.36422 -7.21788,1.66275 -10.7588,3.21845 -4.44641,1.95373 -9.20226,2.99294 -13.739,4.69622 -4.6925,1.76043 -8.46603,4.84378 -12.98201,6.88376 -3.98224,1.79785 -6.7018,4.35432 -10.34448,6.57408 -1.35407,0.82514 -3.45163,2.02335 -5.06633,1.03714 -1.01139,-0.61834 -2.27097,-1.63365 -0.95117,-2.82459 m 67.17477,-58.99939 c 0.25856,-0.99973 5.33527,-3.62686 6.58446,-4.48422 1.87431,-1.28863 4.64889,-4.43537 6.74126,-3.18519 0.7248,-2.90357 3.55339,-6.13449 6.0528,-6.74971 2.77251,-0.6838 7.5294,-3.06153 10.25726,-5.13684 0.79645,-0.60587 1.05916,-1.49232 1.99683,-2.06077 1.63236,-0.99037 3.25225,-0.44998 4.82438,-1.79992 0.24091,-0.20576 2.41635,-3.79833 2.50253,-3.76404 0.11111,0.38555 0.21288,0.77526 0.30114,1.16704 1.65105,-0.91555 3.12141,-1.64404 4.15046,-2.81212 0.23364,-0.265 -1.2793,-0.954 -0.80164,-1.4788 0.58462,-0.64224 1.88988,0.0759 2.48072,-0.53416 -1.83795,9.12432 -0.46935,20.86849 8.7869,25.49404 -11.00802,1.1899 -21.75956,-2.12 -32.90361,-0.0873 -5.33423,0.97374 -10.75672,2.57102 -15.60914,5.0246 -2.97292,1.50375 -6.77449,6.88897 -9.73391,4.2743 1.17442,-1.5661 2.96565,-2.53881 4.36956,-3.86692 m 53.41294,-26.24955 c 4.11619,-5.035 10.36006,-7.02718 16.64857,-5.22414 7.36222,2.11169 4.25742,7.2558 3.1453,12.96733 -2.12455,-3.11452 -6.72672,-6.20411 -10.64562,-6.29764 -5.55541,-0.13198 -3.45578,4.49668 -0.11941,6.15527 3.03315,1.50686 8.23446,1.92671 10.40575,4.66712 2.11313,2.66663 1.30318,7.02718 1.64377,10.17184 -1.64274,-0.24421 -3.28548,-0.48843 -4.92925,-0.73264 1.37898,-7.33895 -4.68939,-7.69436 -10.3476,-9.76344 -5.71844,-2.08986 -10.48571,-6.21347 -5.80151,-11.9437 m 18.43877,-18.07196 v 6.81102 c -2.28863,-1.30526 -4.57829,-2.60947 -6.86794,-3.91473 2.28965,-0.96543 4.57931,-1.93086 6.86794,-2.89629 m 18.40034,54.42268 c 7.64363,2.07116 15.23429,4.26287 22.58197,7.12071 2.66867,1.03818 5.59175,1.40502 8.20643,2.57725 2.49007,1.11508 2.86389,0.99869 1.97814,3.18104 -2.48072,6.11371 -8.35804,5.05787 -13.50743,4.12257 -8.06002,-1.46425 -15.95286,-3.49384 -23.91215,-5.40392 -7.77965,-1.86539 -15.72337,-3.08855 -23.38568,-5.42678 -7.86272,-2.39851 -15.52504,-4.67024 -23.61309,-6.254 -2.36027,-0.46245 -21.03164,-2.17508 -20.89019,-4.12673 11.75959,-1.52765 23.86623,-0.0229 35.67796,0.13614 12.2759,0.16523 24.95781,0.84592 36.86404,4.07372 M 456.89097,172.833 c 0.14641,-4.20363 0.20456,-8.42076 0.72687,-12.59945 3.49835,4.31794 6.65611,5.61073 11.06617,1.56298 4.22212,-3.87419 5.16394,-5.89443 10.51686,-2.25198 4.64059,3.15922 9.03092,3.01373 13.95914,0.24837 3.00615,-1.68664 7.83676,-8.57872 10.99659,-7.16019 1.50568,0.67653 2.60949,3.40239 4.1297,4.40523 1.90753,1.25642 4.84099,2.12832 7.0642,2.61571 5.25116,1.15041 8.37984,-2.22704 11.6757,-5.83935 4.77973,-5.23869 4.63955,-2.19587 9.07142,1.43619 4.94275,4.05191 9.07556,2.0722 13.55104,-1.38527 2.72683,7.98845 3.74653,16.71266 4.51702,25.0877 0.2596,2.82771 1.2305,6.84324 -1.30942,8.84269 -1.79019,1.41022 -5.58967,1.46529 -7.74642,2.24471 -7.70488,2.78613 -15.10864,6.73827 -21.55291,11.79821 -2.51084,1.97139 -4.69977,4.38549 -8.13063,3.93655 -3.2699,-0.42816 -6.44739,-3.16545 -9.07764,-4.97265 -2.85351,-1.95996 -5.74129,-4.18596 -9.07661,-5.27817 -1.95322,-0.64016 -5.0819,-0.40841 -6.7911,-1.58169 -3.17749,-2.18131 0.56177,-7.90323 -0.22948,-11.74418 -0.59916,-2.91604 -2.2772,-8.99648 -6.29371,-7.28698 -5.977,2.54296 -2.49838,12.47059 0.78814,15.56953 -6.72361,-1.19406 -14.16786,-2.93786 -20.65263,-5.15347 -5.00921,-1.71159 -7.38194,-7.367 -7.2023,-12.49449 m 112.76652,20.47463 c 13.80234,-3.87524 26.71789,-6.48886 41.08199,-7.19449 6.35809,-0.3128 12.5137,-0.11535 18.80117,-0.0582 3.61985,0.0333 6.37782,-2.8859 3.48589,-6.2436 -4.00197,-4.64946 -16.20933,-2.87967 -21.61833,-3.08855 -14.49806,-0.56014 -27.79159,1.08806 -41.52228,5.86741 1.45168,-2.67494 4.93965,-3.02204 7.33107,-4.40524 2.93242,-1.69808 4.92614,-4.4946 6.17948,-7.59874 3.25952,-8.07263 -0.0218,-15.67969 -3.43189,-23.05396 6.69868,1.802 13.62789,5.7479 20.36188,6.7497 1.41221,0.20993 2.31769,0.0748 3.56688,0.58924 0.76634,0.31488 1.00828,1.40502 1.95841,1.643 0.45897,0.11535 1.56175,-0.92178 2.08094,-0.77526 2.05083,0.57989 0.42886,0.73369 1.72582,1.57338 1.02904,0.66613 0.94597,1.52349 2.83377,1.20861 0.83695,-0.13822 1.74451,-1.43308 2.18582,-1.46842 0.56178,-0.0457 0.43198,-0.72953 1.29177,-0.53 1.56382,0.36373 1.42571,2.37877 1.94699,3.37018 0.55658,1.05584 -0.23364,2.45982 1.45375,3.03763 1.26165,0.43231 1.57836,-0.89996 2.65102,-0.80436 0.65107,0.0582 2.00306,0.99661 2.57833,1.56818 1.85354,1.84149 4.39137,3.87524 6.88352,5.07345 -0.24506,-0.24629 1.17442,-0.83969 0.83487,-0.97894 -0.22845,-0.0925 1.26269,0.26708 1.23984,0.26188 1.43922,0.32735 2.19932,2.53673 2.9262,3.34212 1.33745,1.47672 3.41528,3.03555 5.28958,3.68714 3.24083,1.12755 3.14218,-0.22032 4.32491,3.63102 2.3042,-3.62271 3.18787,2.44423 6.04553,3.11245 1.47972,0.34606 1.30734,-0.28787 2.65206,0.48635 0.92314,0.53104 1.5389,2.15741 2.23463,2.94202 0.29906,-1.13171 0.59708,-2.26445 0.89509,-3.39512 2.0581,3.89914 6.50035,10.08247 11.3725,8.96428 0,1.06415 -0.4382,2.33615 0.38524,3.24443 0.57527,0.63496 1.50671,-0.0863 1.95738,0.28266 0.39251,0.32216 1.33226,1.60455 1.63339,1.81551 0.59292,0.41569 1.66974,0.71914 2.18478,1.13379 0.45378,0.36476 0.67807,2.10753 1.1817,2.73729 0.94597,1.18367 2.58145,1.41853 3.35505,2.8381 0.17653,-1.39982 0.35305,-2.80069 0.52854,-4.20051 1.53475,1.18575 1.66663,2.10649 2.04356,3.84094 0.53685,2.47022 -0.17549,1.89137 1.52852,2.93371 1.67389,1.0257 2.54718,0.91035 4.08193,2.68949 1.50463,1.7438 1.51813,2.81835 3.68941,1.0018 0.40394,1.34371 0.53374,3.08232 1.61159,4.11218 0.8141,0.77837 4.18577,0.81163 4.50767,2.65 -6.33421,-5.34469 -2.16609,2.77263 0.003,0.0135 0.45793,2.95345 2.61987,3.90745 5.08813,6.01082 2.30212,1.95996 2.67906,1.81759 3.46512,5.11086 -0.0177,-0.0727 1.15677,0.65575 1.24192,0.80124 -2.24293,0.32008 1.23465,2.82667 1.82238,3.28496 0.42886,0.33463 0.98751,-0.46453 1.69985,0.0769 0.81514,0.61938 1.47868,2.02751 2.14221,2.87655 1.79746,2.30186 3.12765,4.27949 5.0196,6.15112 2.04148,2.02023 3.03419,4.57359 4.99468,6.93469 2.17439,2.62194 3.3509,5.6367 5.16912,8.48311 1.72893,2.70716 4.02482,4.88016 6.02685,7.35869 3.19098,3.94486 4.2761,12.63271 10.22507,12.86133 -0.34891,0.36061 0.13603,3.05322 0.19314,3.54996 0.2814,2.44528 0.0945,4.79806 1.54097,7.01263 0.33125,-2.52633 1.65313,-1.55259 2.80159,-0.22551 1.90961,2.20833 0.2326,1.65235 0.33333,3.88979 0.12253,2.71235 0.43093,0.61417 1.46413,2.98254 0.80891,1.85501 1.25231,3.05842 1.68636,5.1171 -3.36025,0.26604 -4.89915,-2.47956 -6.14107,-5.13996 -0.5192,-1.113 -0.69884,-2.94202 -1.61782,-3.81184 -0.97817,-0.92594 -2.32185,-0.99869 -3.32701,-2.03167 -1.92934,-1.9849 -2.76525,-5.07968 -5.03933,-7.01159 -2.56899,-2.18235 -3.13803,-3.21325 -5.26155,-5.82272 -2.34884,-2.8859 -5.59279,-4.91237 -8.0569,-7.70371 -2.46826,-2.79653 -2.26785,-1.26992 -5.3685,-2.28211 -3.2969,-1.07767 -8.62802,-11.44385 -12.78159,-7.45118 0.16406,-2.61155 -3.74757,-5.06826 -5.72467,-6.01498 -0.8546,-0.40841 -1.84938,-0.0385 -2.70502,-0.65159 -0.92729,-0.6651 -0.99374,-1.94749 -1.92934,-2.74561 0.001,10e-4 -1.43402,0.34814 -1.72477,0.20161 -0.59292,-0.30033 -0.59708,-1.36241 -1.12043,-1.71159 -1.44752,-0.96751 -3.17333,-1.98178 -4.70912,-2.80588 -3.73406,-2.00257 -7.03408,-4.46863 -10.63731,-6.87961 -3.08611,-2.06596 -6.82225,-5.79674 -10.39017,-6.88584 -3.11622,-0.95088 -5.07568,-0.46661 -7.62701,-2.37149 -1.39041,-1.03714 -0.98128,-1.38528 -3.21487,-2.03063 -2.12663,-0.61418 -3.32078,-0.29825 -4.44744,-2.55335 -1.97088,-3.9459 -0.72688,-11.64753 -1.10797,-16.07251 -0.40497,-4.69622 -0.88575,-9.50883 -2.11002,-14.07514 -1.44856,-5.39665 -3.36128,-8.21812 -9.15033,-6.94716 -11.4701,2.52114 -22.80106,4.91965 -34.32309,7.13318 -22.95994,4.41043 -45.52529,11.60804 -67.98056,17.99818 -1.71024,0.48739 -11.25205,2.67182 -9.30298,-2.26238 0.89821,-2.27588 6.93751,-3.12388 8.95927,-3.83886 11.09836,-3.92823 22.2476,-7.93025 33.59206,-11.11441 m -3.85764,-10.04298 c -1.67701,0.63912 -3.35297,1.27823 -5.02998,1.91839 v -4.66296 c 1.67701,0.91451 3.35297,1.82902 5.02998,2.74457 m -6.96866,-24.65539 c 1.45686,1.19094 4.4194,-1.67522 5.65821,-2.25614 2.11624,-0.99141 4.81088,-1.84253 7.1753,-1.63884 4.36022,0.37723 7.54913,4.67023 6.7506,9.02247 -1.35198,7.36388 -11.84392,10.84629 -17.62882,13.72492 -0.18587,-2.60947 -1.03008,-5.74686 0.79957,-8.00404 1.58874,-1.95996 4.66966,-1.81759 6.13587,-3.90226 3.68941,-5.23972 -6.30928,-5.71464 -8.54391,-1.54843 -0.8816,-2.66247 -1.76319,-5.32494 -2.64479,-7.98741 2.12767,-0.35229 1.19311,1.68769 2.29797,2.58973 m 10.31956,-14.41392 c -2.08198,1.34578 -4.16396,2.69156 -6.2449,4.03735 -1.03217,-4.6588 2.48487,-5.27194 6.2449,-4.03735 m 189.6887,162.1509 c -2.72682,1.3011 -3.40801,-1.80616 -5.3685,-1.94022 2.31562,-1.42372 2.31562,-1.42372 5.3685,1.94022 m 11.08694,67.84416 c 0.33955,4.46551 0.0737,8.98298 0.66872,13.43082 0.45274,3.38368 1.82342,6.53251 1.96984,9.95465 0.31982,7.49482 -2.21074,15.12682 -7.32172,20.62115 -4.83477,5.19712 -11.75255,9.6699 -18.27886,11.85537 -2.94073,0.9831 -6.01023,3.16442 -8.86685,3.97085 -3.15983,0.89268 -6.16183,-1.04961 -8.7682,2.43384 -1.73827,-14.94184 -0.46832,-30.55502 -0.60538,-45.59143 -0.13707,-15.06863 0.0249,-30.14245 -2.52434,-45.04896 -2.26993,-13.27598 -6.74541,-28.20847 -14.99442,-39.06932 -3.3509,-4.41043 -7.47644,-8.02274 -11.82731,-11.40435 -2.25747,-1.75419 -4.51598,-3.62998 -7.02993,-5.01525 -3.8701,-2.13247 -7.16596,-1.83734 -11.37457,-2.44528 -6.02373,-0.86982 -11.62275,-1.60455 -17.66828,0.0915 -5.6281,1.57961 -11.82628,3.37849 -16.86768,6.12202 -5.02168,2.73418 -10.8533,3.86069 -16.06604,6.30908 -3.54612,1.66586 -10.91249,7.23086 -14.84696,6.22906 -3.80883,-0.97063 -9.44628,-7.43455 -11.8782,-10.3298 -3.10791,-3.70065 -5.67898,-7.98949 -8.43591,-11.97073 -0.96779,-1.39774 -2.94178,-3.55827 -3.19307,-5.353 -0.43716,-3.11557 0.81099,-2.09714 3.78703,-1.749 7.65296,0.89788 14.85008,2.31745 22.18426,4.72636 3.64995,1.19821 10.78684,6.04719 14.43679,3.14154 5.57307,-4.43641 -2.89504,-12.06113 -5.99672,-14.6228 -5.28439,-4.36471 -11.42857,-7.60602 -17.06186,-11.48437 -5.98427,-4.12153 -13.89787,-8.5091 -17.74928,-14.85559 11.24685,3.32029 22.48228,7.12278 33.401,11.40331 4.99571,1.95788 9.93328,4.02696 14.62474,6.63124 2.63545,1.46217 7.96033,5.41743 11.13367,3.52294 6.89909,-4.11841 -8.94577,-16.07875 -11.23231,-18.52298 -3.55235,-3.79834 -7.03305,-7.5603 -10.93741,-11.00634 -2.63441,-2.32472 -6.77241,-3.95941 -7.99668,-7.38882 4.37164,1.58273 7.90634,4.68271 12.00073,6.7892 2.14324,1.10364 4.09854,1.73861 6.46608,2.07635 2.5233,0.36165 2.82443,0.76382 4.81296,1.76667 1.54824,0.78253 3.13906,1.82798 4.87733,2.36006 1.23881,0.37931 3.40282,0.44478 4.48587,1.14729 0.55346,0.7898 1.12458,1.5661 1.71543,2.32888 0.66041,0.19434 1.31045,0.41777 1.95114,0.67237 0.96051,0.85632 1.52956,2.03687 2.46411,2.9202 6.78071,6.41196 15.85005,11.00114 23.45214,16.37284 7.19192,5.08177 14.82412,9.67926 21.73152,15.22555 7.94891,6.3839 16.19895,13.24481 22.95994,20.89967 3.82129,4.32626 6.96243,9.23135 10.17211,14.01486 2.32392,3.46371 5.7039,6.33714 7.71215,9.90892 4.37995,7.78685 8.01537,16.20449 12.72968,23.86559 4.80465,7.80659 11.06305,15.5633 11.78474,25.06589 m -64.61513,45.18094 c 1.30941,-5.40392 8.69966,-11.71404 13.42228,-14.09696 -2.38,5.88819 -8.72147,9.90372 -13.42228,14.09696 m 12.18556,18.85137 c -4.02794,8.35737 -21.73983,9.31345 -19.33699,-3.05426 1.17754,-6.05966 6.17533,-9.77798 10.46494,-13.74362 1.98334,-1.83214 6.83991,-8.38751 9.91044,-7.33167 -0.14434,4.71284 -0.42159,9.44647 -0.41121,14.16035 0.006,3.14675 0.79853,7.01159 -0.62718,9.9692 m -5.11929,-96.3249 c 1.63443,3.67051 3.26264,6.72684 0.23052,10.01076 -1.36756,1.48192 -5.82643,4.72428 -7.84299,4.0041 -6.47439,-2.30914 5.86901,-12.36355 7.61247,-14.01486 m -39.15889,-32.6584 c 1.55967,-0.0852 3.07365,0.14653 4.61462,0.052 1.53475,-0.0956 1.69674,-0.36789 3.11934,-0.17355 0.15057,0.21823 0.3001,0.43647 0.45066,0.6547 0.19418,1.46426 0.96363,1.62326 2.30628,0.47804 1.86807,0.41569 3.08299,0.69316 4.86903,1.70224 -4.82023,3.47617 -10.6882,7.51768 -16.59874,8.68472 -9.34139,1.84357 -6.76098,-10.95749 1.23881,-11.39812 M 530.00847,387.4113 c -0.96882,1.94853 -3.75483,-2.9202 -4.44433,-3.82744 1.28554,-0.004 5.42354,1.86124 4.44433,3.82744 m 75.0593,-51.29465 c 7.25838,-4.2348 15.87809,-7.95416 23.67332,-11.10714 1.37068,6.60422 -5.3145,15.12994 -9.43174,19.64845 -3.32909,3.65492 -7.34352,7.44495 -11.85742,9.54832 -4.88046,2.2738 -10.21469,1.27512 -9.97793,-5.10567 0.0872,-2.332 0.61784,-6.08357 1.56693,-8.215 1.22427,-2.74769 3.53781,-3.31822 6.02684,-4.76896 M 506.95715,215.98747 c 1.07993,-0.0634 12.81483,-1.58064 12.75253,-0.12055 -0.18484,4.38861 -11.57499,0.94257 -12.75253,0.12055 m -82.98225,84.73765 c 6.19818,-7.64759 16.20415,-15.90208 16.35056,-26.59041 0.21599,-15.72749 -17.23838,-7.88037 -26.01386,-7.22671 4.64059,-4.55904 27.95774,-23.6858 14.16578,-30.47915 -3.96459,-1.95269 -9.59892,-0.0447 -13.57701,0.9779 -7.05796,1.81551 -13.62062,4.95913 -20.55397,7.14668 4.95418,-5.27402 13.5147,-11.26821 13.23433,-19.25562 -0.34267,-9.72291 -8.32377,-7.3722 -15.22494,-5.94536 -2.65206,0.54871 -14.4991,5.26155 -16.72438,2.06181 -0.81514,-1.17224 0.50362,-2.66143 0.78295,-3.70481 0.49324,-1.84668 0.3406,-2.491 0.35721,-4.37717 0.0343,-3.80561 2.56276,-8.692 0.50051,-12.23157 -0.47144,0.80435 -0.87537,1.64092 -1.21077,2.51074 -0.68015,-2.05972 -0.22326,-4.24415 -0.90341,-6.30388 17.22905,4.40628 34.7561,6.8183 52.09314,10.57922 8.77651,1.90384 17.03693,5.18257 25.9339,6.65825 8.97276,1.48712 17.78977,3.76404 26.77915,5.18257 8.20228,1.29382 16.05981,3.44812 24.18213,5.10047 7.91776,1.61079 16.038,-1.91943 23.76573,-3.70688 17.309,-4.00306 34.61177,-8.10381 51.94361,-11.98839 20.00051,-4.48422 40.80578,-8.31788 59.94962,-15.79608 0.37071,9.96712 1.1682,19.91553 2.38623,29.81406 -8.4546,-3.99683 -21.00152,-9.20849 -29.54855,-2.05661 -3.42047,2.86096 -4.47444,7.80139 -3.12245,12.00294 1.47141,4.57359 5.97907,6.69775 8.95304,10.14067 -9.05169,-2.32057 -32.40206,-18.68094 -36.55876,-2.14391 -2.93554,11.67975 11.38392,19.22446 18.38582,25.79853 -6.95309,-1.36137 -16.26438,-6.92013 -20.34734,2.014 -3.52847,7.72346 0.72168,16.12759 5.07463,22.49798 2.35923,3.45124 5.01233,6.69983 7.52005,10.04402 1.32603,1.76875 2.62091,3.56244 4.01444,5.27922 1.39767,1.72198 4.03416,3.52502 5.01336,5.37794 1.97192,3.73702 -2.00721,3.96565 -5.10163,5.31559 -3.86386,1.68561 -7.18153,4.51643 -10.71519,6.77257 -8.09117,5.16594 -15.16263,9.964 -24.72417,11.61531 -9.84398,1.69912 -19.32244,3.4741 -29.03662,5.84455 -9.68407,2.36318 -17.58937,4.63386 -27.48838,1.57961 -4.51286,-1.39255 -8.18878,-2.63026 -12.97578,-2.36837 -5.0279,0.27539 -7.9676,0.0145 -12.10145,-3.09998 -17.78873,-13.39757 -37.09768,-24.39143 -55.45753,-37.03973 m -32.06977,-13.45057 c 6.87521,-3.44916 13.79611,-6.91598 20.89769,-9.87982 5.87835,-2.45463 14.80439,-5.31351 21.23932,-4.23792 -1.81408,4.65984 -5.12448,8.48311 -8.67475,11.9146 -3.1401,3.03451 -7.06316,7.61434 -10.86264,9.73226 -3.45059,1.92255 -7.46502,-1.12235 -10.86784,-2.39851 -3.73926,-1.40086 -8.8845,-2.05453 -11.73178,-5.13061 m 1.72789,17.40271 c 3.42566,-1.42373 10.78892,3.35355 13.90514,4.59541 6.12341,2.44216 12.28109,4.99239 17.67762,8.84476 -6.58965,7.61538 -14.05259,14.57812 -22.92048,19.46971 -5.83473,3.21845 -15.66833,6.90975 -21.17182,1.06623 -6.91467,-7.34309 1.39768,-22.30572 6.29267,-28.59817 0.16199,1.07663 0.32502,2.15222 0.48805,3.22884 1.56174,-2.50035 2.75382,-7.37012 5.72882,-8.60678 m 125.77552,65.17961 c -4.27403,0.89996 -5.72674,0.0873 -8.54806,-3.1904 -1.90753,-2.2156 -3.78183,-4.51643 -5.93235,-6.5086 -2.19516,-2.03271 -7.61558,-6.93469 -0.70922,-4.11218 6.29475,2.57206 11.68713,3.85861 18.61322,2.85057 7.91879,-1.15145 15.30178,-4.49981 23.10947,-6.19477 -4.28027,3.74534 -8.52938,7.52808 -12.81794,11.26302 -4.53052,3.9459 -7.95826,4.67959 -13.71512,5.89236 m 0.97713,30.1227 c -9.36632,7.049 -28.22356,6.28622 -21.87689,-9.22304 0.96467,-2.3559 2.31354,-4.57255 3.87425,-6.57927 0.52023,-0.6703 1.44648,-2.05869 2.18789,-2.50867 2.0716,-1.25641 1.49737,-1.40814 3.48901,0.68692 1.71854,1.8072 15.1481,16.57341 12.32574,17.62406 m -2.77666,-26.94894 c 0.85771,-0.27851 4.4734,-2.37461 5.29685,-1.21484 0.83383,1.17431 -6.25426,5.2366 -5.29685,1.21484 m 68.18928,107.50374 c -2.10586,5.03916 -18.96108,12.33446 -15.82098,2.17612 1.39041,-4.4998 2.7019,-7.90635 7.94891,-8.24825 3.02796,-0.19641 9.72664,1.63468 7.87207,6.07213 m 30.23493,-68.28998 c 2.77459,-4.04046 11.93738,-9.50362 15.85005,-3.47825 1.88469,2.90253 -2.68944,4.38965 -5.45572,3.64349 -1.48491,-0.40218 -2.69983,-1.28967 -4.31453,-1.35618 -2.07575,-0.0852 -4.10477,1.54324 -6.0798,1.19094 m 7.35599,4.01034 c -1.88677,1.91008 -13.26653,11.48541 -15.10968,10.00868 3.71641,-5.31247 7.98317,-11.24535 15.10968,-10.00868 m -18.58519,96.89751 c -3.95109,0.22343 -1.97814,-5.73128 -1.59601,-8.11212 0.95636,1.65859 5.98634,7.86375 1.59601,8.11212 m 10.04024,-10.67275 c -1.27827,-2.27484 -4.72262,-5.6606 -3.94382,-8.58704 0.59603,-2.23743 5.9718,-5.24596 8.22304,-3.96252 2.98954,1.70639 -1.34472,12.9268 -4.27922,12.54956 m 93.76182,-23.85208 c -1.6905,5.82377 -3.44228,4.32106 -8.74224,5.44965 -5.31762,1.13171 -8.99353,5.6471 -13.67462,8.06847 1.62613,-3.43772 2.63441,-7.6268 5.35708,-10.41606 0.62927,-0.64431 4.48794,-1.91631 2.28966,-3.40862 -1.92207,-1.30422 -4.68524,2.92851 -5.50972,4.08204 -4.05493,5.67723 -6.89079,12.60984 -9.23237,19.14235 -1.15158,3.20806 -2.07367,6.47639 -2.61883,9.84553 -0.48597,3.00229 0.0384,6.14384 -0.45689,9.06819 -0.79749,4.70973 -7.194,4.73363 -11.04125,5.94847 -3.48277,1.09845 -6.94997,2.29044 -10.56462,2.88279 -3.13388,0.51337 -6.38613,-0.42192 -9.42343,0.19537 -3.2886,0.66822 -4.76623,2.61986 -8.50445,2.1782 -3.04769,-0.35853 -5.89912,-1.76043 -8.98834,-1.90073 -2.8909,-0.1299 -5.77452,0.86982 -8.64775,0.0561 -2.90024,-0.82202 -2.76006,-1.14002 -2.10068,-3.98955 0.41225,0.76902 0.82553,1.53804 1.23881,2.30602 1.15573,-0.9062 1.9553,-3.66947 2.66348,-4.96745 1.09862,-2.00984 1.99372,-2.70508 1.58667,-5.20855 -0.60019,-3.69753 -3.93344,-6.32778 -4.68939,-9.84449 -0.78918,-3.66947 1.92414,-6.66969 3.52742,-9.73329 2.19206,-4.19324 2.16298,-7.30257 0.32606,-11.63922 1.38522,0.3658 2.77044,0.73161 4.15669,1.09845 -1.89922,-4.12257 -8.33934,-2.45151 -11.56875,-1.23043 -1.62301,0.61314 -4.19511,3.02516 -5.94169,2.96384 -2.39973,-0.0842 -3.651,-3.23923 -4.68212,-4.9768 -2.98435,-5.02669 -6.39132,-9.99102 -9.92186,-14.65814 -0.9709,-1.28343 -2.24293,-2.10857 -1.90753,-3.57178 0.28556,-1.24083 3.06845,-3.00126 3.97186,-3.76612 3.3862,-2.86304 7.69554,-4.44992 10.87614,-7.46365 4.80673,-4.55384 10.34968,-7.81698 15.26336,-12.28145 5.12032,-4.65049 10.39537,-8.92167 15.73064,-13.31651 5.4038,-4.45096 10.08488,-9.69588 15.44923,-14.19257 1.39041,2.51906 4.08297,11.53841 7.16284,12.23677 3.59077,0.81266 3.48382,-3.43565 3.30521,-5.99212 -0.2544,-3.64349 -2.2772,-7.18306 -2.50253,-10.66027 -0.24194,-3.71936 3.33636,-5.3821 6.03723,-7.53328 4.17123,-3.32341 13.40359,-10.89306 8.44111,-17.12316 -4.27507,-5.36651 -18.1771,4.92277 -22.00877,8.01651 -3.25641,2.62922 -5.77244,5.00694 -9.43901,7.08122 -2.57833,1.45698 -6.90325,7.06251 -9.95924,6.54498 -3.63542,-0.61522 -5.05594,-4.58502 -9.50235,-4.45408 -4.34568,0.12679 -8.03717,3.2569 -10.7318,6.39949 -6.09226,7.10304 -8.18567,16.60771 -13.73692,24.01212 -2.73721,3.65076 -6.28748,6.66449 -9.25625,10.11884 -3.26056,3.79106 -3.95317,8.15888 -7.16804,11.86889 -9.20017,-12.25652 -19.22379,-23.86144 -28.92551,-35.71577 -4.84515,-5.91937 -9.58957,-11.90941 -14.33088,-17.91192 -1.7767,-2.2499 -3.7808,-4.36055 -5.40796,-6.72373 -2.2284,-3.23611 -1.82758,-5.83519 -2.70294,-9.44439 -0.38732,-1.59935 -2.20348,-3.51567 -1.71751,-5.04435 0.65419,-2.05453 5.24701,-3.66739 6.90325,-4.50708 6.76306,-3.43357 12.8979,-7.72449 19.20407,-11.91877 11.67882,-7.76605 23.49263,-15.04888 35.91287,-21.68219 -0.21391,2.85784 -2.07368,5.81961 -0.82449,8.6868 0.5815,-1.64923 1.50256,-8.99753 3.70499,-9.31345 -0.42159,0.0603 -0.0748,9.42361 0.26583,10.76004 1.01659,3.98955 3.96563,6.71749 8.18567,6.69047 8.03613,-0.052 15.23947,-8.79384 19.70041,-14.58539 3.01965,-3.92096 5.92093,-8.48104 6.98424,-13.38822 0.95636,-4.40627 -0.0955,-7.47092 4.48483,-9.70835 9.39851,-4.59022 18.87178,-8.33035 28.92344,-10.76419 -0.45067,4.33145 -1.70608,9.66366 2.23047,12.77923 4.34568,3.43876 10.03193,0.37412 14.1232,-1.90072 4.05285,-2.25303 10.30191,-8.44259 15.06191,-6.64475 4.68212,1.76874 7.9406,7.64031 10.56151,11.53945 2.30939,3.43669 4.82334,5.91522 2.14844,9.74577 -2.99785,4.293 -4.94899,8.48311 -7.35079,13.14607 -0.92314,1.79265 -1.8037,2.96177 -1.15158,4.79806 0.21183,0.59651 2.61883,4.14543 3.27198,4.65361 4.17019,3.24547 9.8014,-2.92747 12.77848,-5.2709 1.04982,10.09078 1.28449,20.13688 1.70816,30.25884 0.31048,7.41377 3.1806,14.71218 -2.90335,20.13169 -6.08188,5.41743 -11.15859,10.97931 -14.86566,18.31514 -1.98022,3.91888 -3.75587,7.94064 -5.89808,11.77847 -1.4309,2.56374 -4.44952,6.32362 -2.60221,9.34151 1.94906,-1.84981 2.52952,-4.66193 4.15357,-6.74763 0.97298,4.32833 1.95218,9.13055 6.53047,10.96476 5.26777,2.11065 10.50336,-1.54115 15.16886,-3.57386 -1.67285,11.57167 -4.93549,22.81598 -8.18774,34.01976 m -5.38511,13.30093 c -3.61465,7.72656 -6.8804,17.04313 -13.55624,22.73284 -1.46621,1.24914 -7.6945,6.12618 -10.06516,5.30935 -2.01137,-0.69419 -0.90444,-4.7596 -0.55346,-6.50133 1.77877,-8.84269 4.85553,-14.40665 12.02564,-20.04751 2.96773,-2.33512 6.7776,-5.31975 10.60409,-5.89547 4.11931,-0.62041 2.93346,1.43308 1.54513,4.40212 M 805.19545,675.3343 c -9.37358,-12.74598 -22.62142,-22.65179 -35.14134,-32.22712 -5.67067,-4.33769 -11.91973,-7.59043 -17.64959,-11.92916 -6.4775,-4.9051 -13.05677,-9.63664 -20.31203,-13.33314 -13.75665,-7.00951 -28.76353,-11.8959 -41.74554,-20.18468 -6.33109,-4.04255 -13.25718,-7.94896 -19.20925,-12.48722 -2.61468,-1.99425 -4.92407,-4.54345 -7.28642,-6.82661 -2.19516,-2.12207 -6.90844,-5.20231 -7.78173,-8.30748 3.65308,-0.59755 5.7309,-4.14232 8.99146,-4.50397 1.0737,-0.11951 7.80354,1.66067 6.88352,-1.60351 2.44126,-0.0613 2.72578,-0.0977 4.77142,-0.63184 0.84733,-0.22135 1.85146,0.12471 2.70813,-0.17874 1.31046,-0.46246 2.20244,-1.79889 3.52639,-2.31122 0.94079,-0.36373 4.43498,0.0426 4.96456,-0.41049 1.44649,-1.23563 -0.0903,-1.12651 -0.95324,-2.66975 2.81093,-0.0717 4.74131,1.34891 7.55951,-0.16107 0.85771,-0.46038 1.58355,-1.52038 2.4153,-2.06908 1.47453,-0.97479 2.00722,0.53623 3.01758,-1.48712 0.94494,2.79133 0.91898,2.0192 3.19722,1.19822 2.26889,-0.81787 3.90747,-1.40814 6.49204,-1.61287 6.17325,-0.48843 12.36935,0.26085 18.51457,-0.1777 2.24812,-0.16108 4.16915,-0.67134 6.40274,-0.37724 1.96672,0.25877 1.3738,1.62638 3.00927,-0.21615 0.38005,-0.42816 -0.84837,-1.6004 -0.2596,-2.21561 0.2596,-0.27228 1.10589,-0.0811 1.42675,-0.22032 2.87324,-1.25433 2.8857,0.49779 3.39555,2.78095 1.68532,-0.39491 3.40386,-0.7524 4.86799,-1.74069 -0.73933,-0.6599 -1.9771,-1.38839 -1.26268,-2.59388 2.42984,0.92074 4.01858,0.4957 2.80366,3.16337 2.44542,0.80747 2.90231,-0.24526 5.09852,-0.47596 1.29903,-0.13614 3.11207,0.67029 4.19407,-0.36685 1.1817,-1.13274 -0.68222,-2.36317 1.48802,-3.33692 0.44547,0.22655 0.77465,0.56846 0.99063,1.02467 1.17235,0.35437 0.96155,0.81579 -0.63238,1.38423 4.26884,2.2125 3.26575,-0.26084 5.05802,-2.87758 0.41432,-0.60275 2.26889,-2.47645 3.11311,-1.5713 1.28137,1.37177 -1.33434,1.80824 -0.77361,3.17273 0.97194,2.36525 4.36333,-0.66614 5.40381,-1.86435 0.78814,-0.90516 1.109,-2.64065 1.95841,-3.31718 1.17857,-0.93945 2.87531,0.51233 4.35191,0.25253 6.74437,-1.18263 13.11388,-10.25083 8.03302,-16.32088 -1.36549,-1.63157 -2.52122,-1.30734 -4.14839,-2.3372 -1.60847,-1.01739 -2.51084,-2.77782 -3.80156,-4.23169 -2.94696,-3.31821 -6.55538,-5.80402 -10.67573,-7.39298 -9.55738,-3.68713 -19.85514,-6.37662 -29.89122,-8.35529 -4.64786,-0.91659 -9.59581,-2.31849 -14.35477,-2.3081 -2.80366,0.005 -7.02578,2.18547 -9.64668,1.14106 -5.0954,-2.03063 2.38519,-12.42486 3.61984,-15.78257 3.62607,-9.8632 6.36224,-20.38006 8.15659,-30.7348 0.35097,-2.02647 0.21598,-4.65153 0.94598,-6.5824 0.83798,-2.21976 1.01762,-1.90592 2.81093,-2.08674 3.23979,-0.32735 6.78279,1.37177 10.15653,0.78461 3.73926,-0.65055 7.78069,-0.34814 11.55526,-1.50479 1.73516,-0.53104 3.34363,-1.10884 4.48586,-2.57309 0.36032,-0.45934 -0.0405,-0.85944 0.18691,-1.18055 0.0706,-0.10185 1.36134,-1.49336 1.40287,-1.57338 -0.0125,-0.72017 0.0498,-1.43515 0.18795,-2.14286 1.30838,1.08598 0.66354,3.36394 2.86805,3.41694 0.39355,-2.42864 0.3977,-2.91812 1.99164,-4.28468 -0.12149,0.10496 1.20038,-1.01844 1.03112,-0.89893 0.08,-0.43231 0.23883,-0.83656 0.47559,-1.21068 0.74557,-0.35957 1.53267,-0.55079 2.36131,-0.57261 1.72269,-1.77186 1.00724,-2.71651 1.00724,-5.10151 1.39041,0.72226 2.78082,1.44451 4.17123,2.16677 0.33644,-7.06563 4.63851,-10.93463 7.49721,-16.66071 1.21804,-2.44008 2.45892,-4.34704 2.74967,-7.2901 0.16822,-1.69808 -0.26998,-3.19559 0.43301,-4.79598 0.63757,-1.45178 2.06433,-2.23431 2.66036,-3.816 1.17339,-3.11245 0.29802,-7.08537 0.3624,-10.31733 0.0893,-4.48214 0.53685,-8.94973 0.68327,-13.42979 0.28763,-8.79488 -0.59708,-17.83294 -1.91273,-26.52598 -0.62926,-4.1579 -1.68219,-8.19213 -2.50876,-12.30639 -0.68014,-3.38161 -2.30731,-6.55329 -2.88881,-9.699 -0.24194,-1.30733 0.13188,-2.48061 -0.26271,-3.92616 -0.5192,-1.90072 -1.3873,-3.76923 -2.03318,-5.63566 -1.50775,-4.35951 -2.99888,-8.71279 -4.69458,-13.00475 -3.28652,-8.31788 -7.13377,-16.38635 -10.78892,-24.54419 -3.516,-7.84504 -6.42766,-15.93326 -10.98206,-23.25869 -4.48586,-7.21527 -9.31543,-14.30896 -14.25923,-21.21559 -5.1494,-7.19241 -11.66013,-13.37263 -16.65377,-20.63155 -9.3767,-13.62931 -22.45528,-24.86012 -36.1382,-34.13408 -28.23499,-19.13819 -58.74717,-38.24625 -92.60402,-44.80786 -5.10267,-0.98829 -10.27076,-1.67418 -15.47103,-1.802 -3.2263,-0.08 -8.57299,1.47984 -11.62795,0.38763 -3.42151,-1.22316 -3.10895,-5.06618 -3.96459,-8.08094 -1.10173,-3.87524 -3.58661,-6.41404 -6.40793,-9.15342 -2.96981,-2.88382 -5.66548,-6.25192 -9.36943,-8.21292 -3.7538,-1.98594 -8.18151,-2.72898 -12.34028,-3.32964 -3.7133,-0.53728 -9.26144,-0.0353 -12.65387,-1.6534 -3.08923,-1.47464 -1.56383,-3.00956 1.32914,-1.74692 0.21183,-1.27615 0.38317,-2.10025 1.20142,-3.08647 0.41017,-0.4957 2.34989,-1.19094 2.39662,-1.65339 0.055,-0.541431 -1.57213,-2.083627 -1.80473,-2.78198 -0.50051,-1.503745 -0.21599,-3.586334 0.37797,-4.997588 2.91685,2.592843 3.76211,3.741176 7.01851,1.262647 1.37587,-1.046491 1.79746,-1.507902 3.39036,-2.035824 0.43197,-0.143412 1.40079,0.299294 1.77773,0.05092 1.43922,-0.947765 0.11526,-0.724334 0.79956,-1.844608 -0.17237,0.282667 1.03632,-2.694687 0.97921,-2.072196 0.14641,-1.585843 0.61577,-1.098451 -0.34163,-3.046981 -1.87534,-3.811843 -6.65092,-3.967725 -4.21692,-8.317882 0.9574,-1.711588 1.80058,-1.541157 2.07056,-4.022804 0.14433,-1.334353 -0.0353,-2.864078 -0.0415,-4.221294 -0.0114,-2.775745 0.51089,-4.719079 -2.09029,-6.132412 -2.49941,-1.359294 -4.80568,0.131981 -5.8202,-3.239235 -1.06331,-3.53749 0.007,-8.072628 -3.8244,-10.495039 -2.80055,-1.769785 -6.84406,-0.256687 -9.93848,-1.122353 -3.10064,-0.866706 -5.95207,-4.039432 -9.09945,-1.60351 -2.23566,1.731333 -3.42255,5.987961 -7.63531,3.686098 -1.9013,-1.038177 -2.948,-4.523706 -4.14735,-6.478471 -1.91064,-3.115568 -3.44228,-4.241039 -6.38197,-1.206529 -1.812,1.871627 -5.63329,6.427549 -5.86693,9.018314 -0.25648,2.859921 2.23878,4.055019 -0.89406,5.746862 -3.11622,1.68353 -4.86487,0.448942 -7.3944,3.865883 -2.50876,3.389921 -0.56697,5.262588 -3.47343,8.50598 -3.63334,4.053981 -5.56683,5.80402 -5.51595,11.266137 0.0353,3.746373 -3.2751,6.982491 -1.34369,10.536608 2.16402,3.983314 8.47953,5.639824 12.30913,7.261 -1.27826,2.362137 -3.03211,3.876277 -1.53994,6.308037 1.35199,2.2021 5.17328,2.65935 7.54186,2.25926 1.5929,-0.26812 1.65001,-0.027 2.90439,-1.1473 0.82137,-0.73368 -0.30529,-1.64923 1.38626,-2.05557 1.80057,-0.43439 4.67589,3.09479 5.84512,3.97708 -2.6126,3.39096 -9.78895,4.02488 -13.58531,5.74375 -2.31355,1.04857 -4.44018,2.59908 -6.7963,3.53645 -2.13701,0.85008 -4.73819,0.65263 -6.67583,1.96827 -3.34675,2.27173 -4.73924,7.90012 -6.79007,11.20898 -2.32185,3.74534 -4.57308,5.48498 -9.0278,6.26232 -5.55748,0.96959 -10.03296,1.35929 -15.21559,3.77962 -6.32901,2.95554 -12.56769,6.0763 -18.78352,9.26254 -10.02673,5.13892 -19.34009,10.41398 -28.65034,16.62953 -9.74014,6.50341 -19.21445,13.29157 -28.61192,20.087 -9.2957,6.7206 -17.10028,14.9886 -25.17483,23.11631 -6.52735,6.56992 -12.25513,13.66153 -18.75756,20.22937 -7.67581,7.75567 -13.32156,17.54404 -20.43871,25.77151 -3.89398,4.50085 -7.61974,8.92687 -10.06308,14.22894 -1.98022,4.2982 -5.42354,8.51534 -7.72254,13.02449 -2.93762,5.76557 -5.7174,11.43865 -9.01534,17.01301 -1.35303,2.28731 -2.96151,4.25039 -4.3893,6.43378 -1.82965,2.79653 -1.72166,5.49745 -2.21385,8.7211 -0.51401,-0.78669 -1.02698,-1.57338 -1.54098,-2.35902 -0.93144,2.03478 -2.0581,4.03631 -2.86493,6.11994 -0.51505,1.32916 -0.43405,3.21637 -0.95117,4.37925 -0.649,1.4601 -1.43922,1.26577 -2.24813,2.48165 -0.86498,1.30006 -1.14327,3.04698 -2.05498,4.44161 -3.9407,6.02745 -5.45676,13.67608 -7.48163,20.55361 -2.71644,9.22719 -2.28758,19.83239 -2.14013,29.34641 0.1568,10.04921 0.70611,20.09843 2.21697,30.04164 1.36861,9.00481 4.2948,17.64173 8.8762,25.53769 3.99159,6.87961 9.49611,10.8889 16.54681,14.41288 3.23772,1.61806 6.24283,1.1182 9.64149,1.37696 3.72265,0.28267 6.26152,1.29383 10.20015,0.40426 1.88988,-0.42712 2.78394,-1.80304 4.28546,-2.26133 0.92936,-0.28371 1.42987,0.17978 2.32185,0.0717 1.27618,-0.15484 3.93032,-0.78045 5.3145,-0.62976 4.30622,0.46972 3.5835,6.98041 4.00716,10.30382 0.65211,5.12125 1.12978,10.29655 2.0093,15.38455 1.84938,10.70184 5.842,20.6991 8.20124,31.21596 -10.93637,1.33435 -20.31723,3.37537 -30.56722,7.51457 -10.28322,4.15167 -20.67963,5.56084 -31.50177,7.62472 -10.12435,1.93087 -19.86241,5.53902 -27.96604,12.07569 -3.79845,3.06257 -7.74435,6.64682 -4.95522,11.69014 1.78396,3.22572 4.99883,4.04566 7.77446,5.92041 0.56073,-0.70979 -1.06124,-2.21353 -1.35822,-2.63026 2.33327,0.47908 2.26162,1.56818 3.96563,2.51595 1.48906,0.82825 2.70813,0.79915 4.33841,1.38423 3.98017,1.42996 5.93546,4.99759 9.86994,5.99939 1.23777,0.31489 2.85662,1.06832 4.12242,1.2824 1.52021,0.25668 2.65829,-0.40842 4.19927,-0.12679 0.83176,0.54767 1.73101,0.93945 2.69775,1.17432 0.63342,-0.2941 1.25957,-0.60483 1.87638,-0.93218 2.21386,0.22966 3.58142,1.62221 5.37992,2.76639 0.12045,-1.44139 -0.053,-2.9389 1.31149,-3.87939 0.5327,1.4019 -0.32813,2.28939 1.12562,3.25378 1.84211,1.22316 4.26157,-0.30345 5.91054,-1.07662 0.46624,4.6588 11.25308,4.38445 14.67252,4.31794 4.73508,-0.0915 9.46496,-1.97036 14.24158,-0.92179 2.43711,0.53416 5.03829,1.09222 7.46397,1.78641 2.92101,0.83449 6.45259,1.58065 9.3279,2.63338 1.14327,0.4188 2.54407,1.76043 3.76107,1.67002 0.96882,-0.0728 1.22842,-1.50167 2.35611,-1.46114 1.27619,0.0468 1.70505,1.46841 2.8099,1.89657 1.65312,0.63911 3.17333,-0.57677 4.74442,0.0374 0.56489,0.22031 1.33019,1.16704 2.05291,1.47569 1.09758,0.46764 3.26886,0.47388 4.49002,0.69939 1.731,0.32111 3.28132,0.10496 4.76415,0.21096 1.19623,0.0862 1.17027,0.89061 1.74243,0.94257 0.65626,0.0592 1.79953,-2.19794 2.68113,-2.52842 1.28449,-0.48219 3.61569,0.66614 4.9251,0.86775 -9.48884,12.86237 -20.92987,24.23035 -33.33142,34.18396 -13.37763,10.73822 -27.07613,21.46188 -41.42155,30.88029 -13.02458,8.55171 -25.63277,15.94781 -35.73115,28.01934 -8.51484,10.17912 -22.069,21.0701 -19.97975,35.82384 2.08821,14.74128 18.09506,20.74067 30.92131,23.55486 16.13146,3.53957 32.73746,2.11481 48.91253,4.10491 6.89805,0.84904 14.56244,0.39594 21.50619,-0.32736 8.20124,-0.85423 15.23013,-6.20619 22.28083,-10.07623 12.68191,-6.96171 23.52482,-16.2762 36.01671,-23.4551 15.64029,-8.98922 31.11652,-18.51363 48.26353,-24.5338 7.97695,-2.80069 16.18961,-5.99732 22.62454,-11.75769 0.9574,-0.85735 1.67077,-2.15118 2.75278,-2.85784 1.839,-1.2003 2.33223,0.0166 3.3997,-0.3471 0.82137,-0.27955 1.61678,-1.16704 2.32705,-1.43308 1.79953,-0.67445 2.60221,-0.39594 4.6167,-0.39594 -1.72893,-0.99661 -3.31144,-3.56659 -1.5171,-5.66061 3.07261,-3.58737 3.60219,2.14494 4.75689,3.47306 0.97817,-1.25745 0.60331,-2.37669 0.35305,-3.80561 0.82657,0.54559 1.65416,1.09118 2.48176,1.63781 -0.57007,-2.76536 -0.028,-5.31247 1.43714,-7.72242 1.35095,-2.2208 1.68428,-1.90799 2.05706,-4.98615 4.19615,3.83055 5.01649,-5.46732 5.39446,-8.85724 0.36552,-3.28704 0.004,-5.64709 2.16609,-8.52157 2.32081,-3.08647 5.85032,-5.03707 8.79624,-7.43454 4.65408,-3.78899 9.77441,-8.57354 16.21038,-4.94044 5.08086,2.86928 7.84507,9.90165 12.61234,13.515 2.89088,2.19275 5.94273,2.4141 7.78588,5.81338 1.49009,2.74768 1.97398,6.0368 3.38101,8.85827 3.40801,6.83908 8.31442,14.66541 13.91137,19.91137 5.20962,4.88328 11.89792,4.85834 17.99434,7.88661 6.03514,2.99918 12.30601,6.24777 18.69525,8.42077 6.97697,2.37356 14.50118,3.38264 21.29435,6.25815 3.4942,1.47985 6.61873,3.70688 10.14408,5.12334 3.80156,1.5266 7.80665,2.60323 11.65909,4.00202 15.26336,5.54421 30.20066,12.34276 46.23555,15.41572 7.11196,1.36241 13.69642,5.06514 20.86031,5.84455 3.07261,0.33463 5.57929,0.75759 8.58648,1.52661 4.71742,1.20549 3.71849,1.84668 5.45676,5.78012 2.8587,6.47535 9.84087,2.64064 15.22286,2.80276 8.61452,0.2598 17.09821,-1.13275 25.69923,-1.19926 15.04218,-0.11535 29.5257,-1.81031 44.07672,-6.74866 14.60814,-4.9581 31.2401,-16.90596 19.09919,-33.4139"
       id="react-path-64"
       inkscape:connector-curvature="0"
       style="fill:#000000;fill-rule:evenodd;stroke:none;stroke-width:1" />
    <path
       d="m 631.32134,169.39798 c 0.206,0.206 0.689,0.331 0,0"
       id="react-path-65"
       inkscape:connector-curvature="0"
       style="fill:#000000;fill-rule:evenodd;stroke:none;stroke-width:1" />
    <path
       d="m 366.36276,445.19562 c 3.26741,-3.31049 17.16746,-2.64167 18.21803,3.28108 1.17139,6.61047 -11.24906,16.59547 -15.79435,19.39463 -5.8498,3.60237 -12.98977,4.27748 -11.95251,-4.76781 0.78434,-6.83201 4.87705,-13.19364 9.52883,-17.9079 m 11.47945,-6.81521 c 0.42391,1.83111 -2.70014,1.20849 -3.56026,0.77381 -0.40548,-0.83261 3.13634,-2.61227 3.56026,-0.77381 m -23.97055,12.12269 c 2.77284,0.24884 5.94912,-4.19874 8.04104,-5.71381 0.92462,1.42898 -5.17195,9.28363 -5.84263,11.07589 -1.67518,4.47803 -2.60697,10.13619 -0.32357,14.60267 6.67407,13.05294 23.7545,-5.58677 28.0264,-12.09749 2.98889,-4.55363 5.05828,-10.20024 0.83656,-14.66252 -1.50315,-1.58962 -3.98622,-2.03059 -5.38288,-3.54147 -1.83798,-1.9865 -0.39115,-4.55152 -4.08656,-4.11789 -2.54963,0.29923 -5.61122,2.59967 -8.09019,3.43228 -2.98787,1.00269 -5.67368,2.04214 -8.28167,3.90055 -0.58774,0.41893 -8.3216,6.81416 -4.8965,7.12179"
       id="react-path-66"
       inkscape:connector-curvature="0"
       style="fill:#000000;fill-rule:evenodd;stroke:none;stroke-width:1" />
    <path
       d="m 549.8197,454.88418 c -1.74245,8.9683 -10.62903,18.16752 -19.97951,18.52488 -9.31208,0.35526 -12.32686,-9.40089 -10.683,-17.17697 1.40205,-6.63192 7.13376,-18.15393 15.31153,-16.88439 6.42911,0.99683 16.84436,7.84922 15.35098,15.53648 m -5.92993,-14.98896 c -5.90398,-4.56826 -14.061,-6.68208 -20.90418,-3.05735 -2.2437,1.18804 -11.19982,6.43026 -8.47458,9.97871 3.67481,-2.84733 6.84733,-6.79911 11.6222,-7.74682 -0.80325,3.70205 -5.38924,7.03211 -7.00508,10.63699 -1.88878,4.21091 -2.92241,9.03099 -2.61315,13.65881 0.55106,8.23688 6.06795,14.63684 14.60895,13.50417 7.81974,-1.03653 14.65566,-7.03002 18.38651,-13.76748 4.98034,-8.99756 2.17416,-17.17592 -5.62067,-23.20703"
       id="react-path-67"
       inkscape:connector-curvature="0"
       style="fill:#000000;fill-rule:evenodd;stroke:none;stroke-width:1" />
    <path
       d="m 489.06173,475.26979 c -4.20412,6.22465 -10.61403,12.07946 -18.02517,14.00187 -9.59433,2.48801 -6.89871,-5.44065 -4.03161,-11.13062 2.53542,-5.03062 6.88434,-13.68456 13.50682,-13.63839 2.24788,0.0146 6.43455,1.10151 8.40414,2.30379 3.88271,2.36953 2.35879,5.18824 0.14582,8.46335 m -8.95456,-13.67941 c 1.50851,-1.68031 8.1885,-8.88472 9.08395,-3.26893 1.91825,-2.22427 0.4046,-4.06941 -2.05072,-4.3043 -2.9626,-0.28332 -6.20144,3.01548 -8.33945,4.65458 -4.40027,3.37195 -7.78698,6.82528 -10.70338,11.55301 -3.2142,5.21194 -11.41194,16.99161 -4.23801,22.16337 7.75412,5.59003 19.04077,-4.73391 23.89596,-10.05815 3.10534,-3.40594 7.21808,-8.40669 6.03714,-13.40125 -1.44998,-6.13399 -8.58488,-6.77789 -13.68549,-7.33833"
       id="react-path-68"
       inkscape:connector-curvature="0"
       style="fill:#000000;fill-rule:evenodd;stroke:none;stroke-width:1" />
    <path
       d="m 447.0213,361.27884 c -4.33934,4.95096 -13.15329,12.16439 -20.41628,11.31443 -6.62436,-0.77504 -4.03838,-8.2102 -1.69358,-11.80819 3.52138,-5.40776 8.23929,-10.48499 15.0566,-10.78063 2.94253,-0.12729 6.75649,-0.0677 9.03626,2.16085 3.11241,3.04366 0.30936,6.49897 -1.983,9.11354 m -0.46141,-13.75449 c -5.08284,-1.75639 -7.07948,-2.42569 -12.01969,0.36648 -3.96707,2.24194 -7.48531,5.41084 -10.20762,9.00883 -4.07403,5.38621 -8.18266,17.50133 2.27873,19.01649 11.47439,1.66298 38.76985,-21.88462 19.94858,-28.3918"
       id="react-path-69"
       inkscape:connector-curvature="0"
       style="fill:#000000;fill-rule:evenodd;stroke:none;stroke-width:1" />
    <path
       d="m 462.19957,378.43426 c -3.30057,3.37206 -7.42165,6.12304 -12.12542,7.06182 1.99002,-4.43956 6.43333,-14.13998 11.70127,-15.49146 2.42652,-0.62313 5.19381,0.19307 4.99409,2.95834 -0.14413,1.99913 -3.26762,4.14025 -4.56994,5.4713 m 4.24977,-11.73633 c -2.73332,-1.36986 -1.87163,-2.30558 -5.05175,-1.23094 -2.50579,0.84583 -5.66635,2.31478 -7.75314,4.00746 -1.13863,0.92346 -4.68319,4.19745 -4.24977,5.86356 0.78654,3.02781 3.43029,-1.61197 4.1252,-2.50376 1.19113,0.97045 -4.89938,9.68612 -5.26177,11.12035 -1.3507,5.34156 2.84142,5.90647 6.95117,4.15864 5.54076,-2.35565 21.94992,-16.04922 11.24006,-21.41531"
       id="react-path-70"
       inkscape:connector-curvature="0"
       style="fill:#000000;fill-rule:evenodd;stroke:none;stroke-width:1" />
    <path
       d="m 547.69264,510.42804 c 0.40941,-3.54082 0.99026,-7.28488 4.24038,-9.27298 2.92844,-1.79311 5.96075,-1.53312 6.39437,2.14285 0.40336,3.41392 -2.94155,9.47726 -5.64713,11.33949 -3.76744,2.59371 -4.4935,-0.63966 -4.98762,-4.20936 m 4.84039,8.05763 c 7.73455,-4.5261 12.61024,-25.283 -1.64775,-19.46521 -8.10262,3.30559 -5.12275,23.42696 1.64775,19.46521"
       id="react-path-71"
       inkscape:connector-curvature="0"
       style="fill:#000000;fill-rule:evenodd;stroke:none;stroke-width:1" />
    <path
       d="m 486.47334,432.41112 c 1.21974,-2.50032 2.61491,-3.32949 5.08845,-4.42365 -1.64902,1.55683 -3.33417,2.99505 -5.08845,4.42365 m 1.78421,-6.16105 c -1.75118,1.7577 -5.76642,4.43754 -5.20402,7.45715 0.5139,2.7557 2.618,2.59756 4.52707,1.73848 4.00389,-1.79938 6.23183,-9.6786 10.4194,-10.41694 -4.64472,-2.94375 -5.72927,-2.80699 -9.74245,1.22131"
       id="react-path-72"
       inkscape:connector-curvature="0"
       style="fill:#000000;fill-rule:evenodd;stroke:none;stroke-width:1" />
    <path
       d="m 488.87304,269.76888 c 0.22279,8.39102 0.41902,16.78101 0.604,25.17203 0.0654,2.94932 -0.63875,7.15314 0.2463,9.97784 0.39041,1.24411 3.92449,6.63804 5.17848,6.98698 4.38745,1.22126 2.8197,-9.77741 2.85036,-12.4858 0.10731,-9.13666 -0.0276,-18.28371 -0.0644,-27.4214 -0.0204,-4.70853 1.30918,-44.19098 -4.80034,-43.99853 -1.05266,0.0339 -3.64548,4.54827 -4.03588,5.45279 -1.22743,2.84236 -0.7757,7.05552 -0.74709,10.08481 0.0828,8.73995 0.53655,17.49237 0.76855,26.23128"
       id="react-path-73"
       inkscape:connector-curvature="0"
       style="fill:#000000;fill-rule:evenodd;stroke:none;stroke-width:1" />
    <path
       d="m 525.86588,294.22888 c 0.34403,2.31966 0.16331,6.18855 2.77503,7.39119 2.27206,1.04604 3.143,-0.19835 3.99325,-2.1422 1.95417,-4.47229 1.24871,-11.30915 1.21278,-15.93282 -0.0718,-9.16382 -1.10391,-18.28902 -1.81699,-27.4184 -0.31354,-4.00565 0.33749,-8.02904 -0.1633,-12.22052 -0.21991,-1.83945 -0.43874,-9.23899 -3.84846,-8.89448 -3.08312,0.31109 -2.80551,8.06663 -2.97316,10.06475 -1.39786,16.63332 -1.64063,32.54839 0.82085,49.15248"
       id="react-path-74"
       inkscape:connector-curvature="0"
       style="fill:#000000;fill-rule:evenodd;stroke:none;stroke-width:1" />
    <path
       d="m 671.38614,485.23883 c -1.30681,6.68044 -22.62585,29.94361 -27.99427,16.9327 -3.18452,-7.71905 3.71908,-16.12261 9.10203,-20.59099 3.33191,-2.76585 7.4942,-5.4792 12.03536,-4.64131 3.85505,0.71127 7.68623,4.05664 6.85688,8.2996 m -11.00879,-11.98259 c -1.50611,0.35615 -14.09263,9.19409 -14.20785,9.07778 -1.09299,-1.09728 6.84547,-12.92959 7.66236,-13.96511 6.73025,-8.52708 11.19666,-2.07001 15.40567,4.63205 -0.89578,-4.00312 -3.36201,-9.81479 -7.48279,-11.50807 -5.20234,-2.13691 -9.26084,3.13848 -11.7634,6.93161 -3.53847,5.36082 -5.48883,11.18176 -7.45476,17.23121 -0.9373,2.88525 -2.00538,5.50081 -3.59244,8.10197 -1.56735,2.56718 -4.30865,5.39685 -3.90384,8.64443 2.2275,-1.2383 3.4108,-3.66241 4.81414,-5.65934 1.56527,0.63408 1.0276,5.6264 1.34522,6.89764 0.79924,3.19302 2.98108,5.69124 6.35554,6.24091 6.28911,1.02317 13.07749,-4.79571 17.28234,-8.74737 4.43113,-4.16369 9.20064,-9.87243 9.16246,-16.28113 -0.0407,-6.69588 -6.62564,-13.2528 -13.62265,-11.59658"
       id="react-path-75"
       inkscape:connector-curvature="0"
       style="fill:#000000;fill-rule:evenodd;stroke:none;stroke-width:1" />
    <path
       d="m 677.42697,365.91293 c -3.56824,5.46091 -9.82935,12.00752 -16.45417,13.27609 -4.86279,0.93105 -8.0704,-2.67298 -6.11728,-7.53827 1.65005,-4.11187 7.2721,-6.70857 10.95747,-8.51738 2.92301,-1.43576 16.55177,-4.77751 11.61398,2.77956 m -2.62507,-8.93222 c -7.30908,-0.27587 -13.20443,5.00844 -18.65491,9.22586 1.23086,-4.84439 4.01517,-10.11512 7.93582,-13.26877 5.3354,-4.29161 10.3934,-1.62699 16.01032,0.51934 -1.38599,-4.37312 -7.60601,-5.94577 -11.56878,-5.3282 -5.01074,0.78162 -8.61288,5.0586 -11.1465,9.1966 -3.02165,4.93634 -4.05627,10.75358 -7.6132,15.38375 -1.62847,2.11915 -11.71364,10.04928 -9.42969,13.29071 3.76653,-3.99902 7.53409,-7.997 11.30062,-11.99602 0.97708,4.72631 2.05382,10.1078 8.08787,9.64802 4.81861,-0.36782 10.3143,-4.46403 13.83835,-7.59469 4.55046,-4.04396 13.5065,-18.61265 1.2401,-19.0766"
       id="react-path-76"
       inkscape:connector-curvature="0"
       style="fill:#000000;fill-rule:evenodd;stroke:none;stroke-width:1" />
    <path
       d="m 572.41392,403.61059 c -3.09617,1.42376 -9.91166,3.35875 -11.64309,-0.91875 -2.40504,-5.94081 5.33333,-16.36132 9.0166,-20.31944 2.26599,-2.43584 3.80275,-3.69576 6.96175,-2.11957 2.52144,1.25889 6.22737,4.8354 7.19453,7.58544 2.07751,5.90244 -6.68674,13.54491 -11.52979,15.77232 m 7.10389,-28.53224 c 2.52144,0.56826 2.83044,3.77043 -0.32239,2.54058 -2.36281,-0.92083 -2.9118,-3.26957 0.32239,-2.54058 m 3.16519,4.50979 c -0.94142,-2.87241 0.97437,-7.37701 -3.66268,-7.5844 -2.62752,-0.11718 -7.4407,2.55405 -9.7345,3.63976 -3.1796,1.50465 -6.17175,3.80154 -7.8321,7.03688 -1.53779,2.99685 -0.43981,3.78702 1.90446,1.29933 0.28634,0.19495 -5.30242,14.60884 -5.35083,16.05334 -0.21836,6.60031 4.45371,10.94729 11.01582,9.77655 6.03063,-1.07534 11.46593,-6.00717 14.78458,-10.98462 1.6789,-2.51984 3.05807,-5.40366 3.18373,-8.48968 0.19363,-4.73377 -2.96228,-6.63661 -4.30848,-10.74716"
       id="react-path-77"
       inkscape:connector-curvature="0"
       style="fill:#000000;fill-rule:evenodd;stroke:none;stroke-width:1" />
    <path
       d="m 611.61078,377.16693 c -2.54434,-4.90034 3.35159,-13.14672 8.63034,-10.73453 10.99179,5.02274 -5.29203,17.15963 -8.63034,10.73453 z m 9.87391,-6.39661 c -1.17919,0.0475 -8.63648,2.92817 -7.53904,4.88029 1.50618,2.67915 6.94944,-3.80294 7.53904,-4.88029 z"
       id="react-path-78"
       inkscape:connector-curvature="0"
       style="fill:#000000;fill-rule:evenodd;stroke:none;stroke-width:1" />
    <path
       d="m 260.94578,361.71267 c -0.29472,-2.08723 -4.97308,0.94297 -4.94566,2.28733 0.77352,-1.54805 5.55958,2.06207 4.94566,-2.28733"
       id="react-path-79"
       inkscape:connector-curvature="0"
       style="fill:#000000;fill-rule:evenodd;stroke:none;stroke-width:1" />
    <path
       d="m 516.80584,203.99529 c 5.95594,-0.43783 -1.63249,-30.48633 -5.97324,-27.82891 -4.70511,2.88001 0.50787,28.22999 5.97324,27.82891"
       id="react-path-80"
       inkscape:connector-curvature="0"
       style="fill:#000000;fill-rule:evenodd;stroke:none;stroke-width:1" />
    <path
       d="m 527.92882,189.96417 c 5.58009,0.7992 4.69336,-12.01404 1.69196,-14.30715 -5.53988,-4.23313 -8.4663,13.33663 -1.69196,14.30715"
       id="react-path-81"
       inkscape:connector-curvature="0"
       style="fill:#000000;fill-rule:evenodd;stroke:none;stroke-width:1" />
    <path
       inkscape:connector-curvature="0"
       id="path907"
       d="m 346.57627,537.76271 21.9661,1.62712 10.57627,-8.13559 18.71187,6.50847 74.84746,21.9661 24.40678,27.66102 40.67796,-16.27119 29.28814,-6.50847 41.8983,-32.74576 9.66102,8.33898 61.36289,-0.0116 26.46257,-31.06476 10.31013,-30.95752 5.89831,-32.54237 1.83051,-41.89831 -2.0339,-44.94915 -4.67797,-22.98305 -13.22034,-26.84746 -33.35593,-12.40678 -39.05085,10.37288 -43.72881,30.30509 -57.55932,12.61017 -37.01695,-1.01695 -24.20339,-9.9661 -26.44068,-17.89831 -39.05085,-21.9661 -25.42372,-7.72881 -39.45763,5.8983 c 0,0 -9.35593,7.11865 -10.16949,8.54237 -0.81356,1.42373 -12.20339,15.86441 -12.20339,15.86441 l -4.67797,11.18644 -7.11864,54.30509 4.47457,50.0339 4.88136,37.22033 17.49152,52.0678 z"
       style="fill:#000000;fill-opacity:0;stroke:#000000;stroke-width:1px;stroke-linecap:butt;stroke-linejoin:miter;stroke-opacity:1" />
    <path
       style="color:#000000;font-style:normal;font-variant:normal;font-weight:normal;font-stretch:normal;font-size:medium;line-height:normal;font-family:sans-serif;font-variant-ligatures:normal;font-variant-position:normal;font-variant-caps:normal;font-variant-numeric:normal;font-variant-alternates:normal;font-feature-settings:normal;text-indent:0;text-align:start;text-decoration:none;text-decoration-line:none;text-decoration-style:solid;text-decoration-color:#000000;letter-spacing:normal;word-spacing:normal;text-transform:none;writing-mode:lr-tb;direction:ltr;text-orientation:mixed;dominant-baseline:auto;baseline-shift:baseline;text-anchor:start;white-space:normal;shape-padding:0;clip-rule:nonzero;display:inline;overflow:visible;visibility:visible;opacity:1;isolation:auto;mix-blend-mode:normal;color-interpolation:sRGB;color-interpolation-filters:linearRGB;solid-color:#000000;solid-opacity:1;vector-effect:none;fill:#009944;fill-opacity:1;fill-rule:nonzero;stroke:none;stroke-width:7.45223093;stroke-linecap:round;stroke-linejoin:miter;stroke-miterlimit:4;stroke-dasharray:none;stroke-dashoffset:0;stroke-opacity:1;color-rendering:auto;image-rendering:auto;shape-rendering:auto;text-rendering:auto;enable-background:accumulate"
       d="m 506.37657,101.05894 c -0.44636,0.002 -0.73422,0.13197 -1.05671,0.16447 -0.39439,0.0397 -0.64836,0.10421 -0.94171,0.16156 -0.31115,-0.0491 -1.03183,-0.22807 -2.26624,0.1834 -1.34898,0.44965 -4.68358,-0.13527 -8.68214,1.62435 a 3.7264882,3.7264882 0 1 0 3.00127,6.82054 c 1.15137,-0.50668 3.81133,-0.1907 7.31832,-1.19498 0.30161,0.0574 0.83275,0.1506 1.83686,-0.10043 -0.0146,0.004 0.18686,-0.0312 0.3435,-0.0568 -0.1493,-0.0257 -0.2979,-0.0442 -0.87622,-0.33332 0.57681,0.28842 0.71565,0.27964 0.93153,0.32312 0.0358,-0.005 0.0548,-0.0102 0.083,-0.0131 0.0446,-0.004 0.0342,0.0329 0.0611,0.064 0.0485,0.01 0.15533,0.0592 0.20959,0.0728 0.33274,0.083 0.66836,0.15352 1.0043,0.21832 0.6719,0.12961 0.79905,0.26491 2.05519,0.26491 a 3.7264882,3.7264882 0 1 0 0,-7.45223 c 0.84792,0 -0.17263,-0.0387 -0.64333,-0.12955 -0.23536,-0.0454 -0.46981,-0.0971 -0.61132,-0.13245 -0.14151,-0.0353 -0.3643,-0.18361 0.24161,0.11936 -0.95732,-0.47867 -1.56224,-0.6057 -2.0086,-0.60404 z"
       id="path909"
       inkscape:connector-curvature="0" />
  </g>
</svg>
