<?xml version="1.0" encoding="UTF-8" standalone="no"?>
<!-- Created with Inkscape (http://www.inkscape.org/) -->

<svg
   xmlns:dc="http://purl.org/dc/elements/1.1/"
   xmlns:cc="http://creativecommons.org/ns#"
   xmlns:rdf="http://www.w3.org/1999/02/22-rdf-syntax-ns#"
   xmlns:svg="http://www.w3.org/2000/svg"
   xmlns="http://www.w3.org/2000/svg"
   xmlns:sodipodi="http://sodipodi.sourceforge.net/DTD/sodipodi-0.dtd"
   xmlns:inkscape="http://www.inkscape.org/namespaces/inkscape"
   width="285.75015mm"
   height="285.75006mm"
   viewBox="0 0 285.75015 285.75006"
   version="1.1"
   id="svg1898"
   inkscape:version="0.92.4 5da689c313, 2019-01-14"
   sodipodi:docname="logo - litbang.svg">
  <defs
     id="defs1892">
    <filter
       style="color-interpolation-filters:sRGB"
       inkscape:label="Drop Shadow"
       id="filter1342-5-6">
      <feFlood
         flood-opacity="0.435294"
         flood-color="rgb(0,0,0)"
         result="flood"
         id="feFlood1332-4-8" />
      <feComposite
         in="flood"
         in2="SourceGraphic"
         operator="in"
         result="composite1"
         id="feComposite1334-81-4" />
      <feGaussianBlur
         in="composite1"
         stdDeviation="15.0428"
         result="blur"
         id="feGaussianBlur1336-2-0" />
      <feOffset
         dx="6.7"
         dy="6.7"
         result="offset"
         id="feOffset1338-8-0" />
      <feComposite
         in="SourceGraphic"
         in2="offset"
         operator="over"
         result="composite2"
         id="feComposite1340-9-7" />
    </filter>
    <filter
       style="color-interpolation-filters:sRGB"
       inkscape:label="Drop Shadow"
       id="filter1342-3-0">
      <feFlood
         flood-opacity="0.435294"
         flood-color="rgb(0,0,0)"
         result="flood"
         id="feFlood1332-8-6" />
      <feComposite
         in="flood"
         in2="SourceGraphic"
         operator="in"
         result="composite1"
         id="feComposite1334-8-1" />
      <feGaussianBlur
         in="composite1"
         stdDeviation="15.0428"
         result="blur"
         id="feGaussianBlur1336-3-8" />
      <feOffset
         dx="6.7"
         dy="6.7"
         result="offset"
         id="feOffset1338-1-0" />
      <feComposite
         in="SourceGraphic"
         in2="offset"
         operator="over"
         result="composite2"
         id="feComposite1340-8-9" />
    </filter>
    <filter
       style="color-interpolation-filters:sRGB"
       inkscape:label="Drop Shadow"
       id="filter1798">
      <feFlood
         flood-opacity="0.435294"
         flood-color="rgb(0,0,0)"
         result="flood"
         id="feFlood1788" />
      <feComposite
         in="flood"
         in2="SourceGraphic"
         operator="in"
         result="composite1"
         id="feComposite1790" />
      <feGaussianBlur
         in="composite1"
         stdDeviation="15.0428"
         result="blur"
         id="feGaussianBlur1792" />
      <feOffset
         dx="6.7"
         dy="6.7"
         result="offset"
         id="feOffset1794" />
      <feComposite
         in="SourceGraphic"
         in2="offset"
         operator="over"
         result="composite2"
         id="feComposite1796" />
    </filter>
    <filter
       style="color-interpolation-filters:sRGB"
       inkscape:label="Drop Shadow"
       id="filter1810">
      <feFlood
         flood-opacity="0.435294"
         flood-color="rgb(0,0,0)"
         result="flood"
         id="feFlood1800" />
      <feComposite
         in="flood"
         in2="SourceGraphic"
         operator="in"
         result="composite1"
         id="feComposite1802" />
      <feGaussianBlur
         in="composite1"
         stdDeviation="15.0428"
         result="blur"
         id="feGaussianBlur1804" />
      <feOffset
         dx="6.7"
         dy="6.7"
         result="offset"
         id="feOffset1806" />
      <feComposite
         in="SourceGraphic"
         in2="offset"
         operator="over"
         result="composite2"
         id="feComposite1808" />
    </filter>
    <filter
       style="color-interpolation-filters:sRGB"
       inkscape:label="Drop Shadow"
       id="filter1822">
      <feFlood
         flood-opacity="0.435294"
         flood-color="rgb(0,0,0)"
         result="flood"
         id="feFlood1812" />
      <feComposite
         in="flood"
         in2="SourceGraphic"
         operator="in"
         result="composite1"
         id="feComposite1814" />
      <feGaussianBlur
         in="composite1"
         stdDeviation="15.0428"
         result="blur"
         id="feGaussianBlur1816" />
      <feOffset
         dx="6.7"
         dy="6.7"
         result="offset"
         id="feOffset1818" />
      <feComposite
         in="SourceGraphic"
         in2="offset"
         operator="over"
         result="composite2"
         id="feComposite1820" />
    </filter>
    <filter
       style="color-interpolation-filters:sRGB"
       inkscape:label="Drop Shadow"
       id="filter1342-5">
      <feFlood
         flood-opacity="0.435294"
         flood-color="rgb(0,0,0)"
         result="flood"
         id="feFlood1332-4" />
      <feComposite
         in="flood"
         in2="SourceGraphic"
         operator="in"
         result="composite1"
         id="feComposite1334-81" />
      <feGaussianBlur
         in="composite1"
         stdDeviation="15.0428"
         result="blur"
         id="feGaussianBlur1336-2" />
      <feOffset
         dx="6.7"
         dy="6.7"
         result="offset"
         id="feOffset1338-8" />
      <feComposite
         in="SourceGraphic"
         in2="offset"
         operator="over"
         result="composite2"
         id="feComposite1340-9" />
    </filter>
    <filter
       style="color-interpolation-filters:sRGB"
       inkscape:label="Drop Shadow"
       id="filter1342-5-8">
      <feFlood
         flood-opacity="0.435294"
         flood-color="rgb(0,0,0)"
         result="flood"
         id="feFlood1332-4-9" />
      <feComposite
         in="flood"
         in2="SourceGraphic"
         operator="in"
         result="composite1"
         id="feComposite1334-81-7" />
      <feGaussianBlur
         in="composite1"
         stdDeviation="15.0428"
         result="blur"
         id="feGaussianBlur1336-2-7" />
      <feOffset
         dx="6.7"
         dy="6.7"
         result="offset"
         id="feOffset1338-8-6" />
      <feComposite
         in="SourceGraphic"
         in2="offset"
         operator="over"
         result="composite2"
         id="feComposite1340-9-4" />
    </filter>
  </defs>
  <sodipodi:namedview
     id="base"
     pagecolor="#ffffff"
     bordercolor="#666666"
     borderopacity="1.0"
     inkscape:pageopacity="0.0"
     inkscape:pageshadow="2"
     inkscape:zoom="0.056568542"
     inkscape:cx="4648.7555"
     inkscape:cy="-218.26183"
     inkscape:document-units="mm"
     inkscape:current-layer="layer1"
     showgrid="false"
     fit-margin-top="0"
     fit-margin-left="0"
     fit-margin-right="0"
     fit-margin-bottom="0"
     inkscape:window-width="1280"
     inkscape:window-height="665"
     inkscape:window-x="0"
     inkscape:window-y="0"
     inkscape:window-maximized="1" />
  <metadata
     id="metadata1895">
    <rdf:RDF>
      <cc:Work
         rdf:about="">
        <dc:format>image/svg+xml</dc:format>
        <dc:type
           rdf:resource="http://purl.org/dc/dcmitype/StillImage" />
        <dc:title></dc:title>
      </cc:Work>
    </rdf:RDF>
  </metadata>
  <g
     inkscape:label="Layer 1"
     inkscape:groupmode="layer"
     id="layer1"
     transform="translate(-98.943875,87.991773)">
    <g
       id="g3029"
       transform="matrix(7.8378894,0,0,7.8378894,-676.56768,-1380.0633)">
      <g
         transform="matrix(0.19028579,0,0,0.19028579,291.03883,422.12534)"
         id="g2435">
        <rect
           transform="matrix(0.59112876,0,0,0.59112876,-727.00466,-916.66679)"
           ry="47.95573"
           y="-736.52869"
           x="-477.90363"
           height="324.11459"
           width="324.11459"
           id="rect2431"
           style="opacity:1;fill:#f9f9f9;fill-opacity:1;stroke:none;stroke-width:1.05833328;stroke-linecap:round;stroke-linejoin:miter;stroke-miterlimit:4;stroke-dasharray:none;stroke-dashoffset:0;stroke-opacity:1" />
        <rect
           style="opacity:1;fill:#ffffff;fill-opacity:1;stroke:none;stroke-width:0.62561125;stroke-linecap:round;stroke-linejoin:miter;stroke-miterlimit:4;stroke-dasharray:none;stroke-dashoffset:0;stroke-opacity:1"
           id="rect2433"
           width="191.59346"
           height="191.59346"
           x="-1009.5073"
           y="-1352.05"
           ry="28.348011" />
      </g>
      <g
         id="g2441"
         transform="matrix(0.16261939,0,0,0.16261939,166.39063,234.63555)">
        <path
           id="path2437"
           transform="scale(0.26458333)"
           d="m -1458.668,-1442.4727 c -21.494,0 -39.205,17.7111 -39.205,39.2051 0,21.494 17.711,39.1973 39.205,39.1973 7.3461,0 14.2472,-2.0699 20.1524,-5.6504 a 13.215097,13.215097 0 0 0 1.1211,1.0078 l 116.789,94.1992 a 13.215097,13.215097 0 0 0 8.2891,2.9317 h 30.0293 a 139.22766,139.22766 0 0 1 5.4336,-26.4278 h -30.7969 l -113.1562,-91.2773 a 13.215097,13.215097 0 0 0 -0.9981,-0.7481 c 1.5063,-4.1421 2.334,-8.5984 2.334,-13.2324 0,-21.494 -17.7032,-39.2051 -39.1973,-39.2051 z m 629.54105,0 c -21.49403,0 -39.20508,17.7111 -39.20508,39.2051 0,4.6376 0.82876,9.0973 2.33789,13.2422 a 13.215097,13.215097 0 0 0 -1.00195,0.7383 l -113.15625,91.2773 h -30.84966 a 139.22766,139.22766 0 0 1 5.4454,26.4278 h 30.07027 a 13.215097,13.215097 0 0 0 8.29688,-2.9317 l 116.78906,-94.1992 a 13.215097,13.215097 0 0 0 1.12891,-1.0039 c 5.90432,3.5771 12.80214,5.6465 20.14453,5.6465 21.49406,0 39.19922,-17.7033 39.19922,-39.1973 0,-21.494 -17.70516,-39.2051 -39.19922,-39.2051 z m -629.54105,26.4278 c 7.2104,0 12.7696,5.567 12.7696,12.7773 0,7.2104 -5.5592,12.7715 -12.7696,12.7715 -7.2104,0 -12.7793,-5.5611 -12.7793,-12.7715 0,-7.2104 5.5689,-12.7773 12.7793,-12.7773 z m 629.54105,0 c 7.21043,0 12.77148,5.5669 12.77148,12.7773 0,7.2104 -5.56105,12.7715 -12.77148,12.7715 -7.21036,0 -12.77735,-5.5611 -12.77735,-12.7715 0,-7.2103 5.56699,-12.7773 12.77735,-12.7773 z m -618.54295,57.9316 c -21.494,0 -39.1973,17.7111 -39.1973,39.2051 0,21.494 17.7033,39.1992 39.1973,39.1992 8.1558,0 15.7628,-2.5548 22.0683,-6.8926 l 90.084,70.8125 a 13.215097,13.215097 0 0 0 8.166,2.8184 h 51.4844 a 139.22766,139.22766 0 0 1 -6.041,-26.4258 h -40.875 l -87.2637,-68.5859 c 1.0229,-3.4747 1.5821,-7.1399 1.5821,-10.9258 0,-21.494 -17.7111,-39.2051 -39.2051,-39.2051 z m 607.53709,0 c -21.49402,0 -39.19727,17.7111 -39.19727,39.2051 0,3.7866 0.55918,7.4524 1.58203,10.9277 l -87.26367,68.584 h -40.78708 a 139.22766,139.22766 0 0 1 -5.9942,26.4258 h 51.34964 a 13.215097,13.215097 0 0 0 8.16406,-2.8184 l 90.08399,-70.8105 c 6.30355,4.3363 13.90825,6.8906 22.0625,6.8906 21.49406,0 39.20508,-17.7052 39.20508,-39.1992 0,-21.494 -17.71102,-39.2051 -39.20508,-39.2051 z m -607.53709,26.4278 c 7.2103,0 12.7773,5.5669 12.7773,12.7773 0,2.148 -0.5022,4.1447 -1.3867,5.8965 a 13.215097,13.215097 0 0 0 -1.9531,2.8144 c -2.3126,2.5104 -5.6427,4.0606 -9.4375,4.0606 -7.2104,0 -12.7715,-5.5611 -12.7715,-12.7715 0,-7.2104 5.5611,-12.7773 12.7715,-12.7773 z m 607.53709,0 c 7.21043,0 12.77734,5.5669 12.77734,12.7773 0,7.2104 -5.56691,12.7715 -12.77734,12.7715 -3.76564,0 -7.07232,-1.5258 -9.38086,-4.002 a 13.215097,13.215097 0 0 0 -2.00586,-2.8789 c -0.88185,-1.7504 -1.38477,-3.7448 -1.38477,-5.8906 0,-7.2104 5.56113,-12.7773 12.77149,-12.7773 z m -607.53709,114.4199 c -21.494,0 -39.1973,17.7033 -39.1973,39.1972 0,21.4941 17.7033,39.2051 39.1973,39.2051 16.8674,0 31.4018,-10.9092 36.8789,-25.9922 h 142.6055 a 171.13226,171.13226 0 0 1 11.1816,-10.8867 139.22766,139.22766 0 0 1 -9.4824,-15.539 h -144.3047 c -5.4771,-15.0811 -20.0115,-25.9844 -36.8789,-25.9844 z m 607.53709,0 c -16.86722,0 -31.39587,10.9036 -36.8711,25.9844 h -144.26759 a 139.22766,139.22766 0 0 1 -9.5195,15.5703 171.13226,171.13226 0 0 1 10.9805,10.8554 h 142.80659 c 5.47523,15.0828 20.00388,25.9922 36.8711,25.9922 21.49406,0 39.20508,-17.711 39.20508,-39.2051 0,-21.4939 -17.71102,-39.1972 -39.20508,-39.1972 z m -607.53709,26.4258 c 7.2103,0 12.7773,5.5611 12.7773,12.7714 0,7.2104 -5.567,12.7774 -12.7773,12.7774 -7.2104,0 -12.7715,-5.567 -12.7715,-12.7774 0,-7.2103 5.5611,-12.7714 12.7715,-12.7714 z m 607.53709,0 c 7.21043,0 12.77734,5.5611 12.77734,12.7714 0,7.2104 -5.56691,12.7774 -12.77734,12.7774 -7.21036,0 -12.77149,-5.567 -12.77149,-12.7774 0,-7.2103 5.56113,-12.7714 12.77149,-12.7714 z m -491.52339,39.1035 a 13.215097,13.215097 0 0 0 -8.2969,2.9297 l -110.6699,89.2714 c -6.9836,-6.3788 -16.2497,-10.2929 -26.3536,-10.2929 -21.494,0 -39.205,17.7033 -39.205,39.1972 0,21.494 17.711,39.20707 39.205,39.20707 21.4941,0 39.1993,-17.71297 39.1993,-39.20707 0,-1.708 -0.1233,-3.3878 -0.3399,-5.041 l 111.127,-89.6386 h 30.9472 a 171.13226,171.13226 0 0 1 16.6407,-26.4258 z m 323.0722,0 a 171.13226,171.13226 0 0 1 16.84962,26.4258 h 30.92969 l 111.1211,89.6367 c -0.21688,1.6538 -0.3418,3.3342 -0.3418,5.0429 0,21.4941 17.71106,39.20707 39.20508,39.20707 21.49406,0 39.19922,-17.71307 39.19922,-39.20707 0,-21.4939 -17.70516,-39.1972 -39.19922,-39.1972 -10.10435,0 -19.37011,3.9155 -26.35547,10.2949 l -110.67383,-89.2734 a 13.215097,13.215097 0 0 0 -8.28906,-2.9297 z m -468.3926,108.3359 c 7.2104,0 12.7715,5.5592 12.7715,12.7695 0,7.2104 -5.5611,12.7793 -12.7715,12.7793 -7.2104,0 -12.7773,-5.5689 -12.7773,-12.7793 0,-7.2104 5.5669,-12.7695 12.7773,-12.7695 z m 666.15629,0 c 7.21043,0 12.77148,5.5591 12.77148,12.7695 0,7.2104 -5.56105,12.7793 -12.77148,12.7793 -7.21036,0 -12.77735,-5.5689 -12.77735,-12.7793 0,-7.2103 5.56699,-12.7695 12.77735,-12.7695 z"
           style="color:#000000;font-style:normal;font-variant:normal;font-weight:normal;font-stretch:normal;font-size:medium;line-height:normal;font-family:sans-serif;font-variant-ligatures:normal;font-variant-position:normal;font-variant-caps:normal;font-variant-numeric:normal;font-variant-alternates:normal;font-feature-settings:normal;text-indent:0;text-align:start;text-decoration:none;text-decoration-line:none;text-decoration-style:solid;text-decoration-color:#000000;letter-spacing:normal;word-spacing:normal;text-transform:none;writing-mode:lr-tb;direction:ltr;text-orientation:mixed;dominant-baseline:auto;baseline-shift:baseline;text-anchor:start;white-space:normal;shape-padding:0;clip-rule:nonzero;display:inline;overflow:visible;visibility:visible;opacity:1;isolation:auto;mix-blend-mode:normal;color-interpolation:sRGB;color-interpolation-filters:linearRGB;solid-color:#000000;solid-opacity:1;vector-effect:none;fill:#ffcc00;fill-opacity:1;fill-rule:nonzero;stroke:none;stroke-width:26.42755127;stroke-linecap:round;stroke-linejoin:round;stroke-miterlimit:4;stroke-dasharray:none;stroke-dashoffset:0;stroke-opacity:1;color-rendering:auto;image-rendering:auto;shape-rendering:auto;text-rendering:auto;enable-background:accumulate"
           inkscape:connector-curvature="0" />
        <path
           inkscape:connector-curvature="0"
           id="path2439"
           style="fill:#28aa49;fill-opacity:1;fill-rule:nonzero;stroke:none;stroke-width:0.50181496"
           d="m -275.09469,-267.45369 c -4.96295,2.87039 -14.00063,4.48119 -23.53511,4.8324 l 9.0979,-11.12013 -8.80684,-20.17799 7.28133,-10.01119 c 0.47666,-0.19629 0.93839,-0.42105 1.40511,-0.63726 l 2.30332,1.96215 c 8.72154,7.39171 13.10239,11.1052 14.80857,32.66312 0,0.5064 -0.7879,1.4653 -2.55425,2.48904 z m -55.10428,0.005 c -1.7664,-1.02845 -2.55926,-1.9872 -2.57431,-2.09758 1.72121,-21.95436 6.10205,-25.66785 14.82862,-33.05957 l 2.2381,-1.90667 c 0.4266,0.1963 0.84807,0.40114 1.28463,0.58179 l 7.28133,10.01117 -8.80684,20.178 9.09288,11.11018 c -9.45922,-0.36558 -18.40657,-1.97212 -23.34443,-4.81747 z m 48.23946,-64.98999 c 0,11.45642 -9.3187,20.78012 -20.78014,20.78012 -11.45646,0 -20.78017,-9.3237 -20.78017,-20.78012 0,-11.45641 9.32371,-20.78012 20.78017,-20.78012 11.46144,0 20.78014,9.32371 20.78014,20.78012 z m 1.09899,22.17016 -0.26088,-0.2205 c 5.67553,-5.59029 9.19828,-13.35326 9.19828,-21.94937 0,-17.02154 -13.79489,-30.81649 -30.81645,-30.81649 -17.02158,0 -30.81647,13.79495 -30.81647,30.81649 0,8.63621 3.5629,16.43433 9.2886,22.02961 l -0.16558,0.14225 c -10.40764,8.822 -16.38927,15.02439 -18.36141,40.32583 0,3.11136 1.31479,7.56738 7.57742,11.18044 7.30642,4.22033 19.9371,6.32799 32.5728,6.32799 12.63067,0 25.26637,-2.10766 32.56779,-6.32799 6.25764,-3.61804 7.57238,-8.0742 7.55734,-11.57191 -1.95707,-24.90997 -7.93371,-31.11248 -18.34134,-39.93436" />
      </g>
    </g>
  </g>
</svg>
