<?xml version="1.0" encoding="UTF-8" standalone="no"?>
<!-- Created with Inkscape (http://www.inkscape.org/) -->

<svg
   xmlns:dc="http://purl.org/dc/elements/1.1/"
   xmlns:cc="http://creativecommons.org/ns#"
   xmlns:rdf="http://www.w3.org/1999/02/22-rdf-syntax-ns#"
   xmlns:svg="http://www.w3.org/2000/svg"
   xmlns="http://www.w3.org/2000/svg"
   xmlns:sodipodi="http://sodipodi.sourceforge.net/DTD/sodipodi-0.dtd"
   xmlns:inkscape="http://www.inkscape.org/namespaces/inkscape"
   width="269.18787mm"
   height="220.16754mm"
   viewBox="0 0 269.18787 220.16754"
   version="1.1"
   id="svg880"
   inkscape:version="0.92.4 5da689c313, 2019-01-14"
   sodipodi:docname="logo gram poros putih.svg">
  <defs
     id="defs874" />
  <sodipodi:namedview
     id="base"
     pagecolor="#ffffff"
     bordercolor="#666666"
     borderopacity="1.0"
     inkscape:pageopacity="0.0"
     inkscape:pageshadow="2"
     inkscape:zoom="0.175"
     inkscape:cx="141.96361"
     inkscape:cy="76.313296"
     inkscape:document-units="mm"
     inkscape:current-layer="layer1"
     showgrid="false"
     fit-margin-top="0"
     fit-margin-left="0"
     fit-margin-right="0"
     fit-margin-bottom="0"
     inkscape:window-width="1280"
     inkscape:window-height="665"
     inkscape:window-x="0"
     inkscape:window-y="0"
     inkscape:window-maximized="1" />
  <metadata
     id="metadata877">
    <rdf:RDF>
      <cc:Work
         rdf:about="">
        <dc:format>image/svg+xml</dc:format>
        <dc:type
           rdf:resource="http://purl.org/dc/dcmitype/StillImage" />
        <dc:title></dc:title>
      </cc:Work>
    </rdf:RDF>
  </metadata>
  <g
     inkscape:label="Layer 1"
     inkscape:groupmode="layer"
     id="layer1"
     transform="translate(7.5900547,176.55782)">
    <g
       transform="matrix(0.34627851,0,0,0.34627851,4115.5444,836.95454)"
       id="g4560"
       inkscape:export-filename=".\g4560.png"
       inkscape:export-xdpi="90"
       inkscape:export-ydpi="90">
      <path
         inkscape:export-ydpi="90"
         inkscape:export-xdpi="90"
         inkscape:connector-curvature="0"
         id="path4531"
         d="m -11444.513,-2293.9482 c -5.019,-5.1834 -12.325,-21.0053 -19.889,-43.0721 -3.022,-8.8153 -3.786,-10.574 -4.649,-10.7048 -0.568,-0.086 -14.101,5.8783 -30.071,13.2544 -15.971,7.376 -33.107,15.0456 -38.08,17.0435 -35.144,14.1197 -66.203,18.6772 -97.069,14.2433 -2.279,-0.3274 -4.144,-0.767 -4.144,-0.9768 0,-0.2098 0.734,-0.541 1.632,-0.736 6.969,-1.5137 23.152,-8.1026 32.214,-13.1164 44.433,-24.583 76.35,-61.8096 96.4,-112.4348 7.635,-19.2778 12.744,-38.9735 14.436,-55.6517 0.818,-8.0631 0.383,-26.6714 -0.771,-33.0041 -1.734,-9.5079 -4.882,-18.6377 -9.787,-28.3799 -6.01,-11.94 -14.327,-21.5966 -24.401,-28.3328 -3.023,-2.0215 -5.948,-4.0768 -6.501,-4.5673 -3.163,-2.808 -20.406,-8.5976 -33.403,-11.2156 -13.474,-2.7141 -18.363,-3.1026 -38.677,-3.0731 -22.971,0.033 -47.456,1.6471 -94.934,6.2567 -50.85,4.9369 -80.924,4.9908 -102.43,0.1835 -14.992,-3.3512 -29.443,-10.6603 -38.179,-19.3107 -19.718,-19.5235 -21.479,-50.9516 -4.65,-83.015 2.41,-4.5927 3.132,-5.5632 4.615,-6.2047 10.364,-4.4831 49.801,-7.3506 85.551,-6.2205 16.183,0.5116 36.577,1.6652 43.289,2.4487 l 3.014,0.3518 0.932,2.7627 c 0.635,1.8823 1.014,4.8436 1.188,9.2925 0.217,5.5347 0.09,7.213 -0.818,11.0116 -1.935,8.0784 -5.318,13.4001 -11.802,18.5674 -9.114,7.2623 -19.207,9.4805 -28.736,6.315 -4.388,-1.4577 -6.849,-3.7772 -9.222,-8.6901 -4.552,-9.4264 -4.663,-16.5514 -0.31,-19.9748 0.715,-0.5628 1.3,-1.3774 1.3,-1.8102 0,-3.0942 -24.155,6.0101 -30.28,11.413 -1.322,1.1656 -2.735,2.7626 -3.142,3.5489 -1.309,2.5315 -2.319,8.1192 -2.309,12.779 0.02,12.0863 6.702,21.2976 17.42,24.0307 11.963,3.0508 28.996,-0.074 46.189,-8.4729 15.285,-7.4671 26.783,-17.3858 33.515,-28.9108 3.659,-6.2643 6.27,-13.9379 7.942,-23.3422 0.587,-3.3046 1.219,-6.1486 1.404,-6.3202 0.39,-0.3614 19.353,1.3676 39.195,3.5736 52.011,5.7824 88.12,13.2586 105.932,21.9328 9.535,4.6438 8.718,3.3901 20.409,31.3142 5.493,13.1226 32.193,76.8643 59.332,141.6483 27.139,64.7841 49.93,119.4201 50.647,121.4135 0.717,1.9933 4.847,12.0518 9.178,22.3523 18.824,44.7713 17.841,42.2667 16.885,43.0067 -1.202,0.9306 -16.299,8.489 -23.252,11.6412 -14.078,6.3824 -25.011,10.0405 -30.009,10.0405 -2.149,0 -2.498,-0.1976 -5.104,-2.8883 z m -242.123,-8.4178 c -21.328,-2.3779 -39.836,-8.6034 -54.248,-18.2475 -9.836,-6.5818 -16.995,-13.7314 -23.669,-23.639 -8.634,-12.8157 -12.07,-23.483 -12.15,-37.7236 -0.04,-6.7886 0.891,-16.3501 1.633,-16.8088 0.179,-0.1108 2.235,2.3262 4.569,5.4155 33.583,44.4614 74.056,75.0684 115.002,86.9673 3.368,0.9791 6.443,1.7801 6.833,1.7801 0.389,0 0.707,0.2 0.707,0.4445 0,0.4728 -4.74,1.2499 -12.557,2.0583 -6.41,0.6629 -19.03,0.5437 -26.12,-0.2468 z m 308.961,-13.2327 c -0.24,-0.455 -3.54,-8.3995 -7.333,-17.6544 -12.142,-29.6211 -17.178,-41.7491 -20.756,-49.9787 -2.899,-6.6695 -98.569,-239.949 -112.473,-274.2519 -4.257,-10.503 -4.272,-10.5588 -3.999,-14.0644 1.077,-13.8247 17.26,-41.7079 46.501,-80.1201 12.568,-16.5105 38.809,-48.6981 39.998,-49.0618 0.276,-0.084 2.505,1.2799 4.954,3.0322 5.411,3.8719 14.565,8.8421 18.946,10.2867 10.861,3.5822 24.045,3.9745 36.426,1.084 18.589,-4.3396 35.286,-13.1188 45.289,-23.8126 8.638,-9.2333 10.37,-19.0434 5.106,-28.9186 -2.925,-5.4884 -8.969,-11.0525 -14.816,-13.6385 -3.206,-1.4182 -7.008,-1.0615 -14.164,1.3289 -9.099,3.0393 -21.214,9.3104 -21.214,10.981 0,0.5152 0.92,0.755 3.446,0.8977 2.841,0.1606 3.776,0.4465 5.328,1.6305 4.242,3.2359 8.806,13.1237 8.806,19.0796 0,4.3964 -2.074,8.4268 -6.745,13.1095 -4.108,4.1178 -8.053,6.3718 -13.664,7.8068 -16.464,4.2108 -29.758,-1.3751 -39.698,-16.6808 -1.198,-1.844 -2.172,-3.7653 -2.164,-4.2695 0.02,-1.1145 15.688,-18.8023 30.709,-34.663 22.72,-23.9902 44.767,-43.5509 60.703,-53.8561 l 4.599,-2.9746 3.348,0.929 c 19.889,5.5197 37.58,16.6546 47.413,29.8411 3.775,5.0624 7.521,12.7473 9.199,18.8696 1.767,6.4492 2.205,16.2786 1.029,23.1057 -2.274,13.2063 -8.362,26.7457 -17.532,38.988 -5.693,7.601 -10.62,13.1721 -20.335,22.9942 -14.016,14.1696 -21.842,21.0656 -56.611,49.8847 -48.109,39.8769 -68.583,59.0529 -82,76.8034 -8.914,11.7931 -18.946,30.1766 -20.665,37.8666 -2.736,12.2432 -3.225,16.3368 -2.941,24.6127 0.275,8.019 1.757,15.8082 4.472,23.5013 2.346,6.6466 7.617,17.7295 10.376,21.8193 16.372,24.2622 43.587,44.0622 81.456,59.2626 37.636,15.1074 74.242,20.0245 110.984,14.9083 22.02,-3.0663 43.872,-9.8606 59.267,-18.4272 2.507,-1.3953 4.559,-2.358 4.559,-2.1392 0,0.2187 -1.582,2.5072 -3.516,5.0854 -15.57,20.7624 -37.63,38.161 -65.299,51.5005 -4.282,2.0644 -8.125,3.9381 -8.539,4.1637 -1.88,1.0231 -1.058,2.3447 5.378,8.6518 16.269,15.9423 26.582,21.5595 39.532,21.5317 23.102,-0.05 49.445,-19.1773 80.94,-58.7705 l 6.747,-8.4822 1.637,0.7061 c 0.901,0.3884 1.58,0.9476 1.509,1.2428 -0.07,0.2952 -1.483,3.0927 -3.138,6.2167 -3.019,5.6998 -18.168,26.6453 -20.035,27.702 -0.49,0.2775 -3.808,3.7821 -7.373,7.7879 -8.39,9.4286 -24.532,25.8422 -31.77,32.3056 -15.258,13.6255 -27.513,21.7812 -37.513,24.9653 -4.893,1.5581 -13.362,1.9163 -17.832,0.7544 -3.922,-1.0196 -9.192,-3.7032 -12.011,-6.1165 -6.228,-5.331 -12.654,-17.277 -19.141,-35.5841 -3.636,-10.2611 -5.167,-13.8933 -6.103,-14.4839 -0.594,-0.375 -7.369,1.9228 -27.101,9.1925 -14.47,5.3308 -26.591,9.8 -26.936,9.9316 -1.196,0.4553 -0.606,2.1118 4.279,12.0243 10.541,21.3874 16.185,36.8925 16.188,44.4729 0,3.0065 -0.157,3.5524 -1.452,5.023 -4.248,4.821 -24.094,13.5628 -47.405,20.8808 -5.761,1.8085 -6.459,1.9293 -6.85,1.1862 z m -281.083,-7.8941 c -0.829,-0.1146 -3.542,-0.4632 -6.028,-0.7746 -19.005,-2.3803 -36.694,-10.6983 -48.974,-23.0284 -6.418,-6.444 -10.875,-12.6575 -15.509,-21.6205 -13.422,-25.9608 -17.39,-50.5711 -11.58,-71.8288 3.138,-11.4806 11.211,-22.9344 21.588,-30.6285 12.849,-9.5263 26.116,-14.226 40.16,-14.226 18.41,0 33.064,7.2625 41.62,20.6281 1.401,2.1883 1.632,2.9339 1.359,4.3889 -0.831,4.4282 -10.38,14.6071 -33.445,35.6535 -23.433,21.3809 -29.124,27.2715 -29.124,30.1437 0,1.4468 3.163,5.7073 5.795,7.8072 6.412,5.1137 16.428,7.1876 25.465,5.2725 9.002,-1.9077 23.098,-10.9661 33.801,-21.7221 18.376,-18.4654 29.393,-44.8918 26.867,-64.4414 -2.223,-17.2002 -12.264,-31.0529 -26.934,-37.1603 -6.707,-2.792 -11.903,-3.6859 -21.545,-3.7067 -11.683,-0.025 -20.586,1.6569 -33.403,6.3099 -7.518,2.7292 -23.009,10.4987 -29.385,14.7372 -19.389,12.8906 -34.502,30.5949 -46.393,54.3488 -3.751,7.4923 -8.173,18.5476 -9.947,24.8679 -0.756,2.6936 -1.518,4.8975 -1.694,4.8975 -0.669,0 -12.695,-18.7764 -18.306,-28.582 -15.535,-27.1519 -33.552,-64.8597 -46.516,-97.3561 -1.381,-3.46 -2.416,-6.3853 -2.301,-6.5005 0.116,-0.1153 3.459,0.2979 7.431,0.9181 6.299,0.9839 9.208,1.1307 22.792,1.1508 16.35,0.024 18.749,-0.1632 38.928,-3.0408 15.166,-2.1626 38.108,-6.1513 59.243,-10.2999 64.212,-12.6039 92.343,-16.543 113.297,-15.8642 18.301,0.5928 34.585,3.9136 45.062,9.1894 12.757,6.4244 21.66,16.069 29.003,31.4194 17.835,37.2829 16.633,74.2327 -3.682,113.1893 -13.424,25.7441 -33.092,47.1599 -59.007,64.252 -18.561,12.2414 -31.485,17.7934 -48.032,20.633 -4.425,0.7594 -17.64,1.3837 -20.606,0.9736 z m 353.116,-155.2624 c -39.825,-3.347 -76.392,-20.3799 -97.255,-45.3012 -12.347,-14.7479 -22.131,-34.6506 -25.839,-52.5606 -1.134,-5.473 -1.135,-16.7496 0,-22.0179 1.938,-9.0229 5.598,-17.1204 12.087,-26.7465 16.011,-23.7488 34.963,-39.6285 98.154,-82.2396 39.999,-26.972 63.111,-43.7151 77.774,-56.3399 9.723,-8.3718 21.384,-21.1166 27.254,-29.787 0.967,-1.4283 1.953,-2.538 2.192,-2.466 0.24,0.072 1.673,3.0607 3.185,6.6415 16.616,39.3359 30.808,80.6092 38.338,111.491 2.59,10.6246 5.013,22.6818 4.634,23.0611 -0.125,0.1244 -1.306,-0.4382 -2.626,-1.2503 -10.154,-6.2477 -31.27,-14.0026 -46.226,-16.9768 -14.029,-2.7899 -29.832,-3.4693 -42.444,-1.8247 -16.278,2.1226 -37.465,9.3492 -50.781,17.32 -14.108,8.4454 -25.796,20.6397 -30.337,31.6512 -4.423,10.7244 -4.19,22.5206 0.671,34.0466 6.976,16.5412 23.699,28.8103 47.489,34.8404 9.206,2.3336 16.52,3.0936 26.93,2.7988 13.528,-0.3832 24.561,-2.6465 32.87,-6.7424 8.477,-4.1792 15.382,-12.6699 17.125,-21.0593 0.596,-2.8644 0.432,-9.0391 -0.287,-10.8691 -1.165,-2.9633 -9.314,-3.4313 -36.145,-2.0757 -24.749,1.2503 -46.386,1.2772 -51.553,0.064 -2.109,-0.4951 -4.174,-1.2862 -4.59,-1.758 -2.129,-2.4184 -3.065,-14.5999 -1.638,-21.3326 3.125,-14.7464 14.98,-29.5758 29.695,-37.1457 15.018,-7.7258 32.857,-10.142 47.422,-6.4233 22.912,5.8501 42.737,27.3023 53.95,58.3804 4.925,13.6489 6.618,23.2167 6.158,34.7967 -0.458,11.5249 -2.681,20.3448 -7.874,31.2518 -11.587,24.3347 -30.911,41.0621 -57.575,49.8381 -12.364,4.0695 -28.709,7.3454 -42.627,8.5436 -5.514,0.4747 -23.316,0.5959 -28.128,0.1915 z m 120.301,-15.4588 c 0,-0.1781 1.009,-2.074 2.243,-4.213 9.751,-16.9063 17.38,-38.904 21.061,-60.7317 2.571,-15.251 3.034,-21.5776 3.038,-41.5686 0.01,-19.2774 -0.484,-26.9177 -2.754,-43.1594 -0.538,-3.8466 -0.91,-7.0616 -0.827,-7.1444 0.542,-0.5421 10.055,7.0907 13.944,11.188 10.372,10.9276 16.08,23.4828 18.318,40.2935 3.936,29.5651 -8.794,61.9137 -34.871,88.613 -7.422,7.5989 -20.152,18.1627 -20.152,16.7226 z m -667.305,-45.9334 c -6.685,-1.8408 -10.056,-3.1434 -15.887,-6.1383 -18.563,-9.535 -33.146,-29.8212 -36.789,-51.1767 -0.354,-2.072 -0.759,-3.4282 -0.901,-3.0138 -0.142,0.4144 -0.424,-1.4814 -0.626,-4.2129 -0.392,-5.3113 0.101,-15.3549 0.707,-14.375 0.2,0.3245 0.526,-0.8417 0.724,-2.5918 0.988,-8.7532 5.569,-22.5447 11.319,-34.0821 17.797,-35.7059 47.097,-65.2483 86.372,-87.0866 17.555,-9.7617 35.129,-15.9263 51.774,-18.1617 7.27,-0.9763 20.219,-0.9343 26.156,0.085 16.861,2.8938 27.649,11.5287 34.443,27.5673 2.694,6.3594 4.551,12.7467 5.476,18.8362 0.766,5.0446 0.99,14.3559 0.354,14.7275 -0.612,0.3576 -20.31,-1.5526 -20.688,-2.0061 -0.19,-0.2283 -1.097,-2.4494 -2.015,-4.9358 -2.035,-5.511 -6.525,-14.589 -9.069,-18.3339 -2.444,-3.599 -8.544,-9.3665 -12.352,-11.6799 -4.245,-2.5787 -9.954,-4.7618 -16.465,-6.2952 -5.071,-1.1946 -6.544,-1.3172 -15.886,-1.3224 -11.632,-0.01 -16.122,0.6972 -25.692,4.0265 -19.748,6.8704 -40.656,23.0366 -51.493,39.8155 -1.808,2.7992 -1.879,2.8467 -6.398,4.2472 -7.025,2.1771 -13.328,5.4248 -16.841,8.6768 -14.94,13.8315 -12.061,53.8753 8.294,115.3589 2.081,6.2866 5.485,16.0061 7.566,21.5989 4.633,12.4584 4.474,11.935 3.627,11.8912 -0.378,-0.019 -2.947,-0.6578 -5.71,-1.4185 z m 639.713,-264.1372 c -10.52,-23.7566 -24.343,-50.0653 -35.827,-68.1865 -13.983,-22.0634 -28.949,-38.3566 -40.642,-44.2449 -9.433,-4.7507 -16.442,-4.2608 -29.3,2.048 l -5.525,2.7112 -5.777,-1.0584 c -6.978,-1.2785 -24.245,-1.5418 -30.891,-0.471 -23.163,3.7321 -39,11.1261 -52.271,24.4038 -10.873,10.8782 -16.79,21.6096 -18.341,33.2661 -1.172,8.8039 0.822,17.7564 7.156,32.1432 2.024,4.5964 2.034,4.6502 1.104,5.8244 -0.515,0.6518 -3.508,4.2748 -6.65,8.0511 l -5.713,6.866 -1.782,-1.4685 c -5.926,-4.8854 -13.071,-15.2192 -17.216,-24.9017 -3.235,-7.5587 -4.643,-13.6376 -4.647,-20.0636 -0.01,-9.0179 2.175,-15.7036 7.943,-24.3615 11.809,-17.7247 35.197,-33.1709 63.795,-42.1336 16.438,-5.1516 41.859,-9.9323 53.997,-10.155 2.141,-0.039 2.48,-0.1413 1.507,-0.4528 -0.696,-0.2228 4.68,-0.4022 12.055,-0.4022 7.376,0 12.751,0.1794 12.056,0.4022 -1.006,0.3219 -0.755,0.4123 1.255,0.4528 4.522,0.091 15.923,1.5852 23.721,3.1083 43.624,8.5207 71.53,28.1902 81.212,57.2416 3.034,9.1037 3.967,14.7087 4.012,24.0859 0.05,10.9173 -1.675,19.0964 -6.048,28.631 -1.824,3.9751 -6.74,12.5579 -7.193,12.5569 -0.147,-3e-4 -1.042,-1.752 -1.99,-3.8928 z"
         style="fill:#ffffff;stroke-width:0.5591138"
         sodipodi:nodetypes="ccccccsccccccccssssccsscccscccccssccsscccsccscscsscsccccccsscsccscccccssccccsccscscccccccccccsccsccsscscscscccscccsssccccsccccccccscscsccssccsccsccccsccccsssssccccccsccsscsccsccssscssssccscccssscsssccsccccccccsccccccccscsccccccccccscssscccssscssscccsccsccsscsccsccccc" />
      <path
         inkscape:export-ydpi="90"
         inkscape:export-xdpi="90"
         inkscape:connector-curvature="0"
         id="path4533"
         d="m -11416.133,-2385.3756 c -6.062,-12.939 -25.127,-50.7914 -31.934,-63.4063 -13.772,-25.5185 -27.689,-48.9729 -41.906,-70.6208 -6.374,-9.7066 -7.882,-12.3721 -9.235,-16.3248 -2.305,-6.7347 -7.538,-16.9934 -11.495,-22.5334 -4.868,-6.814 -11.433,-13.1854 -18.365,-17.8212 -4.871,-3.2577 -6.735,-4.909 -11.302,-10.0146 -26.344,-29.4507 -53.549,-49.4573 -90.933,-66.8737 -16.087,-7.4948 -39.388,-16.2786 -55.333,-20.8592 -3.177,-0.9128 -5.979,-1.8347 -6.226,-2.0488 -0.256,-0.2219 0.22,-2.4079 1.107,-5.0828 0.856,-2.5814 2.037,-7.3971 2.625,-10.7016 0.587,-3.3046 1.219,-6.1486 1.404,-6.3202 0.39,-0.3614 19.353,1.3676 39.195,3.5736 52.011,5.7824 88.12,13.2586 105.932,21.9328 9.535,4.6438 8.718,3.3901 20.408,31.3142 5.494,13.1226 31.678,75.6211 58.188,138.8857 49.917,119.1238 52.286,124.8272 51.987,125.1262 -0.1,0.099 -1.951,-3.6026 -4.117,-8.2251 z m 8.878,-1.2204 c -3.114,-7.3932 -101.905,-248.5196 -110.469,-269.6302 l -4.787,-11.7988 0.274,-3.5213 c 1.078,-13.8266 17.259,-41.7076 46.502,-80.1219 12.568,-16.5105 38.809,-48.6981 39.998,-49.0618 0.276,-0.084 2.536,1.304 5.023,3.0857 2.486,1.7816 6.724,4.3937 9.418,5.8045 2.693,1.4108 4.897,2.7488 4.897,2.9733 0,0.2245 -1.021,2.2539 -2.269,4.5098 -14.871,26.8855 -28.128,59.9373 -34.854,86.8952 -6.243,25.0256 -7.778,39.4564 -7.51,70.6146 0.165,19.1862 0.108,20.8862 -0.826,24.8638 -0.82,3.4892 -0.999,5.9679 -0.978,13.5621 0.02,8.3447 0.169,9.9033 1.426,15.2806 1.7,7.2735 3.568,12.6635 6.916,19.9577 2.14,4.6617 2.832,6.985 4.443,14.9034 8.923,43.8741 23.194,93.7696 41.751,145.9684 2.447,6.8858 4.365,12.6051 4.261,12.7094 -0.105,0.1043 -1.552,-3.0432 -3.216,-6.9945 z m -311.277,-295.5802 c -32.252,-7.3583 -74.755,-12.5665 -114.673,-14.0519 -5.451,-0.2029 -9.006,-0.5261 -8.737,-0.7944 0.647,-0.647 5.885,-1.8074 13.155,-2.9142 17.539,-2.6702 45.583,-3.8652 71.487,-3.0464 16.183,0.5116 36.577,1.6652 43.289,2.4487 l 3.014,0.3518 0.937,2.7627 c 0.666,1.9642 1.013,4.8313 1.199,9.9204 l 0.262,7.1578 -1.199,-0.058 c -0.66,-0.032 -4.59,-0.8313 -8.734,-1.7767 z"
         style="fill:#ffffff;stroke-width:0.5591138"
         sodipodi:nodetypes="sccccscccccscsccscsccccccccsccccccccsccccccscccccccc" />
    </g>
  </g>
</svg>
